SplineFontDB: 3.2
FontName: RisingSun-Regular
FullName: Rising Sun Regular
FamilyName: Rising Sun
Weight: Book
Copyright: Copyright (c) 2012, The Raleway Project Authors (matt@pixelspread.com)
Version: 4.321
ItalicAngle: 0
UnderlinePosition: -125
UnderlineWidth: 50
Ascent: 800
Descent: 200
InvalidEm: 0
sfntRevision: 0x0004526e
LayerCount: 2
Layer: 0 1 "Back" 1
Layer: 1 1 "Fore" 0
XUID: [1021 158 994486733 3469815]
StyleMap: 0x0040
FSType: 0
OS2Version: 4
OS2_WeightWidthSlopeOnly: 0
OS2_UseTypoMetrics: 1
CreationTime: 1683072783
ModificationTime: 1710185873
PfmFamily: 81
TTFWeight: 400
TTFWidth: 5
LineGap: 21
VLineGap: 0
Panose: 0 0 0 0 0 0 0 0 0 0
OS2TypoAscent: 923
OS2TypoAOffset: 0
OS2TypoDescent: -213
OS2TypoDOffset: 0
OS2TypoLinegap: 21
OS2WinAscent: 944
OS2WinAOffset: 0
OS2WinDescent: 234
OS2WinDOffset: 0
HheadAscent: 923
HheadAOffset: 0
HheadDescent: -213
HheadDOffset: 0
OS2SubXSize: 650
OS2SubYSize: 600
OS2SubXOff: 0
OS2SubYOff: 75
OS2SupXSize: 650
OS2SupYSize: 600
OS2SupXOff: 0
OS2SupYOff: 350
OS2StrikeYSize: 50
OS2StrikeYPos: 300
OS2CapHeight: 710
OS2XHeight: 522
OS2Vendor: '    '
OS2CodePages: 2000019f.00000000
OS2UnicodeRanges: a00002ff.4000205b.00000000.00000000
Lookup: 1 0 0 "'aalt' Access All Alternates lookup 0" { "'aalt' Access All Alternates lookup 0 subtable"  } ['aalt' ('DFLT' <'dflt' > 'cyrl' <'BGR ' 'SRB ' 'dflt' > 'latn' <'AZE ' 'CAT ' 'CRT ' 'KAZ ' 'MOL ' 'ROM ' 'TAT ' 'TRK ' 'dflt' > ) ]
Lookup: 3 0 0 "'aalt' Access All Alternates lookup 1" { "'aalt' Access All Alternates lookup 1 subtable"  } ['aalt' ('DFLT' <'dflt' > 'cyrl' <'BGR ' 'SRB ' 'dflt' > 'latn' <'AZE ' 'CAT ' 'CRT ' 'KAZ ' 'MOL ' 'ROM ' 'TAT ' 'TRK ' 'dflt' > ) ]

StartChar: .notdef
Encoding: 65536 -1 0
Width: 608
GlyphClass: 1
Flags: W
LayerCount: 2
Fore
SplineSet
558 689 m 2,0,1
 558 699 558 699 553 704.5 c 128,-1,2
 548 710 548 710 540 710 c 2,3,-1
 69 710 l 2,4,5
 61 710 61 710 55.5 704 c 128,-1,6
 50 698 50 698 50 687 c 2,7,-1
 50 25 l 2,8,9
 50 12 50 12 55.5 6 c 128,-1,10
 61 0 61 0 77 0 c 2,11,-1
 525 0 l 2,12,13
 542 0 542 0 550 6.5 c 128,-1,14
 558 13 558 13 558 29 c 2,15,-1
 558 689 l 2,0,1
506 74 m 2,16,17
 506 61 506 61 499 55.5 c 128,-1,18
 492 50 492 50 478 50 c 2,19,-1
 125 50 l 2,20,21
 111 50 111 50 106.5 55 c 128,-1,22
 102 60 102 60 102 71 c 2,23,-1
 102 641 l 2,24,25
 102 650 102 650 106.5 655 c 128,-1,26
 111 660 111 660 118 660 c 2,27,-1
 491 660 l 2,28,29
 498 660 498 660 502 655 c 128,-1,30
 506 650 506 650 506 642 c 2,31,-1
 506 74 l 2,16,17
538 33 m 1,32,-1
 123 696 l 1,33,-1
 71 669 l 1,34,-1
 478 28 l 1,35,-1
 538 33 l 1,32,-1
EndSplineSet
EndChar

StartChar: exclam
Encoding: 33 33 4
Width: 262
GlyphClass: 1
Flags: W
LayerCount: 2
Fore
SplineSet
69 52 m 256,0,1
 69 39 69 39 74 28 c 128,-1,2
 79 17 79 17 87.5 8.5 c 128,-1,3
 96 0 96 0 107 -5 c 128,-1,4
 118 -10 118 -10 131 -10 c 256,5,6
 144 -10 144 -10 155 -5 c 128,-1,7
 166 0 166 0 174.5 8.5 c 128,-1,8
 183 17 183 17 188 28 c 128,-1,9
 193 39 193 39 193 52 c 256,10,11
 193 65 193 65 188 76 c 128,-1,12
 183 87 183 87 174.5 95.5 c 128,-1,13
 166 104 166 104 155 108.5 c 128,-1,14
 144 113 144 113 131 113 c 256,15,16
 118 113 118 113 107 108.5 c 128,-1,17
 96 104 96 104 87.5 95.5 c 128,-1,18
 79 87 79 87 74 76 c 128,-1,19
 69 65 69 65 69 52 c 256,0,1
160 240 m 1,20,-1
 175 500 l 1,21,-1
 175 717 l 1,22,-1
 87 717 l 1,23,-1
 87 500 l 1,24,-1
 102 240 l 1,25,-1
 160 240 l 1,20,-1
EndSplineSet
EndChar

StartChar: numbersign
Encoding: 35 35 6
Width: 692
GlyphClass: 1
Flags: W
LayerCount: 2
Fore
SplineSet
655 511 m 1,0,-1
 537 511 l 1,1,-1
 586 710 l 1,2,-1
 513 710 l 1,3,-1
 465 511 l 1,4,-1
 297 511 l 1,5,-1
 346 710 l 1,6,-1
 273 710 l 1,7,-1
 225 511 l 1,8,-1
 81 511 l 1,9,-1
 81 447 l 1,10,-1
 209 447 l 1,11,-1
 166 269 l 1,12,-1
 37 269 l 1,13,-1
 37 201 l 1,14,-1
 150 201 l 1,15,-1
 100 0 l 1,16,-1
 173 0 l 1,17,-1
 222 201 l 1,18,-1
 390 201 l 1,19,-1
 340 0 l 1,20,-1
 413 0 l 1,21,-1
 462 201 l 1,22,-1
 611 201 l 1,23,-1
 611 269 l 1,24,-1
 478 269 l 1,25,-1
 521 447 l 1,26,-1
 655 447 l 1,27,-1
 655 511 l 1,0,-1
238 269 m 1,28,-1
 281 447 l 1,29,-1
 449 447 l 1,30,-1
 406 269 l 1,31,-1
 238 269 l 1,28,-1
EndSplineSet
EndChar

StartChar: dollar
Encoding: 36 36 7
Width: 622
GlyphClass: 1
Flags: W
LayerCount: 2
Fore
SplineSet
285 -107 m 1,0,-1
 341 -107 l 1,1,-1
 341 38 l 1,2,-1
 285 39 l 1,3,-1
 285 -107 l 1,0,-1
335 48 m 1,4,-1
 335 666 l 1,5,-1
 290 659 l 1,6,-1
 290 50 l 1,7,-1
 335 48 l 1,4,-1
285 665 m 1,8,-1
 341 672 l 1,9,-1
 341 815 l 1,10,-1
 285 815 l 1,11,-1
 285 665 l 1,8,-1
550 634 m 1,12,13
 528 652 528 652 502 667 c 128,-1,14
 476 682 476 682 446.5 692.5 c 128,-1,15
 417 703 417 703 385 709 c 128,-1,16
 353 715 353 715 317 715 c 0,17,18
 262 715 262 715 215 701.5 c 128,-1,19
 168 688 168 688 134 661 c 128,-1,20
 100 634 100 634 81 595 c 128,-1,21
 62 556 62 556 62 505 c 0,22,23
 62 463 62 463 76 433 c 128,-1,24
 90 403 90 403 117.5 382 c 128,-1,25
 145 361 145 361 186 346 c 128,-1,26
 227 331 227 331 281 318 c 0,27,28
 331 306 331 306 369 294.5 c 128,-1,29
 407 283 407 283 433 268 c 128,-1,30
 459 253 459 253 472.5 232.5 c 128,-1,31
 486 212 486 212 486 182 c 0,32,33
 486 128 486 128 444 101 c 128,-1,34
 402 74 402 74 326 74 c 0,35,36
 286 74 286 74 248 82.5 c 128,-1,37
 210 91 210 91 177.5 104.5 c 128,-1,38
 145 118 145 118 119.5 135 c 128,-1,39
 94 152 94 152 78 169 c 1,40,-1
 35 93 l 1,41,42
 65 69 65 69 98.5 50 c 128,-1,43
 132 31 132 31 168.5 18.5 c 128,-1,44
 205 6 205 6 244 -0.5 c 128,-1,45
 283 -7 283 -7 324 -7 c 0,46,47
 379 -7 379 -7 426 4.5 c 128,-1,48
 473 16 473 16 507.5 40.5 c 128,-1,49
 542 65 542 65 562 102.5 c 128,-1,50
 582 140 582 140 582 191 c 0,51,52
 582 239 582 239 565.5 272 c 128,-1,53
 549 305 549 305 517.5 328 c 128,-1,54
 486 351 486 351 442 366.5 c 128,-1,55
 398 382 398 382 342 394 c 0,56,57
 294 405 294 405 259 415 c 128,-1,58
 224 425 224 425 200.5 438.5 c 128,-1,59
 177 452 177 452 166 471.5 c 128,-1,60
 155 491 155 491 155 519 c 0,61,62
 155 573 155 573 194 604 c 128,-1,63
 233 635 233 635 315 635 c 0,64,65
 347 635 347 635 376.5 628.5 c 128,-1,66
 406 622 406 622 431 611.5 c 128,-1,67
 456 601 456 601 476 588 c 128,-1,68
 496 575 496 575 508 561 c 1,69,-1
 550 634 l 1,12,13
EndSplineSet
EndChar

StartChar: percent
Encoding: 37 37 8
Width: 733
GlyphClass: 1
Flags: W
LayerCount: 2
Fore
SplineSet
191 428 m 256,0,1
 223 428 223 428 251 439.5 c 128,-1,2
 279 451 279 451 300 470.5 c 128,-1,3
 321 490 321 490 333 517 c 128,-1,4
 345 544 345 544 345 574 c 256,5,6
 345 604 345 604 333 631 c 128,-1,7
 321 658 321 658 300 677.5 c 128,-1,8
 279 697 279 697 251 708.5 c 128,-1,9
 223 720 223 720 191 720 c 256,10,11
 159 720 159 720 131 708.5 c 128,-1,12
 103 697 103 697 82 677.5 c 128,-1,13
 61 658 61 658 49 631 c 128,-1,14
 37 604 37 604 37 574 c 256,15,16
 37 544 37 544 49 517 c 128,-1,17
 61 490 61 490 82 470.5 c 128,-1,18
 103 451 103 451 131 439.5 c 128,-1,19
 159 428 159 428 191 428 c 256,0,1
191 476 m 0,20,21
 173 476 173 476 156.5 483.5 c 128,-1,22
 140 491 140 491 127.5 504.5 c 128,-1,23
 115 518 115 518 108 536 c 128,-1,24
 101 554 101 554 101 574 c 256,25,26
 101 594 101 594 108 611.5 c 128,-1,27
 115 629 115 629 127 642.5 c 128,-1,28
 139 656 139 656 155.5 664 c 128,-1,29
 172 672 172 672 191 672 c 0,30,31
 209 672 209 672 225.5 664.5 c 128,-1,32
 242 657 242 657 254 643.5 c 128,-1,33
 266 630 266 630 273.5 612 c 128,-1,34
 281 594 281 594 281 574 c 0,35,36
 281 555 281 555 274 537 c 128,-1,37
 267 519 267 519 255 505.5 c 128,-1,38
 243 492 243 492 226.5 484 c 128,-1,39
 210 476 210 476 191 476 c 0,20,21
542 -10 m 256,40,41
 574 -10 574 -10 602 1.5 c 128,-1,42
 630 13 630 13 651 32.5 c 128,-1,43
 672 52 672 52 684 79 c 128,-1,44
 696 106 696 106 696 136 c 256,45,46
 696 166 696 166 684 193 c 128,-1,47
 672 220 672 220 651 239.5 c 128,-1,48
 630 259 630 259 602 270.5 c 128,-1,49
 574 282 574 282 542 282 c 256,50,51
 510 282 510 282 482 270.5 c 128,-1,52
 454 259 454 259 433 239.5 c 128,-1,53
 412 220 412 220 400 193 c 128,-1,54
 388 166 388 166 388 136 c 256,55,56
 388 106 388 106 400 79 c 128,-1,57
 412 52 412 52 433 32.5 c 128,-1,58
 454 13 454 13 482 1.5 c 128,-1,59
 510 -10 510 -10 542 -10 c 256,40,41
542 38 m 0,60,61
 524 38 524 38 507.5 45.5 c 128,-1,62
 491 53 491 53 478.5 66.5 c 128,-1,63
 466 80 466 80 459 98 c 128,-1,64
 452 116 452 116 452 136 c 256,65,66
 452 156 452 156 459 173.5 c 128,-1,67
 466 191 466 191 478 204.5 c 128,-1,68
 490 218 490 218 506.5 226 c 128,-1,69
 523 234 523 234 542 234 c 0,70,71
 560 234 560 234 576.5 226.5 c 128,-1,72
 593 219 593 219 605 205.5 c 128,-1,73
 617 192 617 192 624.5 174 c 128,-1,74
 632 156 632 156 632 136 c 256,75,76
 632 116 632 116 625 98.5 c 128,-1,77
 618 81 618 81 606 67.5 c 128,-1,78
 594 54 594 54 577.5 46 c 128,-1,79
 561 38 561 38 542 38 c 0,60,61
113 -5 m 1,80,-1
 385 343 l 1,81,-1
 662 678 l 1,82,-1
 619 715 l 1,83,-1
 351 370 l 1,84,-1
 71 33 l 1,85,-1
 113 -5 l 1,80,-1
EndSplineSet
EndChar

StartChar: ampersand
Encoding: 38 38 9
Width: 681
GlyphClass: 1
Flags: W
LayerCount: 2
Fore
SplineSet
676 0 m 1,0,-1
 279 415 l 2,1,2
 248 448 248 448 228 470 c 128,-1,3
 208 492 208 492 197 508.5 c 128,-1,4
 186 525 186 525 181.5 537 c 128,-1,5
 177 549 177 549 177 561 c 0,6,7
 177 580 177 580 184.5 596.5 c 128,-1,8
 192 613 192 613 205.5 625.5 c 128,-1,9
 219 638 219 638 238 645 c 128,-1,10
 257 652 257 652 279 652 c 0,11,12
 319 652 319 652 345 629.5 c 128,-1,13
 371 607 371 607 371 572 c 0,14,15
 371 550 371 550 359.5 531 c 128,-1,16
 348 512 348 512 328 493.5 c 128,-1,17
 308 475 308 475 280.5 457 c 128,-1,18
 253 439 253 439 220 418 c 256,19,20
 187 397 187 397 156 374 c 128,-1,21
 125 351 125 351 100 323.5 c 128,-1,22
 75 296 75 296 60 262.5 c 128,-1,23
 45 229 45 229 45 188 c 0,24,25
 45 145 45 145 62.5 109 c 128,-1,26
 80 73 80 73 111 46.5 c 128,-1,27
 142 20 142 20 184 5 c 128,-1,28
 226 -10 226 -10 275 -10 c 0,29,30
 342 -10 342 -10 401 18 c 128,-1,31
 460 46 460 46 504 96 c 128,-1,32
 548 146 548 146 574 215 c 128,-1,33
 600 284 600 284 600 366 c 1,34,-1
 527 366 l 1,35,36
 527 302 527 302 508 246 c 128,-1,37
 489 190 489 190 456.5 149 c 128,-1,38
 424 108 424 108 379.5 84 c 128,-1,39
 335 60 335 60 284 60 c 0,40,41
 254 60 254 60 226.5 68.5 c 128,-1,42
 199 77 199 77 177.5 93 c 128,-1,43
 156 109 156 109 143 133 c 128,-1,44
 130 157 130 157 130 187 c 0,45,46
 130 215 130 215 141 239 c 128,-1,47
 152 263 152 263 171 284.5 c 128,-1,48
 190 306 190 306 216 326 c 128,-1,49
 242 346 242 346 272 365 c 0,50,51
 308 388 308 388 341 411 c 128,-1,52
 374 434 374 434 398.5 458.5 c 128,-1,53
 423 483 423 483 437.5 511.5 c 128,-1,54
 452 540 452 540 452 574 c 0,55,56
 452 607 452 607 438.5 634 c 128,-1,57
 425 661 425 661 401.5 680 c 128,-1,58
 378 699 378 699 346.5 709 c 128,-1,59
 315 719 315 719 279 719 c 0,60,61
 240 719 240 719 206.5 707 c 128,-1,62
 173 695 173 695 148.5 673.5 c 128,-1,63
 124 652 124 652 110 623 c 128,-1,64
 96 594 96 594 96 559 c 0,65,66
 96 538 96 538 102 518 c 128,-1,67
 108 498 108 498 121.5 476 c 128,-1,68
 135 454 135 454 157.5 427.5 c 128,-1,69
 180 401 180 401 212 367 c 2,70,-1
 560 0 l 1,71,-1
 676 0 l 1,0,-1
EndSplineSet
EndChar

StartChar: quotesingle
Encoding: 39 39 10
Width: 210
GlyphClass: 1
Flags: W
LayerCount: 2
Fore
SplineSet
117 510 m 1,0,-1
 187 717 l 1,1,-1
 104 717 l 1,2,-1
 74 510 l 1,3,-1
 117 510 l 1,0,-1
EndSplineSet
EndChar

StartChar: parenleft
Encoding: 40 40 11
Width: 283
GlyphClass: 1
Flags: W
LayerCount: 2
Fore
SplineSet
42 346 m 0,0,1
 42 298 42 298 52.5 248.5 c 128,-1,2
 63 199 63 199 82 150.5 c 128,-1,3
 101 102 101 102 127.5 53.5 c 128,-1,4
 154 5 154 5 185 -42 c 1,5,-1
 250 -8 l 1,6,7
 221 37 221 37 198 83 c 128,-1,8
 175 129 175 129 158.5 173.5 c 128,-1,9
 142 218 142 218 133 261 c 128,-1,10
 124 304 124 304 124 343 c 0,11,12
 124 392 124 392 137 445.5 c 128,-1,13
 150 499 150 499 169 549 c 128,-1,14
 188 599 188 599 210.5 642.5 c 128,-1,15
 233 686 233 686 252 714 c 1,16,-1
 184 744 l 1,17,18
 154 694 154 694 128.5 645 c 128,-1,19
 103 596 103 596 83.5 546.5 c 128,-1,20
 64 497 64 497 53 447 c 128,-1,21
 42 397 42 397 42 346 c 0,0,1
EndSplineSet
EndChar

StartChar: parenright
Encoding: 41 41 12
Width: 283
GlyphClass: 1
Flags: W
LayerCount: 2
Fore
SplineSet
241 346 m 0,0,1
 241 397 241 397 230 447 c 128,-1,2
 219 497 219 497 199.5 546.5 c 128,-1,3
 180 596 180 596 154.5 645 c 128,-1,4
 129 694 129 694 99 744 c 1,5,-1
 31 714 l 1,6,7
 50 686 50 686 72.5 642.5 c 128,-1,8
 95 599 95 599 114 549 c 128,-1,9
 133 499 133 499 146 445.5 c 128,-1,10
 159 392 159 392 159 343 c 0,11,12
 159 304 159 304 150 261 c 128,-1,13
 141 218 141 218 124.5 173.5 c 128,-1,14
 108 129 108 129 85 83 c 128,-1,15
 62 37 62 37 33 -8 c 1,16,-1
 98 -42 l 1,17,18
 130 5 130 5 156 53.5 c 128,-1,19
 182 102 182 102 201 150.5 c 128,-1,20
 220 199 220 199 230.5 248.5 c 128,-1,21
 241 298 241 298 241 346 c 0,0,1
EndSplineSet
EndChar

StartChar: asterisk
Encoding: 42 42 13
Width: 329
GlyphClass: 1
Flags: W
LayerCount: 2
Fore
SplineSet
121 513 m 1,0,-1
 165 580 l 1,1,-1
 208 513 l 1,2,-1
 246 538 l 1,3,-1
 201 603 l 1,4,-1
 270 625 l 1,5,-1
 257 667 l 1,6,-1
 187 640 l 1,7,-1
 190 714 l 1,8,-1
 139 714 l 1,9,-1
 142 640 l 1,10,-1
 72 667 l 1,11,-1
 59 625 l 1,12,-1
 128 603 l 1,13,-1
 84 538 l 1,14,-1
 121 513 l 1,0,-1
EndSplineSet
EndChar

StartChar: plus
Encoding: 43 43 14
Width: 416
GlyphClass: 1
Flags: W
LayerCount: 2
Fore
SplineSet
248 391 m 1,0,-1
 248 519 l 1,1,-1
 168 519 l 1,2,-1
 168 391 l 1,3,-1
 50 391 l 1,4,-1
 50 319 l 1,5,-1
 168 319 l 1,6,-1
 168 191 l 1,7,-1
 248 191 l 1,8,-1
 248 319 l 1,9,-1
 366 319 l 1,10,-1
 366 391 l 1,11,-1
 248 391 l 1,0,-1
EndSplineSet
EndChar

StartChar: comma
Encoding: 44 44 15
Width: 211
GlyphClass: 1
Flags: W
LayerCount: 2
Fore
SplineSet
65 -160 m 1,0,-1
 143 100 l 1,1,-1
 60 100 l 1,2,-1
 22 -160 l 1,3,-1
 65 -160 l 1,0,-1
EndSplineSet
EndChar

StartChar: hyphen
Encoding: 45 45 16
Width: 423
GlyphClass: 1
Flags: W
LayerCount: 2
Fore
SplineSet
359 233 m 1,0,-1
 359 313 l 1,1,-1
 64 313 l 1,2,-1
 64 233 l 1,3,-1
 359 233 l 1,0,-1
EndSplineSet
EndChar

StartChar: period
Encoding: 46 46 17
Width: 202
GlyphClass: 1
Flags: W
LayerCount: 2
Fore
SplineSet
44 46 m 256,0,1
 44 23 44 23 60.5 6.5 c 128,-1,2
 77 -10 77 -10 100 -10 c 256,3,4
 123 -10 123 -10 139.5 6.5 c 128,-1,5
 156 23 156 23 156 46 c 256,6,7
 156 69 156 69 139.5 85.5 c 128,-1,8
 123 102 123 102 100 102 c 256,9,10
 77 102 77 102 60.5 85.5 c 128,-1,11
 44 69 44 69 44 46 c 256,0,1
EndSplineSet
EndChar

StartChar: slash
Encoding: 47 47 18
Width: 633
GlyphClass: 1
Flags: W
LayerCount: 2
Fore
SplineSet
506 710 m 1,0,-1
 27 0 l 1,1,-1
 125 0 l 1,2,-1
 605 710 l 1,3,-1
 506 710 l 1,0,-1
EndSplineSet
Substitution2: "'frac' Diagonal Fractions lookup 21 subtable" fraction
Substitution2: "'aalt' Access All Alternates lookup 0 subtable" fraction
EndChar

StartChar: zero
Encoding: 48 48 19
Width: 690
GlyphClass: 1
Flags: W
LayerCount: 2
Fore
SplineSet
345 -10 m 0,0,1
 414 -9 414 -9 469 23 c 128,-1,2
 524 55 524 55 563 106 c 128,-1,3
 602 157 602 157 622.5 221 c 128,-1,4
 643 285 643 285 643 350 c 0,5,6
 643 408 643 408 624 471.5 c 128,-1,7
 605 535 605 535 567.5 588 c 128,-1,8
 530 641 530 641 474.5 675.5 c 128,-1,9
 419 710 419 710 345 710 c 0,10,11
 276 710 276 710 221 678 c 128,-1,12
 166 646 166 646 127 594.5 c 128,-1,13
 88 543 88 543 67.5 478.5 c 128,-1,14
 47 414 47 414 47 350 c 0,15,16
 47 290 47 290 66 227 c 128,-1,17
 85 164 85 164 122.5 111.5 c 128,-1,18
 160 59 160 59 216 25 c 128,-1,19
 272 -9 272 -9 345 -10 c 0,0,1
138 350 m 0,20,21
 138 394 138 394 150.5 443 c 128,-1,22
 163 492 163 492 188.5 533.5 c 128,-1,23
 214 575 214 575 253 602 c 128,-1,24
 292 629 292 629 345 629 c 0,25,26
 395 629 395 629 433.5 603.5 c 128,-1,27
 472 578 472 578 498 538 c 128,-1,28
 524 498 524 498 538 448.5 c 128,-1,29
 552 399 552 399 552 350 c 0,30,31
 552 306 552 306 539.5 257 c 128,-1,32
 527 208 527 208 501.5 166.5 c 128,-1,33
 476 125 476 125 437 98 c 128,-1,34
 398 71 398 71 345 71 c 0,35,36
 294 71 294 71 256 96.5 c 128,-1,37
 218 122 218 122 192 162 c 128,-1,38
 166 202 166 202 153 251.5 c 128,-1,39
 140 301 140 301 138 350 c 0,20,21
EndSplineSet
Substitution2: "'tnum' Tabular Numbers lookup 41 subtable" zero.tnum
Substitution2: "'frac' Diagonal Fractions lookup 22 subtable" zero.numr
Substitution2: "'dnom' Denominators lookup 20 subtable" zero.dnom
Substitution2: "'numr' Numerators lookup 19 subtable" zero.numr
Substitution2: "'sups' Superscript lookup 18 subtable" uni2070
Substitution2: "'sinf' Scientific Inferiors lookup 17 subtable" zero.subs
Substitution2: "'subs' Subscript lookup 16 subtable" uni2080
AlternateSubs2: "'aalt' Access All Alternates lookup 1 subtable" uni2080 zero.subs uni2070 zero.numr zero.dnom
EndChar

StartChar: one
Encoding: 49 49 20
Width: 392
GlyphClass: 1
Flags: W
LayerCount: 2
Fore
SplineSet
292 718 m 1,0,-1
 202 718 l 2,1,2
 201 717 201 717 186 701.5 c 128,-1,3
 171 686 171 686 148 668 c 128,-1,4
 125 650 125 650 97.5 635.5 c 128,-1,5
 70 621 70 621 43 621 c 1,6,-1
 43 539 l 1,7,8
 63 539 63 539 87.5 548 c 128,-1,9
 112 557 112 557 134.5 570.5 c 128,-1,10
 157 584 157 584 175.5 598.5 c 128,-1,11
 194 613 194 613 202 625 c 1,12,-1
 202 0 l 1,13,-1
 292 0 l 1,14,-1
 292 718 l 1,0,-1
EndSplineSet
Substitution2: "'tnum' Tabular Numbers lookup 41 subtable" one.tnum
Substitution2: "'frac' Diagonal Fractions lookup 22 subtable" one.numr
Substitution2: "'dnom' Denominators lookup 20 subtable" one.dnom
Substitution2: "'numr' Numerators lookup 19 subtable" one.numr
Substitution2: "'sups' Superscript lookup 18 subtable" onesuperior
Substitution2: "'sinf' Scientific Inferiors lookup 17 subtable" one.subs
Substitution2: "'subs' Subscript lookup 16 subtable" uni2081
AlternateSubs2: "'aalt' Access All Alternates lookup 1 subtable" uni2081 one.subs onesuperior one.numr one.dnom
EndChar

StartChar: two
Encoding: 50 50 21
Width: 590
GlyphClass: 1
Flags: W
LayerCount: 2
Fore
SplineSet
536 0 m 1,0,-1
 536 80 l 1,1,-1
 143 80 l 1,2,3
 144 108 144 108 150.5 132 c 128,-1,4
 157 156 157 156 176.5 179.5 c 128,-1,5
 196 203 196 203 233 228 c 128,-1,6
 270 253 270 253 333 283 c 0,7,8
 366 300 366 300 401.5 318.5 c 128,-1,9
 437 337 437 337 467 363 c 128,-1,10
 497 389 497 389 516 425 c 128,-1,11
 535 461 535 461 535 512 c 0,12,13
 535 554 535 554 520.5 592 c 128,-1,14
 506 630 506 630 477.5 658 c 128,-1,15
 449 686 449 686 407 702.5 c 128,-1,16
 365 719 365 719 309 719 c 256,17,18
 253 719 253 719 209 704 c 128,-1,19
 165 689 165 689 132.5 668.5 c 128,-1,20
 100 648 100 648 79.5 628 c 128,-1,21
 59 608 59 608 51 598 c 1,22,-1
 108 541 l 1,23,24
 120 556 120 556 138.5 572.5 c 128,-1,25
 157 589 157 589 181 603.5 c 128,-1,26
 205 618 205 618 235 627.5 c 128,-1,27
 265 637 265 637 300 637 c 256,28,29
 335 637 335 637 360.5 627 c 128,-1,30
 386 617 386 617 403 600 c 128,-1,31
 420 583 420 583 428.5 560 c 128,-1,32
 437 537 437 537 437 511 c 0,33,34
 437 467 437 467 415 438 c 128,-1,35
 393 409 393 409 359 387 c 128,-1,36
 325 365 325 365 283.5 346.5 c 128,-1,37
 242 328 242 328 203 305 c 0,38,39
 166 283 166 283 137 255 c 128,-1,40
 108 227 108 227 88 190 c 128,-1,41
 68 153 68 153 57 106.5 c 128,-1,42
 46 60 46 60 46 0 c 1,43,-1
 536 0 l 1,0,-1
EndSplineSet
Substitution2: "'tnum' Tabular Numbers lookup 41 subtable" two.tnum
Substitution2: "'frac' Diagonal Fractions lookup 22 subtable" two.numr
Substitution2: "'dnom' Denominators lookup 20 subtable" two.dnom
Substitution2: "'numr' Numerators lookup 19 subtable" two.numr
Substitution2: "'sups' Superscript lookup 18 subtable" twosuperior
Substitution2: "'sinf' Scientific Inferiors lookup 17 subtable" two.subs
Substitution2: "'subs' Subscript lookup 16 subtable" uni2082
AlternateSubs2: "'aalt' Access All Alternates lookup 1 subtable" uni2082 two.subs twosuperior two.numr two.dnom
EndChar

StartChar: three
Encoding: 51 51 22
Width: 585
GlyphClass: 1
Flags: W
LayerCount: 2
Fore
SplineSet
275 -9 m 0,0,1
 325 -9 325 -9 372 4 c 128,-1,2
 419 17 419 17 455 42 c 128,-1,3
 491 67 491 67 513 103.5 c 128,-1,4
 535 140 535 140 535 186 c 0,5,6
 535 219 535 219 524 249.5 c 128,-1,7
 513 280 513 280 493 304 c 128,-1,8
 473 328 473 328 444 344.5 c 128,-1,9
 415 361 415 361 380 367 c 1,10,11
 413 375 413 375 438.5 389 c 128,-1,12
 464 403 464 403 482 422.5 c 128,-1,13
 500 442 500 442 509 467.5 c 128,-1,14
 518 493 518 493 518 523 c 0,15,16
 518 565 518 565 500 600.5 c 128,-1,17
 482 636 482 636 450 662.5 c 128,-1,18
 418 689 418 689 374 704 c 128,-1,19
 330 719 330 719 278 719 c 0,20,21
 242 719 242 719 207.5 711.5 c 128,-1,22
 173 704 173 704 143 689.5 c 128,-1,23
 113 675 113 675 88.5 654 c 128,-1,24
 64 633 64 633 49 607 c 1,25,-1
 108 546 l 1,26,27
 126 584 126 584 170 612.5 c 128,-1,28
 214 641 214 641 279 641 c 0,29,30
 308 641 308 641 334 632.5 c 128,-1,31
 360 624 360 624 380.5 608.5 c 128,-1,32
 401 593 401 593 413 570.5 c 128,-1,33
 425 548 425 548 425 519 c 0,34,35
 425 459 425 459 370.5 430 c 128,-1,36
 316 401 316 401 223 401 c 2,37,-1
 189 401 l 1,38,-1
 189 326 l 1,39,-1
 223 326 l 2,40,41
 274 326 274 326 315 317.5 c 128,-1,42
 356 309 356 309 384.5 292.5 c 128,-1,43
 413 276 413 276 428.5 252 c 128,-1,44
 444 228 444 228 444 197 c 0,45,46
 444 169 444 169 430.5 145.5 c 128,-1,47
 417 122 417 122 394 105.5 c 128,-1,48
 371 89 371 89 340.5 80 c 128,-1,49
 310 71 310 71 275 71 c 0,50,51
 244 71 244 71 216.5 77 c 128,-1,52
 189 83 189 83 166.5 94.5 c 128,-1,53
 144 106 144 106 126.5 122.5 c 128,-1,54
 109 139 109 139 98 159 c 1,55,-1
 39 100 l 1,56,57
 55 74 55 74 79.5 54 c 128,-1,58
 104 34 104 34 135 20 c 128,-1,59
 166 6 166 6 201.5 -1.5 c 128,-1,60
 237 -9 237 -9 275 -9 c 0,0,1
EndSplineSet
Substitution2: "'tnum' Tabular Numbers lookup 41 subtable" three.tnum
Substitution2: "'frac' Diagonal Fractions lookup 22 subtable" three.numr
Substitution2: "'dnom' Denominators lookup 20 subtable" three.dnom
Substitution2: "'numr' Numerators lookup 19 subtable" three.numr
Substitution2: "'sups' Superscript lookup 18 subtable" threesuperior
Substitution2: "'sinf' Scientific Inferiors lookup 17 subtable" three.subs
Substitution2: "'subs' Subscript lookup 16 subtable" uni2083
AlternateSubs2: "'aalt' Access All Alternates lookup 1 subtable" uni2083 three.subs threesuperior three.numr three.dnom
EndChar

StartChar: four
Encoding: 52 52 23
Width: 577
GlyphClass: 1
Flags: W
LayerCount: 2
Fore
SplineSet
449 0 m 1,0,-1
 449 181 l 1,1,-1
 537 181 l 1,2,-1
 537 261 l 1,3,-1
 449 261 l 1,4,-1
 449 710 l 1,5,-1
 388 710 l 1,6,-1
 27 260 l 1,7,-1
 27 181 l 1,8,-1
 361 181 l 1,9,-1
 361 0 l 1,10,-1
 449 0 l 1,0,-1
370 575 m 1,11,-1
 370 261 l 1,12,-1
 119 261 l 1,13,-1
 370 575 l 1,11,-1
EndSplineSet
Substitution2: "'tnum' Tabular Numbers lookup 41 subtable" four.tnum
Substitution2: "'frac' Diagonal Fractions lookup 22 subtable" four.numr
Substitution2: "'dnom' Denominators lookup 20 subtable" four.dnom
Substitution2: "'numr' Numerators lookup 19 subtable" four.numr
Substitution2: "'sups' Superscript lookup 18 subtable" uni2074
Substitution2: "'sinf' Scientific Inferiors lookup 17 subtable" four.subs
Substitution2: "'subs' Subscript lookup 16 subtable" uni2084
AlternateSubs2: "'aalt' Access All Alternates lookup 1 subtable" uni2084 four.subs uni2074 four.numr four.dnom
EndChar

StartChar: five
Encoding: 53 53 24
Width: 558
GlyphClass: 1
Flags: W
LayerCount: 2
Fore
SplineSet
267 -10 m 0,0,1
 320 -10 320 -10 366 7 c 128,-1,2
 412 24 412 24 445.5 55.5 c 128,-1,3
 479 87 479 87 498.5 130.5 c 128,-1,4
 518 174 518 174 518 227 c 0,5,6
 518 277 518 277 500 318.5 c 128,-1,7
 482 360 482 360 451 390 c 128,-1,8
 420 420 420 420 377.5 436.5 c 128,-1,9
 335 453 335 453 286 453 c 0,10,11
 244 453 244 453 211 440 c 128,-1,12
 178 427 178 427 156 403 c 1,13,-1
 199 629 l 1,14,-1
 479 629 l 1,15,-1
 479 710 l 1,16,-1
 134 710 l 1,17,-1
 54 304 l 1,18,-1
 134 304 l 1,19,20
 157 339 157 339 195 358 c 128,-1,21
 233 377 233 377 275 377 c 0,22,23
 307 377 307 377 335 366 c 128,-1,24
 363 355 363 355 383.5 334.5 c 128,-1,25
 404 314 404 314 416 286 c 128,-1,26
 428 258 428 258 428 225 c 0,27,28
 428 191 428 191 416 162 c 128,-1,29
 404 133 404 133 382.5 112.5 c 128,-1,30
 361 92 361 92 331.5 80.5 c 128,-1,31
 302 69 302 69 268 69 c 0,32,33
 214 69 214 69 167.5 96.5 c 128,-1,34
 121 124 121 124 93 171 c 1,35,-1
 38 123 l 1,36,37
 70 62 70 62 130.5 26 c 128,-1,38
 191 -10 191 -10 267 -10 c 0,0,1
EndSplineSet
Substitution2: "'tnum' Tabular Numbers lookup 41 subtable" five.tnum
Substitution2: "'frac' Diagonal Fractions lookup 22 subtable" five.numr
Substitution2: "'dnom' Denominators lookup 20 subtable" five.dnom
Substitution2: "'numr' Numerators lookup 19 subtable" five.numr
Substitution2: "'sups' Superscript lookup 18 subtable" uni2075
Substitution2: "'sinf' Scientific Inferiors lookup 17 subtable" five.subs
Substitution2: "'subs' Subscript lookup 16 subtable" uni2085
AlternateSubs2: "'aalt' Access All Alternates lookup 1 subtable" uni2085 five.subs uni2075 five.numr five.dnom
EndChar

StartChar: six
Encoding: 54 54 25
Width: 606
GlyphClass: 1
Flags: W
LayerCount: 2
Fore
SplineSet
562 235 m 0,0,1
 562 184 562 184 542.5 139.5 c 128,-1,2
 523 95 523 95 488.5 61.5 c 128,-1,3
 454 28 454 28 408 9 c 128,-1,4
 362 -10 362 -10 308 -10 c 0,5,6
 251 -10 251 -10 203.5 11 c 128,-1,7
 156 32 156 32 122 71.5 c 128,-1,8
 88 111 88 111 69.5 167.5 c 128,-1,9
 51 224 51 224 51 296 c 0,10,11
 51 401 51 401 70 479.5 c 128,-1,12
 89 558 89 558 124 610.5 c 128,-1,13
 159 663 159 663 208 689 c 128,-1,14
 257 715 257 715 317 715 c 0,15,16
 386 715 386 715 442.5 682 c 128,-1,17
 499 649 499 649 531 589 c 1,18,-1
 477 536 l 1,19,20
 455 583 455 583 412 610.5 c 128,-1,21
 369 638 369 638 316 638 c 0,22,23
 275 638 275 638 242 619.5 c 128,-1,24
 209 601 209 601 185 565 c 128,-1,25
 161 529 161 529 148 477.5 c 128,-1,26
 135 426 135 426 134 360 c 1,27,28
 145 386 145 386 163 407 c 128,-1,29
 181 428 181 428 205 443 c 128,-1,30
 229 458 229 458 257.5 466 c 128,-1,31
 286 474 286 474 317 474 c 0,32,33
 368 474 368 474 413 455.5 c 128,-1,34
 458 437 458 437 491 405 c 128,-1,35
 524 373 524 373 543 329 c 128,-1,36
 562 285 562 285 562 235 c 0,0,1
309 66 m 0,37,38
 344 66 344 66 374.5 79.5 c 128,-1,39
 405 93 405 93 428 116 c 128,-1,40
 451 139 451 139 464.5 169.5 c 128,-1,41
 478 200 478 200 478 235 c 256,42,43
 478 270 478 270 464.5 300.5 c 128,-1,44
 451 331 451 331 428 353.5 c 128,-1,45
 405 376 405 376 374.5 389.5 c 128,-1,46
 344 403 344 403 309 403 c 256,47,48
 274 403 274 403 243.5 389.5 c 128,-1,49
 213 376 213 376 190 353.5 c 128,-1,50
 167 331 167 331 153.5 300.5 c 128,-1,51
 140 270 140 270 140 235 c 0,52,53
 140 201 140 201 153.5 170 c 128,-1,54
 167 139 167 139 190 116 c 128,-1,55
 213 93 213 93 244 79.5 c 128,-1,56
 275 66 275 66 309 66 c 0,37,38
EndSplineSet
Substitution2: "'tnum' Tabular Numbers lookup 41 subtable" six.tnum
Substitution2: "'frac' Diagonal Fractions lookup 22 subtable" six.numr
Substitution2: "'dnom' Denominators lookup 20 subtable" six.dnom
Substitution2: "'numr' Numerators lookup 19 subtable" six.numr
Substitution2: "'sups' Superscript lookup 18 subtable" uni2076
Substitution2: "'sinf' Scientific Inferiors lookup 17 subtable" six.subs
Substitution2: "'subs' Subscript lookup 16 subtable" uni2086
AlternateSubs2: "'aalt' Access All Alternates lookup 1 subtable" uni2086 six.subs uni2076 six.numr six.dnom
EndChar

StartChar: seven
Encoding: 55 55 26
Width: 534
GlyphClass: 1
Flags: W
LayerCount: 2
Fore
SplineSet
79 0 m 1,0,-1
 178 0 l 1,1,-1
 536 710 l 1,2,-1
 32 710 l 1,3,-1
 32 629 l 1,4,-1
 396 629 l 1,5,-1
 79 0 l 1,0,-1
EndSplineSet
Substitution2: "'tnum' Tabular Numbers lookup 41 subtable" seven.tnum
Substitution2: "'frac' Diagonal Fractions lookup 22 subtable" seven.numr
Substitution2: "'dnom' Denominators lookup 20 subtable" seven.dnom
Substitution2: "'numr' Numerators lookup 19 subtable" seven.numr
Substitution2: "'sups' Superscript lookup 18 subtable" uni2077
Substitution2: "'sinf' Scientific Inferiors lookup 17 subtable" seven.subs
Substitution2: "'subs' Subscript lookup 16 subtable" uni2087
AlternateSubs2: "'aalt' Access All Alternates lookup 1 subtable" uni2087 seven.subs uni2077 seven.numr seven.dnom
EndChar

StartChar: eight
Encoding: 56 56 27
Width: 598
GlyphClass: 1
Flags: W
LayerCount: 2
Fore
SplineSet
549 201 m 0,0,1
 549 234 549 234 538 262 c 128,-1,2
 527 290 527 290 509 312.5 c 128,-1,3
 491 335 491 335 466.5 352.5 c 128,-1,4
 442 370 442 370 415 380 c 1,5,6
 438 389 438 389 458 403.5 c 128,-1,7
 478 418 478 418 493 437 c 128,-1,8
 508 456 508 456 517 478 c 128,-1,9
 526 500 526 500 526 525 c 0,10,11
 526 570 526 570 505.5 604.5 c 128,-1,12
 485 639 485 639 452.5 662.5 c 128,-1,13
 420 686 420 686 379.5 698 c 128,-1,14
 339 710 339 710 299 710 c 256,15,16
 259 710 259 710 219 698 c 128,-1,17
 179 686 179 686 146.5 662 c 128,-1,18
 114 638 114 638 93.5 603.5 c 128,-1,19
 73 569 73 569 73 524 c 0,20,21
 73 499 73 499 81.5 477 c 128,-1,22
 90 455 90 455 105 436.5 c 128,-1,23
 120 418 120 418 140 403.5 c 128,-1,24
 160 389 160 389 182 380 c 1,25,26
 158 371 158 371 134 354.5 c 128,-1,27
 110 338 110 338 91.5 316 c 128,-1,28
 73 294 73 294 61 266 c 128,-1,29
 49 238 49 238 49 205 c 0,30,31
 49 160 49 160 68 121 c 128,-1,32
 87 82 87 82 120 53.5 c 128,-1,33
 153 25 153 25 198.5 8.5 c 128,-1,34
 244 -8 244 -8 297 -8 c 0,35,36
 348 -8 348 -8 394 7 c 128,-1,37
 440 22 440 22 474.5 49 c 128,-1,38
 509 76 509 76 529 114.5 c 128,-1,39
 549 153 549 153 549 201 c 0,0,1
460 207 m 0,40,41
 460 177 460 177 446 152 c 128,-1,42
 432 127 432 127 409.5 109 c 128,-1,43
 387 91 387 91 358.5 81 c 128,-1,44
 330 71 330 71 300 71 c 0,45,46
 271 71 271 71 242.5 80.5 c 128,-1,47
 214 90 214 90 191 107 c 128,-1,48
 168 124 168 124 153.5 149.5 c 128,-1,49
 139 175 139 175 139 206 c 256,50,51
 139 237 139 237 152.5 262.5 c 128,-1,52
 166 288 166 288 188.5 306 c 128,-1,53
 211 324 211 324 239.5 333.5 c 128,-1,54
 268 343 268 343 298 343 c 0,55,56
 327 343 327 343 356 334 c 128,-1,57
 385 325 385 325 408 307.5 c 128,-1,58
 431 290 431 290 445.5 264.5 c 128,-1,59
 460 239 460 239 460 207 c 0,40,41
162 521 m 0,60,61
 162 547 162 547 173.5 567 c 128,-1,62
 185 587 185 587 203.5 601.5 c 128,-1,63
 222 616 222 616 246.5 623.5 c 128,-1,64
 271 631 271 631 298 631 c 256,65,66
 325 631 325 631 350 623.5 c 128,-1,67
 375 616 375 616 394 602 c 128,-1,68
 413 588 413 588 424.5 568 c 128,-1,69
 436 548 436 548 436 523 c 0,70,71
 436 496 436 496 423.5 475 c 128,-1,72
 411 454 411 454 391 440 c 128,-1,73
 371 426 371 426 347 418.5 c 128,-1,74
 323 411 323 411 299 411 c 256,75,76
 275 411 275 411 251 418 c 128,-1,77
 227 425 227 425 207 439 c 128,-1,78
 187 453 187 453 174.5 473.5 c 128,-1,79
 162 494 162 494 162 521 c 0,60,61
EndSplineSet
Substitution2: "'tnum' Tabular Numbers lookup 41 subtable" eight.tnum
Substitution2: "'frac' Diagonal Fractions lookup 22 subtable" eight.numr
Substitution2: "'dnom' Denominators lookup 20 subtable" eight.dnom
Substitution2: "'numr' Numerators lookup 19 subtable" eight.numr
Substitution2: "'sups' Superscript lookup 18 subtable" uni2078
Substitution2: "'sinf' Scientific Inferiors lookup 17 subtable" eight.subs
Substitution2: "'subs' Subscript lookup 16 subtable" uni2088
AlternateSubs2: "'aalt' Access All Alternates lookup 1 subtable" uni2088 eight.subs uni2078 eight.numr eight.dnom
EndChar

StartChar: nine
Encoding: 57 57 28
Width: 606
GlyphClass: 1
Flags: W
LayerCount: 2
Fore
SplineSet
44 470 m 0,0,1
 44 521 44 521 63.5 566 c 128,-1,2
 83 611 83 611 117.5 644 c 128,-1,3
 152 677 152 677 198 696 c 128,-1,4
 244 715 244 715 298 715 c 0,5,6
 355 715 355 715 402.5 694 c 128,-1,7
 450 673 450 673 484 634 c 128,-1,8
 518 595 518 595 536.5 538.5 c 128,-1,9
 555 482 555 482 555 410 c 0,10,11
 555 305 555 305 536 226.5 c 128,-1,12
 517 148 517 148 482 95.5 c 128,-1,13
 447 43 447 43 398 16.5 c 128,-1,14
 349 -10 349 -10 289 -10 c 0,15,16
 220 -10 220 -10 163.5 23.5 c 128,-1,17
 107 57 107 57 75 117 c 1,18,-1
 129 170 l 1,19,20
 151 123 151 123 194 95.5 c 128,-1,21
 237 68 237 68 290 68 c 0,22,23
 331 68 331 68 364.5 86.5 c 128,-1,24
 398 105 398 105 421.5 140.5 c 128,-1,25
 445 176 445 176 458.5 227.5 c 128,-1,26
 472 279 472 279 472 345 c 1,27,28
 461 319 461 319 443 298 c 128,-1,29
 425 277 425 277 401 262 c 128,-1,30
 377 247 377 247 348.5 239 c 128,-1,31
 320 231 320 231 289 231 c 0,32,33
 238 231 238 231 193 249.5 c 128,-1,34
 148 268 148 268 115 300.5 c 128,-1,35
 82 333 82 333 63 376.5 c 128,-1,36
 44 420 44 420 44 470 c 0,0,1
297 640 m 0,37,38
 263 640 263 640 232 626.5 c 128,-1,39
 201 613 201 613 178.5 590 c 128,-1,40
 156 567 156 567 142.5 536.5 c 128,-1,41
 129 506 129 506 129 471 c 0,42,43
 129 437 129 437 142.5 406 c 128,-1,44
 156 375 156 375 179 352.5 c 128,-1,45
 202 330 202 330 233 316.5 c 128,-1,46
 264 303 264 303 298 303 c 0,47,48
 333 303 333 303 363.5 316.5 c 128,-1,49
 394 330 394 330 417 352.5 c 128,-1,50
 440 375 440 375 453.5 405.5 c 128,-1,51
 467 436 467 436 467 470 c 0,52,53
 467 505 467 505 453.5 535.5 c 128,-1,54
 440 566 440 566 416.5 589.5 c 128,-1,55
 393 613 393 613 362.5 626.5 c 128,-1,56
 332 640 332 640 297 640 c 0,37,38
EndSplineSet
Substitution2: "'tnum' Tabular Numbers lookup 41 subtable" nine.tnum
Substitution2: "'frac' Diagonal Fractions lookup 22 subtable" nine.numr
Substitution2: "'dnom' Denominators lookup 20 subtable" nine.dnom
Substitution2: "'numr' Numerators lookup 19 subtable" nine.numr
Substitution2: "'sups' Superscript lookup 18 subtable" uni2079
Substitution2: "'sinf' Scientific Inferiors lookup 17 subtable" nine.subs
Substitution2: "'subs' Subscript lookup 16 subtable" uni2089
AlternateSubs2: "'aalt' Access All Alternates lookup 1 subtable" uni2089 nine.subs uni2079 nine.numr nine.dnom
EndChar

StartChar: less
Encoding: 60 60 31
Width: 510
GlyphClass: 1
Flags: W
LayerCount: 2
Fore
SplineSet
33 234 m 1,0,-1
 453 -16 l 1,1,-1
 453 82 l 1,2,-1
 161 259 l 1,3,-1
 453 439 l 1,4,-1
 453 533 l 1,5,-1
 33 280 l 1,6,-1
 33 234 l 1,0,-1
EndSplineSet
EndChar

StartChar: equal
Encoding: 61 61 32
Width: 439
GlyphClass: 1
Flags: W
LayerCount: 2
Fore
SplineSet
372 179 m 1,0,-1
 372 239 l 1,1,-1
 67 239 l 1,2,-1
 67 179 l 1,3,-1
 372 179 l 1,0,-1
372 313 m 1,4,-1
 372 373 l 1,5,-1
 67 373 l 1,6,-1
 67 313 l 1,7,-1
 372 313 l 1,4,-1
EndSplineSet
EndChar

StartChar: greater
Encoding: 62 62 33
Width: 510
GlyphClass: 1
Flags: W
LayerCount: 2
Fore
SplineSet
477 280 m 1,0,-1
 57 533 l 1,1,-1
 57 439 l 1,2,-1
 349 259 l 1,3,-1
 57 82 l 1,4,-1
 57 -16 l 1,5,-1
 477 234 l 1,6,-1
 477 280 l 1,0,-1
EndSplineSet
EndChar

StartChar: question
Encoding: 63 63 34
Width: 479
GlyphClass: 1
Flags: W
LayerCount: 2
Fore
SplineSet
218 211 m 1,0,1
 218 244 218 244 226.5 266 c 128,-1,2
 235 288 235 288 248.5 303.5 c 128,-1,3
 262 319 262 319 280 330 c 128,-1,4
 298 341 298 341 316 351 c 0,5,6
 341 365 341 365 364 380 c 128,-1,7
 387 395 387 395 404 415 c 128,-1,8
 421 435 421 435 431.5 462 c 128,-1,9
 442 489 442 489 442 527 c 0,10,11
 442 576 442 576 425 612 c 128,-1,12
 408 648 408 648 380 672 c 128,-1,13
 352 696 352 696 316 707.5 c 128,-1,14
 280 719 280 719 243 719 c 0,15,16
 210 719 210 719 178.5 710.5 c 128,-1,17
 147 702 147 702 119 685.5 c 128,-1,18
 91 669 91 669 69.5 645 c 128,-1,19
 48 621 48 621 34 590 c 1,20,-1
 93 551 l 1,21,22
 103 570 103 570 118 587.5 c 128,-1,23
 133 605 133 605 152 618 c 128,-1,24
 171 631 171 631 193.5 638.5 c 128,-1,25
 216 646 216 646 241 646 c 0,26,27
 265 646 265 646 287 638.5 c 128,-1,28
 309 631 309 631 326 616.5 c 128,-1,29
 343 602 343 602 353.5 580.5 c 128,-1,30
 364 559 364 559 364 531 c 0,31,32
 364 497 364 497 349.5 472.5 c 128,-1,33
 335 448 335 448 314 430.5 c 128,-1,34
 293 413 293 413 269.5 400 c 128,-1,35
 246 387 246 387 228 375 c 0,36,37
 205 360 205 360 189 343 c 128,-1,38
 173 326 173 326 163 305.5 c 128,-1,39
 153 285 153 285 148.5 261.5 c 128,-1,40
 144 238 144 238 144 211 c 1,41,-1
 218 211 l 1,0,1
126 46 m 256,42,43
 126 23 126 23 142.5 6.5 c 128,-1,44
 159 -10 159 -10 182 -10 c 256,45,46
 205 -10 205 -10 221.5 6.5 c 128,-1,47
 238 23 238 23 238 46 c 256,48,49
 238 69 238 69 221.5 85.5 c 128,-1,50
 205 102 205 102 182 102 c 256,51,52
 159 102 159 102 142.5 85.5 c 128,-1,53
 126 69 126 69 126 46 c 256,42,43
EndSplineSet
EndChar

StartChar: at
Encoding: 64 64 35
Width: 840
GlyphClass: 1
Flags: W
LayerCount: 2
Fore
SplineSet
419 603 m 0,0,1
 346 603 346 603 278.5 577 c 128,-1,2
 211 551 211 551 159.5 502.5 c 128,-1,3
 108 454 108 454 77 385 c 128,-1,4
 46 316 46 316 46 230 c 0,5,6
 46 148 46 148 74.5 79 c 128,-1,7
 103 10 103 10 152.5 -40 c 128,-1,8
 202 -90 202 -90 268 -118 c 128,-1,9
 334 -146 334 -146 409 -146 c 0,10,11
 452 -146 452 -146 494.5 -136 c 128,-1,12
 537 -126 537 -126 578 -106 c 1,13,-1
 564 -68 l 1,14,15
 527 -85 527 -85 490.5 -95.5 c 128,-1,16
 454 -106 454 -106 410 -106 c 0,17,18
 340 -106 340 -106 281 -79.5 c 128,-1,19
 222 -53 222 -53 179 -7.5 c 128,-1,20
 136 38 136 38 112 99 c 128,-1,21
 88 160 88 160 88 230 c 0,22,23
 88 302 88 302 113.5 363.5 c 128,-1,24
 139 425 139 425 183.5 469 c 128,-1,25
 228 513 228 513 288 538 c 128,-1,26
 348 563 348 563 417 563 c 0,27,28
 488 563 488 563 547.5 537 c 128,-1,29
 607 511 607 511 651 465 c 128,-1,30
 695 419 695 419 719.5 357.5 c 128,-1,31
 744 296 744 296 744 224 c 0,32,33
 744 199 744 199 740 165 c 128,-1,34
 736 131 736 131 724.5 100.5 c 128,-1,35
 713 70 713 70 694 49 c 128,-1,36
 675 28 675 28 645 28 c 0,37,38
 628 28 628 28 618 36 c 128,-1,39
 608 44 608 44 602.5 58 c 128,-1,40
 597 72 597 72 595.5 91 c 128,-1,41
 594 110 594 110 594 132 c 2,42,-1
 594 251 l 2,43,44
 594 286 594 286 589.5 322.5 c 128,-1,45
 585 359 585 359 568 389 c 128,-1,46
 551 419 551 419 517.5 438 c 128,-1,47
 484 457 484 457 425 457 c 0,48,49
 378 457 378 457 336.5 443.5 c 128,-1,50
 295 430 295 430 259 406 c 1,51,-1
 279 357 l 1,52,53
 307 378 307 378 342 390.5 c 128,-1,54
 377 403 377 403 417 403 c 0,55,56
 453 403 453 403 476.5 392 c 128,-1,57
 500 381 500 381 513.5 361.5 c 128,-1,58
 527 342 527 342 532.5 314.5 c 128,-1,59
 538 287 538 287 538 254 c 1,60,61
 522 260 522 260 490 268.5 c 128,-1,62
 458 277 458 277 415 277 c 0,63,64
 382 277 382 277 348.5 270 c 128,-1,65
 315 263 315 263 288 247 c 128,-1,66
 261 231 261 231 244.5 204 c 128,-1,67
 228 177 228 177 228 138 c 0,68,69
 228 79 228 79 267.5 40.5 c 128,-1,70
 307 2 307 2 380 2 c 0,71,72
 433 2 433 2 477 22.5 c 128,-1,73
 521 43 521 43 550 73 c 1,74,75
 552 56 552 56 556 40 c 128,-1,76
 560 24 560 24 569.5 11.5 c 128,-1,77
 579 -1 579 -1 595.5 -8.5 c 128,-1,78
 612 -16 612 -16 637 -16 c 0,79,80
 689 -16 689 -16 718.5 13 c 128,-1,81
 748 42 748 42 763 81.5 c 128,-1,82
 778 121 778 121 782 161 c 128,-1,83
 786 201 786 201 786 222 c 0,84,85
 786 309 786 309 756.5 379.5 c 128,-1,86
 727 450 727 450 676.5 499.5 c 128,-1,87
 626 549 626 549 559.5 576 c 128,-1,88
 493 603 493 603 419 603 c 0,0,1
476 76 m 0,89,90
 457 67 457 67 432.5 60.5 c 128,-1,91
 408 54 408 54 384 54 c 0,92,93
 362 54 362 54 343.5 60.5 c 128,-1,94
 325 67 325 67 312 79 c 128,-1,95
 299 91 299 91 292 107 c 128,-1,96
 285 123 285 123 285 142 c 0,97,98
 285 167 285 167 295.5 183.5 c 128,-1,99
 306 200 306 200 324 210.5 c 128,-1,100
 342 221 342 221 365.5 225.5 c 128,-1,101
 389 230 389 230 414 230 c 0,102,103
 437 230 437 230 456.5 227 c 128,-1,104
 476 224 476 224 491.5 220 c 128,-1,105
 507 216 507 216 519 212.5 c 128,-1,106
 531 209 531 209 537 208 c 1,107,-1
 537 171 l 2,108,109
 537 158 537 158 535 145 c 128,-1,110
 533 132 533 132 526 119.5 c 128,-1,111
 519 107 519 107 507.5 96 c 128,-1,112
 496 85 496 85 476 76 c 0,89,90
EndSplineSet
EndChar

StartChar: A
Encoding: 65 65 36
Width: 677
GlyphClass: 1
Flags: W
LayerCount: 2
Fore
SplineSet
10 0 m 1,0,-1
 106 0 l 1,1,-1
 189 208 l 1,2,-1
 487 208 l 1,3,-1
 571 0 l 1,4,-1
 667 0 l 1,5,-1
 377 710 l 1,6,-1
 301 710 l 1,7,-1
 10 0 l 1,0,-1
207 278 m 1,8,-1
 339 606 l 1,9,-1
 467 278 l 1,10,-1
 207 278 l 1,8,-1
EndSplineSet
Substitution2: "Single Substitution lookup 45 subtable" ordfeminine
Substitution2: "'aalt' Access All Alternates lookup 0 subtable" ordfeminine
EndChar

StartChar: B
Encoding: 66 66 37
Width: 671
GlyphClass: 1
Flags: W
LayerCount: 2
Fore
SplineSet
630 183 m 0,0,1
 630 216 630 216 621 245 c 128,-1,2
 612 274 612 274 594.5 297.5 c 128,-1,3
 577 321 577 321 552.5 338 c 128,-1,4
 528 355 528 355 498 364 c 1,5,6
 547 386 547 386 573.5 431 c 128,-1,7
 600 476 600 476 600 529 c 0,8,9
 600 562 600 562 589 594.5 c 128,-1,10
 578 627 578 627 557 652.5 c 128,-1,11
 536 678 536 678 506 694 c 128,-1,12
 476 710 476 710 438 710 c 2,13,-1
 85 710 l 1,14,-1
 85 0 l 1,15,-1
 422 0 l 2,16,17
 465 0 465 0 502.5 13 c 128,-1,18
 540 26 540 26 568.5 50 c 128,-1,19
 597 74 597 74 613.5 108 c 128,-1,20
 630 142 630 142 630 183 c 0,0,1
539 199 m 256,21,22
 539 175 539 175 530 153 c 128,-1,23
 521 131 521 131 505.5 114.5 c 128,-1,24
 490 98 490 98 468.5 88 c 128,-1,25
 447 78 447 78 422 78 c 2,26,-1
 175 78 l 1,27,-1
 175 322 l 1,28,-1
 429 322 l 2,29,30
 453 322 453 322 473 312 c 128,-1,31
 493 302 493 302 507.5 285 c 128,-1,32
 522 268 522 268 530.5 245.5 c 128,-1,33
 539 223 539 223 539 199 c 256,21,22
407 632 m 2,34,35
 430 632 430 632 449 623 c 128,-1,36
 468 614 468 614 481.5 598 c 128,-1,37
 495 582 495 582 503 560 c 128,-1,38
 511 538 511 538 511 513 c 0,39,40
 511 489 511 489 502.5 467.5 c 128,-1,41
 494 446 494 446 479.5 430 c 128,-1,42
 465 414 465 414 445 404.5 c 128,-1,43
 425 395 425 395 401 395 c 2,44,-1
 175 395 l 1,45,-1
 175 632 l 1,46,-1
 407 632 l 2,34,35
EndSplineSet
EndChar

StartChar: C
Encoding: 67 67 38
Width: 682
GlyphClass: 1
Flags: W
LayerCount: 2
Fore
SplineSet
39 360 m 0,0,1
 39 293 39 293 63.5 227 c 128,-1,2
 88 161 88 161 132.5 109.5 c 128,-1,3
 177 58 177 58 238 26 c 128,-1,4
 299 -6 299 -6 372 -6 c 0,5,6
 413 -6 413 -6 456 5 c 128,-1,7
 499 16 499 16 537.5 37 c 128,-1,8
 576 58 576 58 606.5 88.5 c 128,-1,9
 637 119 637 119 654 159 c 1,10,-1
 579 200 l 1,11,12
 564 167 564 167 540.5 143.5 c 128,-1,13
 517 120 517 120 490 104.5 c 128,-1,14
 463 89 463 89 433.5 82 c 128,-1,15
 404 75 404 75 376 75 c 0,16,17
 323 75 323 75 278 98 c 128,-1,18
 233 121 233 121 200 160 c 128,-1,19
 167 199 167 199 148.5 250 c 128,-1,20
 130 301 130 301 130 356 c 0,21,22
 130 406 130 406 146 455.5 c 128,-1,23
 162 505 162 505 192.5 544.5 c 128,-1,24
 223 584 223 584 268.5 608.5 c 128,-1,25
 314 633 314 633 373 633 c 0,26,27
 400 633 400 633 428.5 627 c 128,-1,28
 457 621 457 621 483 607 c 128,-1,29
 509 593 509 593 531.5 570 c 128,-1,30
 554 547 554 547 570 513 c 1,31,-1
 641 559 l 1,32,33
 608 628 608 628 540 671 c 128,-1,34
 472 714 472 714 377 714 c 0,35,36
 297 714 297 714 234 683 c 128,-1,37
 171 652 171 652 127.5 601.5 c 128,-1,38
 84 551 84 551 61.5 488 c 128,-1,39
 39 425 39 425 39 360 c 0,0,1
EndSplineSet
EndChar

StartChar: D
Encoding: 68 68 39
Width: 716
GlyphClass: 1
Flags: W
LayerCount: 2
Fore
SplineSet
331 0 m 2,0,1
 409 0 409 0 472.5 25.5 c 128,-1,2
 536 51 536 51 581 97.5 c 128,-1,3
 626 144 626 144 650 209.5 c 128,-1,4
 674 275 674 275 674 356 c 0,5,6
 674 430 674 430 652.5 494.5 c 128,-1,7
 631 559 631 559 588 607 c 128,-1,8
 545 655 545 655 481 682.5 c 128,-1,9
 417 710 417 710 331 710 c 2,10,-1
 85 710 l 1,11,-1
 85 0 l 1,12,-1
 331 0 l 2,0,1
583 356 m 0,13,14
 583 297 583 297 566.5 246.5 c 128,-1,15
 550 196 550 196 518.5 159 c 128,-1,16
 487 122 487 122 440 101 c 128,-1,17
 393 80 393 80 331 80 c 2,18,-1
 175 80 l 1,19,-1
 175 630 l 1,20,-1
 331 630 l 2,21,22
 391 630 391 630 438 609.5 c 128,-1,23
 485 589 485 589 517.5 553 c 128,-1,24
 550 517 550 517 566.5 466.5 c 128,-1,25
 583 416 583 416 583 356 c 0,13,14
EndSplineSet
EndChar

StartChar: E
Encoding: 69 69 40
Width: 605
GlyphClass: 1
Flags: W
LayerCount: 2
Fore
SplineSet
175 80 m 1,0,-1
 175 325 l 1,1,-1
 508 325 l 1,2,-1
 508 400 l 1,3,-1
 175 400 l 1,4,-1
 175 630 l 1,5,-1
 558 630 l 1,6,-1
 558 710 l 1,7,-1
 85 710 l 1,8,-1
 85 0 l 1,9,-1
 567 0 l 1,10,-1
 567 80 l 1,11,-1
 175 80 l 1,0,-1
EndSplineSet
EndChar

StartChar: F
Encoding: 70 70 41
Width: 583
GlyphClass: 1
Flags: W
LayerCount: 2
Fore
SplineSet
175 0 m 1,0,-1
 175 318 l 1,1,-1
 494 318 l 1,2,-1
 494 393 l 1,3,-1
 175 393 l 1,4,-1
 175 630 l 1,5,-1
 554 630 l 1,6,-1
 554 710 l 1,7,-1
 85 710 l 1,8,-1
 85 0 l 1,9,-1
 175 0 l 1,0,-1
EndSplineSet
EndChar

StartChar: G
Encoding: 71 71 42
Width: 730
GlyphClass: 1
Flags: W
LayerCount: 2
Fore
SplineSet
381 -5 m 0,0,1
 422 -5 422 -5 461.5 2.5 c 128,-1,2
 501 10 501 10 537 25.5 c 128,-1,3
 573 41 573 41 605.5 64.5 c 128,-1,4
 638 88 638 88 665 120 c 1,5,-1
 665 357 l 1,6,-1
 375 357 l 1,7,-1
 375 277 l 1,8,-1
 575 277 l 1,9,-1
 575 149 l 1,10,11
 559 130 559 130 539 116 c 128,-1,12
 519 102 519 102 494.5 93 c 128,-1,13
 470 84 470 84 440 80 c 128,-1,14
 410 76 410 76 374 76 c 0,15,16
 318 76 318 76 273 100 c 128,-1,17
 228 124 228 124 196.5 163.5 c 128,-1,18
 165 203 165 203 148 253 c 128,-1,19
 131 303 131 303 131 354 c 0,20,21
 131 406 131 406 148 456.5 c 128,-1,22
 165 507 165 507 196.5 546.5 c 128,-1,23
 228 586 228 586 273 610 c 128,-1,24
 318 634 318 634 374 634 c 0,25,26
 412 634 412 634 444 622.5 c 128,-1,27
 476 611 476 611 501.5 592.5 c 128,-1,28
 527 574 527 574 546.5 551 c 128,-1,29
 566 528 566 528 579 506 c 1,30,-1
 650 563 l 1,31,32
 608 632 608 632 538.5 673.5 c 128,-1,33
 469 715 469 715 379 715 c 0,34,35
 304 715 304 715 241.5 685 c 128,-1,36
 179 655 179 655 134 605.5 c 128,-1,37
 89 556 89 556 64.5 491.5 c 128,-1,38
 40 427 40 427 40 358 c 0,39,40
 40 288 40 288 65 222.5 c 128,-1,41
 90 157 90 157 135.5 106.5 c 128,-1,42
 181 56 181 56 243.5 25.5 c 128,-1,43
 306 -5 306 -5 381 -5 c 0,0,1
EndSplineSet
Substitution2: "'ss11' Style Set 11 lookup 39 subtable" G.ss11
Substitution2: "'aalt' Access All Alternates lookup 0 subtable" G.ss11
EndChar

StartChar: H
Encoding: 72 72 43
Width: 741
GlyphClass: 1
Flags: W
LayerCount: 2
Fore
SplineSet
566 710 m 1,0,-1
 566 403 l 1,1,-1
 175 403 l 1,2,-1
 175 710 l 1,3,-1
 85 710 l 1,4,-1
 85 0 l 1,5,-1
 175 0 l 1,6,-1
 175 323 l 1,7,-1
 566 323 l 1,8,-1
 566 0 l 1,9,-1
 656 0 l 1,10,-1
 656 710 l 1,11,-1
 566 710 l 1,0,-1
EndSplineSet
EndChar

StartChar: I
Encoding: 73 73 44
Width: 260
GlyphClass: 1
Flags: W
LayerCount: 2
Fore
SplineSet
175 0 m 1,0,-1
 175 710 l 1,1,-1
 85 710 l 1,2,-1
 85 0 l 1,3,-1
 175 0 l 1,0,-1
EndSplineSet
EndChar

StartChar: J
Encoding: 74 74 45
Width: 533
GlyphClass: 2
Flags: W
LayerCount: 2
Fore
SplineSet
213 -10 m 0,0,1
 179 -10 179 -10 146.5 0 c 128,-1,2
 114 10 114 10 86.5 28.5 c 128,-1,3
 59 47 59 47 38 73.5 c 128,-1,4
 17 100 17 100 5 132 c 1,5,-1
 87 170 l 1,6,7
 95 149 95 149 107 131 c 128,-1,8
 119 113 119 113 134.5 99.5 c 128,-1,9
 150 86 150 86 169.5 78.5 c 128,-1,10
 189 71 189 71 213 71 c 0,11,12
 251 71 251 71 278 86 c 128,-1,13
 305 101 305 101 322 125.5 c 128,-1,14
 339 150 339 150 347 182 c 128,-1,15
 355 214 355 214 355 247 c 2,16,-1
 355 710 l 1,17,-1
 448 710 l 1,18,-1
 448 215 l 2,19,20
 448 163 448 163 430 121.5 c 128,-1,21
 412 80 412 80 380.5 51 c 128,-1,22
 349 22 349 22 306 6 c 128,-1,23
 263 -10 263 -10 213 -10 c 0,0,1
EndSplineSet
EndChar

StartChar: K
Encoding: 75 75 46
Width: 652
GlyphClass: 1
Flags: W
LayerCount: 2
Fore
SplineSet
175 0 m 1,0,-1
 175 217 l 1,1,-1
 296 343 l 1,2,-1
 553 0 l 1,3,-1
 654 0 l 1,4,-1
 353 397 l 1,5,-1
 638 710 l 1,6,-1
 541 710 l 1,7,-1
 175 317 l 1,8,-1
 175 709 l 1,9,-1
 85 709 l 1,10,-1
 85 0 l 1,11,-1
 175 0 l 1,0,-1
EndSplineSet
EndChar

StartChar: L
Encoding: 76 76 47
Width: 584
GlyphClass: 1
Flags: W
LayerCount: 2
Fore
SplineSet
571 0 m 1,0,-1
 571 80 l 1,1,-1
 175 80 l 1,2,-1
 175 710 l 1,3,-1
 85 710 l 1,4,-1
 85 0 l 1,5,-1
 571 0 l 1,0,-1
EndSplineSet
EndChar

StartChar: M
Encoding: 77 77 48
Width: 874
GlyphClass: 1
Flags: W
LayerCount: 2
Fore
SplineSet
789 0 m 1,0,-1
 789 710 l 1,1,-1
 695 710 l 1,2,-1
 437 249 l 1,3,-1
 180 710 l 1,4,-1
 85 710 l 1,5,-1
 85 0 l 1,6,-1
 175 0 l 1,7,-1
 175 542 l 1,8,-1
 410 125 l 1,9,-1
 465 125 l 1,10,-1
 699 542 l 1,11,-1
 699 0 l 1,12,-1
 789 0 l 1,0,-1
EndSplineSet
EndChar

StartChar: N
Encoding: 78 78 49
Width: 770
GlyphClass: 1
Flags: W
LayerCount: 2
Fore
SplineSet
603 0 m 1,0,-1
 685 0 l 1,1,-1
 685 709 l 1,2,-1
 595 709 l 1,3,-1
 595 155 l 1,4,-1
 161 710 l 1,5,-1
 85 710 l 1,6,-1
 85 0 l 1,7,-1
 175 0 l 1,8,-1
 175 544 l 1,9,-1
 603 0 l 1,0,-1
EndSplineSet
EndChar

StartChar: O
Encoding: 79 79 50
Width: 748
GlyphClass: 1
Flags: W
LayerCount: 2
Fore
SplineSet
373 -5 m 0,0,1
 445 -5 445 -5 506.5 24.5 c 128,-1,2
 568 54 568 54 612.5 103.5 c 128,-1,3
 657 153 657 153 682.5 218 c 128,-1,4
 708 283 708 283 708 354 c 0,5,6
 708 421 708 421 684 485.5 c 128,-1,7
 660 550 660 550 616 601 c 128,-1,8
 572 652 572 652 511 683.5 c 128,-1,9
 450 715 450 715 375 715 c 0,10,11
 303 715 303 715 241.5 685.5 c 128,-1,12
 180 656 180 656 135 606 c 128,-1,13
 90 556 90 556 64.5 491 c 128,-1,14
 39 426 39 426 39 355 c 0,15,16
 39 287 39 287 63 222 c 128,-1,17
 87 157 87 157 131 106.5 c 128,-1,18
 175 56 175 56 236.5 25.5 c 128,-1,19
 298 -5 298 -5 373 -5 c 0,0,1
130 355 m 0,20,21
 130 407 130 407 147 457 c 128,-1,22
 164 507 164 507 195.5 546 c 128,-1,23
 227 585 227 585 272 609 c 128,-1,24
 317 633 317 633 374 633 c 0,25,26
 428 633 428 633 472.5 610 c 128,-1,27
 517 587 517 587 549.5 548.5 c 128,-1,28
 582 510 582 510 599.5 459.5 c 128,-1,29
 617 409 617 409 617 355 c 0,30,31
 617 304 617 304 600.5 254 c 128,-1,32
 584 204 584 204 552.5 164.5 c 128,-1,33
 521 125 521 125 476 100.5 c 128,-1,34
 431 76 431 76 374 76 c 0,35,36
 319 76 319 76 274 99 c 128,-1,37
 229 122 229 122 197 161 c 128,-1,38
 165 200 165 200 147.5 250.5 c 128,-1,39
 130 301 130 301 130 355 c 0,20,21
EndSplineSet
Substitution2: "Single Substitution lookup 45 subtable" ordmasculine
Substitution2: "'aalt' Access All Alternates lookup 0 subtable" ordmasculine
EndChar

StartChar: P
Encoding: 80 80 51
Width: 623
GlyphClass: 1
Flags: W
LayerCount: 2
Fore
SplineSet
175 0 m 1,0,-1
 175 255 l 1,1,-1
 387 255 l 2,2,3
 434 255 434 255 472.5 274 c 128,-1,4
 511 293 511 293 538.5 325 c 128,-1,5
 566 357 566 357 581 398 c 128,-1,6
 596 439 596 439 596 483 c 0,7,8
 596 525 596 525 580 565.5 c 128,-1,9
 564 606 564 606 535.5 638.5 c 128,-1,10
 507 671 507 671 467.5 690.5 c 128,-1,11
 428 710 428 710 381 710 c 2,12,-1
 85 710 l 1,13,-1
 85 0 l 1,14,-1
 175 0 l 1,0,-1
175 630 m 1,15,-1
 376 630 l 2,16,17
 402 630 402 630 425.5 619 c 128,-1,18
 449 608 449 608 466.5 588 c 128,-1,19
 484 568 484 568 494.5 541.5 c 128,-1,20
 505 515 505 515 505 483 c 0,21,22
 505 453 505 453 496 426 c 128,-1,23
 487 399 487 399 471 378.5 c 128,-1,24
 455 358 455 358 432.5 346.5 c 128,-1,25
 410 335 410 335 382 335 c 2,26,-1
 175 335 l 1,27,-1
 175 630 l 1,15,-1
EndSplineSet
EndChar

StartChar: Q
Encoding: 81 81 52
Width: 746
GlyphClass: 1
Flags: W
LayerCount: 2
Fore
SplineSet
373 -5 m 0,0,1
 445 -5 445 -5 506.5 24.5 c 128,-1,2
 568 54 568 54 612.5 103.5 c 128,-1,3
 657 153 657 153 682.5 218 c 128,-1,4
 708 283 708 283 708 354 c 0,5,6
 708 421 708 421 684 485.5 c 128,-1,7
 660 550 660 550 616 601 c 128,-1,8
 572 652 572 652 511 683.5 c 128,-1,9
 450 715 450 715 375 715 c 0,10,11
 303 715 303 715 241.5 685.5 c 128,-1,12
 180 656 180 656 135 606 c 128,-1,13
 90 556 90 556 64.5 491 c 128,-1,14
 39 426 39 426 39 355 c 0,15,16
 39 287 39 287 63 222 c 128,-1,17
 87 157 87 157 131 107 c 128,-1,18
 175 57 175 57 236.5 26 c 128,-1,19
 298 -5 298 -5 373 -5 c 0,0,1
374 76 m 0,20,21
 319 76 319 76 274 99 c 128,-1,22
 229 122 229 122 197 161 c 128,-1,23
 165 200 165 200 147.5 250.5 c 128,-1,24
 130 301 130 301 130 355 c 0,25,26
 130 407 130 407 147 457 c 128,-1,27
 164 507 164 507 195.5 546.5 c 128,-1,28
 227 586 227 586 272 610 c 128,-1,29
 317 634 317 634 374 634 c 0,30,31
 428 634 428 634 472.5 611 c 128,-1,32
 517 588 517 588 549.5 549 c 128,-1,33
 582 510 582 510 599.5 459.5 c 128,-1,34
 617 409 617 409 617 355 c 0,35,36
 617 304 617 304 600.5 254 c 128,-1,37
 584 204 584 204 552.5 164.5 c 128,-1,38
 521 125 521 125 476 100.5 c 128,-1,39
 431 76 431 76 374 76 c 0,20,21
670 -16 m 1,40,-1
 727 41 l 1,41,-1
 449 313 l 1,42,-1
 392 256 l 1,43,-1
 670 -16 l 1,40,-1
EndSplineSet
EndChar

StartChar: R
Encoding: 82 82 53
Width: 657
GlyphClass: 1
Flags: W
LayerCount: 2
Fore
SplineSet
175 0 m 1,0,-1
 175 255 l 1,1,-1
 363 255 l 1,2,-1
 525 0 l 1,3,-1
 627 0 l 1,4,-1
 455 272 l 1,5,6
 489 281 489 281 516.5 301 c 128,-1,7
 544 321 544 321 563.5 349 c 128,-1,8
 583 377 583 377 593.5 411.5 c 128,-1,9
 604 446 604 446 604 483 c 0,10,11
 604 525 604 525 588 565.5 c 128,-1,12
 572 606 572 606 543.5 638.5 c 128,-1,13
 515 671 515 671 475.5 690.5 c 128,-1,14
 436 710 436 710 389 710 c 2,15,-1
 85 710 l 1,16,-1
 85 0 l 1,17,-1
 175 0 l 1,0,-1
175 630 m 1,18,-1
 384 630 l 2,19,20
 410 630 410 630 433.5 618.5 c 128,-1,21
 457 607 457 607 474.5 586.5 c 128,-1,22
 492 566 492 566 502.5 539.5 c 128,-1,23
 513 513 513 513 513 483 c 0,24,25
 513 454 513 454 504 427 c 128,-1,26
 495 400 495 400 479 379.5 c 128,-1,27
 463 359 463 359 440.5 347 c 128,-1,28
 418 335 418 335 390 335 c 2,29,-1
 175 335 l 1,30,-1
 175 630 l 1,18,-1
EndSplineSet
EndChar

StartChar: S
Encoding: 83 83 54
Width: 609
GlyphClass: 1
Flags: W
LayerCount: 2
Fore
SplineSet
544 634 m 1,0,1
 522 652 522 652 496 667 c 128,-1,2
 470 682 470 682 440.5 692.5 c 128,-1,3
 411 703 411 703 379 709 c 128,-1,4
 347 715 347 715 311 715 c 0,5,6
 256 715 256 715 209 701.5 c 128,-1,7
 162 688 162 688 128 661 c 128,-1,8
 94 634 94 634 75 595 c 128,-1,9
 56 556 56 556 56 505 c 0,10,11
 56 463 56 463 70 433 c 128,-1,12
 84 403 84 403 111.5 382 c 128,-1,13
 139 361 139 361 180 346 c 128,-1,14
 221 331 221 331 275 318 c 0,15,16
 325 306 325 306 363 294.5 c 128,-1,17
 401 283 401 283 427 268 c 128,-1,18
 453 253 453 253 466.5 232.5 c 128,-1,19
 480 212 480 212 480 182 c 0,20,21
 480 128 480 128 438 101 c 128,-1,22
 396 74 396 74 320 74 c 0,23,24
 280 74 280 74 242 82.5 c 128,-1,25
 204 91 204 91 171.5 104.5 c 128,-1,26
 139 118 139 118 113.5 135 c 128,-1,27
 88 152 88 152 72 169 c 1,28,-1
 29 93 l 1,29,30
 59 69 59 69 92.5 50 c 128,-1,31
 126 31 126 31 162.5 18.5 c 128,-1,32
 199 6 199 6 238 -0.5 c 128,-1,33
 277 -7 277 -7 318 -7 c 0,34,35
 373 -7 373 -7 420 4.5 c 128,-1,36
 467 16 467 16 501.5 40.5 c 128,-1,37
 536 65 536 65 556 102.5 c 128,-1,38
 576 140 576 140 576 191 c 0,39,40
 576 239 576 239 559.5 272 c 128,-1,41
 543 305 543 305 511.5 328 c 128,-1,42
 480 351 480 351 436 366.5 c 128,-1,43
 392 382 392 382 336 394 c 0,44,45
 288 405 288 405 253 415 c 128,-1,46
 218 425 218 425 194.5 438.5 c 128,-1,47
 171 452 171 452 160 471.5 c 128,-1,48
 149 491 149 491 149 519 c 0,49,50
 149 573 149 573 188 604 c 128,-1,51
 227 635 227 635 309 635 c 0,52,53
 341 635 341 635 370.5 628.5 c 128,-1,54
 400 622 400 622 425 611.5 c 128,-1,55
 450 601 450 601 470 588 c 128,-1,56
 490 575 490 575 502 561 c 1,57,-1
 544 634 l 1,0,1
EndSplineSet
EndChar

StartChar: T
Encoding: 84 84 55
Width: 614
GlyphClass: 1
Flags: W
LayerCount: 2
Fore
SplineSet
597 710 m 1,0,-1
 17 710 l 1,1,-1
 17 630 l 1,2,-1
 262 630 l 1,3,-1
 262 0 l 1,4,-1
 352 0 l 1,5,-1
 352 630 l 1,6,-1
 597 630 l 1,7,-1
 597 710 l 1,0,-1
EndSplineSet
EndChar

StartChar: U
Encoding: 85 85 56
Width: 755
GlyphClass: 1
Flags: W
LayerCount: 2
Fore
SplineSet
378 -5 m 0,0,1
 460 -5 460 -5 517.5 23.5 c 128,-1,2
 575 52 575 52 611 101 c 128,-1,3
 647 150 647 150 663.5 214.5 c 128,-1,4
 680 279 680 279 680 351 c 2,5,-1
 680 710 l 1,6,-1
 590 710 l 1,7,-1
 590 351 l 2,8,9
 590 300 590 300 580 250.5 c 128,-1,10
 570 201 570 201 545.5 162.5 c 128,-1,11
 521 124 521 124 480 100 c 128,-1,12
 439 76 439 76 377 76 c 0,13,14
 316 76 316 76 275.5 99.5 c 128,-1,15
 235 123 235 123 210.5 161 c 128,-1,16
 186 199 186 199 175.5 249 c 128,-1,17
 165 299 165 299 165 351 c 2,18,-1
 165 710 l 1,19,-1
 75 710 l 1,20,-1
 75 351 l 2,21,22
 75 283 75 283 90.5 218.5 c 128,-1,23
 106 154 106 154 141.5 104.5 c 128,-1,24
 177 55 177 55 235 25 c 128,-1,25
 293 -5 293 -5 378 -5 c 0,0,1
EndSplineSet
EndChar

StartChar: V
Encoding: 86 86 57
Width: 680
GlyphClass: 1
Flags: W
LayerCount: 2
Fore
SplineSet
10 710 m 1,0,-1
 299 0 l 1,1,-1
 381 0 l 1,2,-1
 669 710 l 1,3,-1
 574 710 l 1,4,-1
 340 113 l 1,5,-1
 105 710 l 1,6,-1
 10 710 l 1,0,-1
EndSplineSet
EndChar

StartChar: W
Encoding: 87 87 58
Width: 1077
GlyphClass: 1
Flags: W
LayerCount: 2
Fore
SplineSet
243 0 m 1,0,-1
 337 0 l 1,1,-1
 536 563 l 1,2,-1
 740 0 l 1,3,-1
 834 0 l 1,4,-1
 1059 710 l 1,5,-1
 957 710 l 1,6,-1
 779 133 l 1,7,-1
 584 710 l 1,8,-1
 486 710 l 1,9,-1
 298 133 l 1,10,-1
 119 710 l 1,11,-1
 18 710 l 1,12,-1
 243 0 l 1,0,-1
EndSplineSet
Substitution2: "'ss09' Style Set 9 lookup 37 subtable" W.ss09
Substitution2: "'aalt' Access All Alternates lookup 0 subtable" W.ss09
EndChar

StartChar: X
Encoding: 88 88 59
Width: 637
GlyphClass: 1
Flags: W
LayerCount: 2
Fore
SplineSet
3 710 m 1,0,-1
 268 350 l 1,1,-1
 11 0 l 1,2,-1
 113 0 l 1,3,-1
 319 284 l 1,4,-1
 525 0 l 1,5,-1
 626 0 l 1,6,-1
 369 350 l 1,7,-1
 634 710 l 1,8,-1
 533 710 l 1,9,-1
 319 416 l 1,10,-1
 105 710 l 1,11,-1
 3 710 l 1,0,-1
EndSplineSet
EndChar

StartChar: Y
Encoding: 89 89 60
Width: 655
GlyphClass: 1
Flags: W
LayerCount: 2
Fore
SplineSet
13 710 m 1,0,-1
 282 261 l 1,1,-1
 282 0 l 1,2,-1
 372 0 l 1,3,-1
 372 259 l 1,4,-1
 642 710 l 1,5,-1
 544 710 l 1,6,-1
 327 340 l 1,7,-1
 112 710 l 1,8,-1
 13 710 l 1,0,-1
EndSplineSet
EndChar

StartChar: Z
Encoding: 90 90 61
Width: 631
GlyphClass: 1
Flags: W
LayerCount: 2
Fore
SplineSet
32 0 m 1,0,-1
 595 0 l 1,1,-1
 595 80 l 1,2,-1
 145 80 l 1,3,-1
 595 640 l 1,4,-1
 595 710 l 1,5,-1
 41 710 l 1,6,-1
 41 630 l 1,7,-1
 490 630 l 1,8,-1
 32 70 l 1,9,-1
 32 0 l 1,0,-1
EndSplineSet
EndChar

StartChar: bracketleft
Encoding: 91 91 62
Width: 270
GlyphClass: 1
Flags: W
LayerCount: 2
Fore
SplineSet
224 -40 m 1,0,-1
 224 32 l 1,1,-1
 166 32 l 1,2,-1
 166 668 l 1,3,-1
 224 668 l 1,4,-1
 224 740 l 1,5,-1
 84 740 l 1,6,-1
 84 -40 l 1,7,-1
 224 -40 l 1,0,-1
EndSplineSet
EndChar

StartChar: backslash
Encoding: 92 92 63
Width: 590
GlyphClass: 1
Flags: W
LayerCount: 2
Fore
SplineSet
28 710 m 1,0,-1
 464 0 l 1,1,-1
 562 0 l 1,2,-1
 127 710 l 1,3,-1
 28 710 l 1,0,-1
EndSplineSet
EndChar

StartChar: bracketright
Encoding: 93 93 64
Width: 270
GlyphClass: 1
Flags: W
LayerCount: 2
Fore
SplineSet
186 -40 m 1,0,-1
 186 740 l 1,1,-1
 46 740 l 1,2,-1
 46 668 l 1,3,-1
 104 668 l 1,4,-1
 104 32 l 1,5,-1
 46 32 l 1,6,-1
 46 -40 l 1,7,-1
 186 -40 l 1,0,-1
EndSplineSet
EndChar

StartChar: asciicircum
Encoding: 94 94 65
Width: 553
GlyphClass: 1
Flags: W
LayerCount: 2
Fore
SplineSet
115 303 m 1,0,-1
 277 631 l 1,1,-1
 436 303 l 1,2,-1
 511 303 l 1,3,-1
 314 710 l 1,4,-1
 240 710 l 1,5,-1
 42 303 l 1,6,-1
 115 303 l 1,0,-1
EndSplineSet
EndChar

StartChar: underscore
Encoding: 95 95 66
Width: 503
GlyphClass: 1
Flags: W
LayerCount: 2
Fore
SplineSet
440 -80 m 1,0,-1
 440 0 l 1,1,-1
 63 0 l 1,2,-1
 63 -80 l 1,3,-1
 440 -80 l 1,0,-1
EndSplineSet
EndChar

StartChar: a
Encoding: 97 97 68
Width: 549
GlyphClass: 1
Flags: W
LayerCount: 2
Fore
SplineSet
484 0 m 1,0,-1
 484 321 l 2,1,2
 484 368 484 368 470 407 c 128,-1,3
 456 446 456 446 428 473.5 c 128,-1,4
 400 501 400 501 359.5 516 c 128,-1,5
 319 531 319 531 266 531 c 0,6,7
 209 531 209 531 158.5 512 c 128,-1,8
 108 493 108 493 63 463 c 1,9,-1
 92 406 l 1,10,11
 135 436 135 436 176 451.5 c 128,-1,12
 217 467 217 467 258 467 c 0,13,14
 291 467 291 467 316.5 457.5 c 128,-1,15
 342 448 342 448 359.5 430 c 128,-1,16
 377 412 377 412 386.5 386.5 c 128,-1,17
 396 361 396 361 396 330 c 2,18,-1
 396 288 l 1,19,20
 376 297 376 297 338.5 305.5 c 128,-1,21
 301 314 301 314 250 314 c 0,22,23
 210 314 210 314 170.5 304.5 c 128,-1,24
 131 295 131 295 99.5 275 c 128,-1,25
 68 255 68 255 49 224.5 c 128,-1,26
 30 194 30 194 30 153 c 0,27,28
 30 119 30 119 43.5 89 c 128,-1,29
 57 59 57 59 80.5 37 c 128,-1,30
 104 15 104 15 136 2.5 c 128,-1,31
 168 -10 168 -10 205 -10 c 0,32,33
 262 -10 262 -10 313.5 11.5 c 128,-1,34
 365 33 365 33 399 79 c 1,35,-1
 399 0 l 1,36,-1
 484 0 l 1,0,-1
377 120 m 0,37,38
 365 104 365 104 348 91.5 c 128,-1,39
 331 79 331 79 311 71.5 c 128,-1,40
 291 64 291 64 269.5 60 c 128,-1,41
 248 56 248 56 228 56 c 0,42,43
 205 56 205 56 184.5 63.5 c 128,-1,44
 164 71 164 71 148 84.5 c 128,-1,45
 132 98 132 98 123 117.5 c 128,-1,46
 114 137 114 137 114 160 c 0,47,48
 114 187 114 187 127.5 206 c 128,-1,49
 141 225 141 225 162.5 237.5 c 128,-1,50
 184 250 184 250 210.5 255.5 c 128,-1,51
 237 261 237 261 263 261 c 0,52,53
 295 261 295 261 329.5 255 c 128,-1,54
 364 249 364 249 396 236 c 1,55,-1
 396 159 l 2,56,57
 396 150 396 150 391 140 c 128,-1,58
 386 130 386 130 377 120 c 0,37,38
EndSplineSet
Substitution2: "Single Substitution lookup 45 subtable" ordfeminine
Substitution2: "'ss02' Style Set 2 lookup 30 subtable" a.ss02
Substitution2: "'ss01' Style Set 1 lookup 29 subtable" a.ss01
Substitution2: "'salt' Stylistic Alternatives lookup 28 subtable" a.ss01
AlternateSubs2: "'aalt' Access All Alternates lookup 1 subtable" ordfeminine a.ss01 a.ss02
EndChar

StartChar: b
Encoding: 98 98 69
Width: 623
GlyphClass: 1
Flags: W
LayerCount: 2
Fore
SplineSet
339 -10 m 0,0,1
 392 -10 392 -10 437 11.5 c 128,-1,2
 482 33 482 33 515 69.5 c 128,-1,3
 548 106 548 106 567 155 c 128,-1,4
 586 204 586 204 586 259 c 0,5,6
 586 312 586 312 569.5 361 c 128,-1,7
 553 410 553 410 522.5 447.5 c 128,-1,8
 492 485 492 485 449 508 c 128,-1,9
 406 531 406 531 352 531 c 0,10,11
 288 531 288 531 240 500 c 128,-1,12
 192 469 192 469 159 418 c 1,13,-1
 159 730 l 1,14,-1
 71 730 l 1,15,-1
 71 0 l 1,16,-1
 149 0 l 1,17,-1
 149 98 l 1,18,19
 163 74 163 74 183 54 c 128,-1,20
 203 34 203 34 227.5 20 c 128,-1,21
 252 6 252 6 280.5 -2 c 128,-1,22
 309 -10 309 -10 339 -10 c 0,0,1
317 66 m 0,23,24
 293 66 293 66 267.5 75 c 128,-1,25
 242 84 242 84 219.5 99.5 c 128,-1,26
 197 115 197 115 180.5 136 c 128,-1,27
 164 157 164 157 159 182 c 1,28,-1
 159 333 l 1,29,30
 171 358 171 358 187.5 380 c 128,-1,31
 204 402 204 402 225.5 418.5 c 128,-1,32
 247 435 247 435 272 445 c 128,-1,33
 297 455 297 455 325 455 c 0,34,35
 363 455 363 455 394.5 438.5 c 128,-1,36
 426 422 426 422 448.5 395 c 128,-1,37
 471 368 471 368 483.5 332.5 c 128,-1,38
 496 297 496 297 496 259 c 0,39,40
 496 222 496 222 483 187 c 128,-1,41
 470 152 470 152 446 125 c 128,-1,42
 422 98 422 98 389 82 c 128,-1,43
 356 66 356 66 317 66 c 0,23,24
EndSplineSet
EndChar

StartChar: c
Encoding: 99 99 70
Width: 554
GlyphClass: 1
Flags: W
LayerCount: 2
Fore
SplineSet
302 -10 m 0,0,1
 341 -10 341 -10 376.5 0 c 128,-1,2
 412 10 412 10 441 27 c 128,-1,3
 470 44 470 44 491.5 68.5 c 128,-1,4
 513 93 513 93 525 121 c 1,5,-1
 439 147 l 1,6,7
 433 131 433 131 419 116 c 128,-1,8
 405 101 405 101 386.5 90 c 128,-1,9
 368 79 368 79 345.5 72.5 c 128,-1,10
 323 66 323 66 300 66 c 0,11,12
 264 66 264 66 232.5 81 c 128,-1,13
 201 96 201 96 177.5 122.5 c 128,-1,14
 154 149 154 149 140 185 c 128,-1,15
 126 221 126 221 126 262 c 0,16,17
 126 304 126 304 139.5 339 c 128,-1,18
 153 374 153 374 176 400 c 128,-1,19
 199 426 199 426 231 440.5 c 128,-1,20
 263 455 263 455 299 455 c 0,21,22
 343 455 343 455 379 434.5 c 128,-1,23
 415 414 415 414 435 377 c 1,24,-1
 521 404 l 1,25,26
 492 462 492 462 435.5 496.5 c 128,-1,27
 379 531 379 531 301 531 c 0,28,29
 241 531 241 531 192.5 509.5 c 128,-1,30
 144 488 144 488 109 451.5 c 128,-1,31
 74 415 74 415 55 366 c 128,-1,32
 36 317 36 317 36 262 c 256,33,34
 36 207 36 207 55.5 157.5 c 128,-1,35
 75 108 75 108 110 71 c 128,-1,36
 145 34 145 34 194 12 c 128,-1,37
 243 -10 243 -10 302 -10 c 0,0,1
EndSplineSet
EndChar

StartChar: d
Encoding: 100 100 71
Width: 624
GlyphClass: 1
Flags: W
LayerCount: 2
Fore
SplineSet
553 0 m 1,0,-1
 553 730 l 1,1,-1
 465 730 l 1,2,-1
 465 418 l 1,3,4
 450 442 450 442 430 462.5 c 128,-1,5
 410 483 410 483 385.5 498 c 128,-1,6
 361 513 361 513 333 522 c 128,-1,7
 305 531 305 531 273 531 c 0,8,9
 222 531 222 531 179 509.5 c 128,-1,10
 136 488 136 488 104.5 451 c 128,-1,11
 73 414 73 414 55 365 c 128,-1,12
 37 316 37 316 37 260 c 0,13,14
 37 206 37 206 55.5 157 c 128,-1,15
 74 108 74 108 107 71 c 128,-1,16
 140 34 140 34 186 12 c 128,-1,17
 232 -10 232 -10 286 -10 c 0,18,19
 343 -10 343 -10 389.5 17.5 c 128,-1,20
 436 45 436 45 465 92 c 1,21,-1
 465 0 l 1,22,-1
 553 0 l 1,0,-1
465 183 m 1,23,24
 461 159 461 159 444.5 137.5 c 128,-1,25
 428 116 428 116 405.5 100 c 128,-1,26
 383 84 383 84 357 75 c 128,-1,27
 331 66 331 66 307 66 c 0,28,29
 269 66 269 66 236.5 81.5 c 128,-1,30
 204 97 204 97 180 123 c 128,-1,31
 156 149 156 149 142 184.5 c 128,-1,32
 128 220 128 220 128 259 c 0,33,34
 128 296 128 296 140 331.5 c 128,-1,35
 152 367 152 367 174.5 394.5 c 128,-1,36
 197 422 197 422 228.5 438.5 c 128,-1,37
 260 455 260 455 298 455 c 0,38,39
 323 455 323 455 349 445.5 c 128,-1,40
 375 436 375 436 397.5 419.5 c 128,-1,41
 420 403 420 403 438 381 c 128,-1,42
 456 359 456 359 465 333 c 1,43,-1
 465 183 l 1,23,24
EndSplineSet
Substitution2: "'ss03' Style Set 3 lookup 31 subtable" d.ss03
Substitution2: "'aalt' Access All Alternates lookup 0 subtable" d.ss03
EndChar

StartChar: e
Encoding: 101 101 72
Width: 591
GlyphClass: 1
Flags: W
LayerCount: 2
Fore
SplineSet
302 -10 m 0,0,1
 341 -10 341 -10 377 0 c 128,-1,2
 413 10 413 10 442.5 27.5 c 128,-1,3
 472 45 472 45 494.5 69 c 128,-1,4
 517 93 517 93 530 122 c 1,5,-1
 454 143 l 1,6,7
 446 124 446 124 430.5 107.5 c 128,-1,8
 415 91 415 91 395 80 c 128,-1,9
 375 69 375 69 352 62.5 c 128,-1,10
 329 56 329 56 305 56 c 0,11,12
 271 56 271 56 240.5 69 c 128,-1,13
 210 82 210 82 186 105 c 128,-1,14
 162 128 162 128 147 160 c 128,-1,15
 132 192 132 192 129 231 c 1,16,-1
 562 231 l 1,17,18
 563 236 563 236 563.5 245 c 128,-1,19
 564 254 564 254 564 265 c 0,20,21
 564 318 564 318 545.5 366 c 128,-1,22
 527 414 527 414 493 450.5 c 128,-1,23
 459 487 459 487 410.5 509 c 128,-1,24
 362 531 362 531 303 531 c 256,25,26
 244 531 244 531 195 509.5 c 128,-1,27
 146 488 146 488 110.5 451 c 128,-1,28
 75 414 75 414 55.5 365 c 128,-1,29
 36 316 36 316 36 261 c 256,30,31
 36 206 36 206 55.5 156.5 c 128,-1,32
 75 107 75 107 110 70 c 128,-1,33
 145 33 145 33 194 11.5 c 128,-1,34
 243 -10 243 -10 302 -10 c 0,0,1
126 292 m 1,35,36
 129 330 129 330 143.5 361.5 c 128,-1,37
 158 393 158 393 182 416 c 128,-1,38
 206 439 206 439 237 452 c 128,-1,39
 268 465 268 465 303 465 c 256,40,41
 338 465 338 465 369 452.5 c 128,-1,42
 400 440 400 440 424 417 c 128,-1,43
 448 394 448 394 463.5 362 c 128,-1,44
 479 330 479 330 482 292 c 1,45,-1
 126 292 l 1,35,36
EndSplineSet
EndChar

StartChar: f
Encoding: 102 102 73
Width: 343
GlyphClass: 1
Flags: W
LayerCount: 2
Fore
SplineSet
187 0 m 1,0,-1
 187 453 l 1,1,-1
 326 453 l 1,2,-1
 326 522 l 1,3,-1
 187 522 l 1,4,-1
 187 536 l 2,5,6
 187 599 187 599 210 632 c 128,-1,7
 233 665 233 665 277 665 c 0,8,9
 297 665 297 665 317.5 659 c 128,-1,10
 338 653 338 653 352 643 c 1,11,-1
 374 708 l 1,12,13
 350 723 350 723 320 731.5 c 128,-1,14
 290 740 290 740 259 740 c 0,15,16
 222 740 222 740 192.5 725.5 c 128,-1,17
 163 711 163 711 142 684.5 c 128,-1,18
 121 658 121 658 110 619.5 c 128,-1,19
 99 581 99 581 99 533 c 2,20,-1
 99 522 l 1,21,-1
 28 522 l 1,22,-1
 28 453 l 1,23,-1
 99 453 l 1,24,-1
 99 0 l 1,25,-1
 187 0 l 1,0,-1
EndSplineSet
EndChar

StartChar: g
Encoding: 103 103 74
Width: 624
GlyphClass: 1
Flags: W
LayerCount: 2
Fore
SplineSet
279 -6 m 0,0,1
 335 -6 335 -6 385.5 22 c 128,-1,2
 436 50 436 50 465 98 c 1,3,-1
 465 6 l 2,4,5
 465 -35 465 -35 450.5 -65 c 128,-1,6
 436 -95 436 -95 412 -115 c 128,-1,7
 388 -135 388 -135 355.5 -145 c 128,-1,8
 323 -155 323 -155 287 -155 c 0,9,10
 230 -155 230 -155 181 -132 c 128,-1,11
 132 -109 132 -109 101 -63 c 1,12,-1
 50 -108 l 1,13,14
 87 -161 87 -161 143 -192 c 128,-1,15
 199 -223 199 -223 287 -223 c 0,16,17
 343 -223 343 -223 391.5 -208 c 128,-1,18
 440 -193 440 -193 476 -164 c 128,-1,19
 512 -135 512 -135 532.5 -92.5 c 128,-1,20
 553 -50 553 -50 553 6 c 2,21,-1
 553 522 l 1,22,-1
 475 522 l 1,23,-1
 475 418 l 1,24,25
 459 442 459 442 438.5 463 c 128,-1,26
 418 484 418 484 393.5 499 c 128,-1,27
 369 514 369 514 341 522.5 c 128,-1,28
 313 531 313 531 280 531 c 0,29,30
 226 531 226 531 181.5 509.5 c 128,-1,31
 137 488 137 488 105 451 c 128,-1,32
 73 414 73 414 55.5 364.5 c 128,-1,33
 38 315 38 315 38 260 c 0,34,35
 38 208 38 208 55.5 160 c 128,-1,36
 73 112 73 112 105 75 c 128,-1,37
 137 38 137 38 181.5 16 c 128,-1,38
 226 -6 226 -6 279 -6 c 0,0,1
306 66 m 0,39,40
 269 66 269 66 236 81.5 c 128,-1,41
 203 97 203 97 179 123 c 128,-1,42
 155 149 155 149 141 184 c 128,-1,43
 127 219 127 219 127 258 c 0,44,45
 127 294 127 294 139 329.5 c 128,-1,46
 151 365 151 365 173 393 c 128,-1,47
 195 421 195 421 226.5 438 c 128,-1,48
 258 455 258 455 298 455 c 0,49,50
 324 455 324 455 349.5 446 c 128,-1,51
 375 437 375 437 397 420.5 c 128,-1,52
 419 404 419 404 437 382 c 128,-1,53
 455 360 455 360 465 333 c 1,54,-1
 465 183 l 1,55,56
 460 161 460 161 445 140 c 128,-1,57
 430 119 430 119 408 102.5 c 128,-1,58
 386 86 386 86 360 76 c 128,-1,59
 334 66 334 66 306 66 c 0,39,40
EndSplineSet
EndChar

StartChar: h
Encoding: 104 104 75
Width: 590
GlyphClass: 1
Flags: W
LayerCount: 2
Fore
SplineSet
524 312 m 2,0,1
 524 359 524 359 515.5 399 c 128,-1,2
 507 439 507 439 488 468 c 128,-1,3
 469 497 469 497 437.5 514 c 128,-1,4
 406 531 406 531 359 531 c 0,5,6
 296 531 296 531 243 499 c 128,-1,7
 190 467 190 467 159 410 c 1,8,-1
 159 730 l 1,9,-1
 71 730 l 1,10,-1
 71 0 l 1,11,-1
 159 0 l 1,12,-1
 159 315 l 1,13,14
 168 345 168 345 185.5 370 c 128,-1,15
 203 395 203 395 225.5 413 c 128,-1,16
 248 431 248 431 274 441.5 c 128,-1,17
 300 452 300 452 326 452 c 0,18,19
 380 452 380 452 408 412.5 c 128,-1,20
 436 373 436 373 436 292 c 2,21,-1
 436 0 l 1,22,-1
 524 0 l 1,23,-1
 524 312 l 2,0,1
EndSplineSet
EndChar

StartChar: k
Encoding: 107 107 78
Width: 539
GlyphClass: 1
Flags: W
LayerCount: 2
Fore
SplineSet
534 0 m 1,0,-1
 316 305 l 1,1,-1
 524 521 l 1,2,-1
 429 521 l 1,3,-1
 159 253 l 1,4,-1
 159 730 l 1,5,-1
 71 730 l 1,6,-1
 71 0 l 1,7,-1
 159 0 l 1,8,-1
 159 161 l 1,9,-1
 258 254 l 1,10,-1
 439 0 l 1,11,-1
 534 0 l 1,0,-1
EndSplineSet
EndChar

StartChar: l
Encoding: 108 108 79
Width: 286
GlyphClass: 1
Flags: W
LayerCount: 2
Fore
SplineSet
73 103 m 2,0,1
 73 51 73 51 102.5 22 c 128,-1,2
 132 -7 132 -7 183 -7 c 0,3,4
 206 -7 206 -7 236 -1 c 128,-1,5
 266 5 266 5 288 14 c 1,6,-1
 274 86 l 1,7,8
 261 81 261 81 242 76.5 c 128,-1,9
 223 72 223 72 202 72 c 0,10,11
 193 72 193 72 185.5 73.5 c 128,-1,12
 178 75 178 75 172.5 81.5 c 128,-1,13
 167 88 167 88 164 100.5 c 128,-1,14
 161 113 161 113 161 135 c 2,15,-1
 161 730 l 1,16,-1
 73 730 l 1,17,-1
 73 103 l 2,0,1
EndSplineSet
Substitution2: "'ss05' Style Set 5 lookup 33 subtable" l.ss05
Substitution2: "'aalt' Access All Alternates lookup 0 subtable" l.ss05
EndChar

StartChar: m
Encoding: 109 109 80
Width: 924
GlyphClass: 1
Flags: W
LayerCount: 2
Fore
SplineSet
858 312 m 2,0,1
 858 359 858 359 850 399 c 128,-1,2
 842 439 842 439 824 468.5 c 128,-1,3
 806 498 806 498 775.5 514.5 c 128,-1,4
 745 531 745 531 700 531 c 0,5,6
 636 531 636 531 586 499 c 128,-1,7
 536 467 536 467 501 404 c 1,8,9
 492 460 492 460 453 495.5 c 128,-1,10
 414 531 414 531 349 531 c 0,11,12
 285 531 285 531 234 499.5 c 128,-1,13
 183 468 183 468 151 410 c 1,14,-1
 151 522 l 1,15,-1
 71 522 l 1,16,-1
 71 0 l 1,17,-1
 159 0 l 1,18,-1
 159 315 l 1,19,20
 168 346 168 346 184 371 c 128,-1,21
 200 396 200 396 220.5 414 c 128,-1,22
 241 432 241 432 265.5 442 c 128,-1,23
 290 452 290 452 316 452 c 0,24,25
 368 452 368 452 394 414 c 128,-1,26
 420 376 420 376 420 292 c 2,27,-1
 420 0 l 1,28,-1
 508 0 l 1,29,-1
 508 314 l 1,30,31
 517 344 517 344 532.5 369.5 c 128,-1,32
 548 395 548 395 568.5 413.5 c 128,-1,33
 589 432 589 432 613.5 442 c 128,-1,34
 638 452 638 452 665 452 c 0,35,36
 717 452 717 452 743.5 413 c 128,-1,37
 770 374 770 374 770 292 c 2,38,-1
 770 0 l 1,39,-1
 858 0 l 1,40,-1
 858 312 l 2,0,1
EndSplineSet
EndChar

StartChar: n
Encoding: 110 110 81
Width: 590
GlyphClass: 1
Flags: W
LayerCount: 2
Fore
SplineSet
524 312 m 2,0,1
 524 359 524 359 516.5 399.5 c 128,-1,2
 509 440 509 440 491 469 c 128,-1,3
 473 498 473 498 443 514.5 c 128,-1,4
 413 531 413 531 368 531 c 0,5,6
 334 531 334 531 301.5 522.5 c 128,-1,7
 269 514 269 514 240.5 498 c 128,-1,8
 212 482 212 482 189 459.5 c 128,-1,9
 166 437 166 437 151 410 c 1,10,-1
 151 522 l 1,11,-1
 71 522 l 1,12,-1
 71 0 l 1,13,-1
 159 0 l 1,14,-1
 159 315 l 1,15,16
 168 345 168 345 186 370 c 128,-1,17
 204 395 204 395 228 413 c 128,-1,18
 252 431 252 431 279 441.5 c 128,-1,19
 306 452 306 452 333 452 c 0,20,21
 385 452 385 452 410.5 414 c 128,-1,22
 436 376 436 376 436 292 c 2,23,-1
 436 0 l 1,24,-1
 524 0 l 1,25,-1
 524 312 l 2,0,1
EndSplineSet
EndChar

StartChar: o
Encoding: 111 111 82
Width: 599
GlyphClass: 1
Flags: W
LayerCount: 2
Fore
SplineSet
299 -10 m 256,0,1
 358 -10 358 -10 406.5 12 c 128,-1,2
 455 34 455 34 490 71 c 128,-1,3
 525 108 525 108 544 157 c 128,-1,4
 563 206 563 206 563 260 c 0,5,6
 563 315 563 315 543.5 364 c 128,-1,7
 524 413 524 413 489.5 450 c 128,-1,8
 455 487 455 487 406.5 509 c 128,-1,9
 358 531 358 531 299 531 c 0,10,11
 241 531 241 531 192.5 509 c 128,-1,12
 144 487 144 487 109.5 450 c 128,-1,13
 75 413 75 413 55.5 364 c 128,-1,14
 36 315 36 315 36 260 c 0,15,16
 36 206 36 206 55 157 c 128,-1,17
 74 108 74 108 108.5 71 c 128,-1,18
 143 34 143 34 191.5 12 c 128,-1,19
 240 -10 240 -10 299 -10 c 256,0,1
126 259 m 256,20,21
 126 300 126 300 139.5 335.5 c 128,-1,22
 153 371 153 371 176.5 397.5 c 128,-1,23
 200 424 200 424 231.5 439.5 c 128,-1,24
 263 455 263 455 299 455 c 256,25,26
 335 455 335 455 366.5 440 c 128,-1,27
 398 425 398 425 422 398.5 c 128,-1,28
 446 372 446 372 459.5 337 c 128,-1,29
 473 302 473 302 473 261 c 256,30,31
 473 220 473 220 459.5 184.5 c 128,-1,32
 446 149 446 149 422 122.5 c 128,-1,33
 398 96 398 96 366.5 81 c 128,-1,34
 335 66 335 66 299 66 c 256,35,36
 263 66 263 66 231.5 81 c 128,-1,37
 200 96 200 96 176.5 122 c 128,-1,38
 153 148 153 148 139.5 183 c 128,-1,39
 126 218 126 218 126 259 c 256,20,21
EndSplineSet
Substitution2: "Single Substitution lookup 45 subtable" ordmasculine
Substitution2: "'aalt' Access All Alternates lookup 0 subtable" ordmasculine
EndChar

StartChar: p
Encoding: 112 112 83
Width: 623
GlyphClass: 1
Flags: W
LayerCount: 2
Fore
SplineSet
352 -10 m 0,0,1
 404 -10 404 -10 447 11.5 c 128,-1,2
 490 33 490 33 521 69.5 c 128,-1,3
 552 106 552 106 569 155.5 c 128,-1,4
 586 205 586 205 586 261 c 0,5,6
 586 314 586 314 567.5 363 c 128,-1,7
 549 412 549 412 516 449.5 c 128,-1,8
 483 487 483 487 438 509 c 128,-1,9
 393 531 393 531 339 531 c 0,10,11
 279 531 279 531 229.5 501.5 c 128,-1,12
 180 472 180 472 149 424 c 1,13,-1
 149 522 l 1,14,-1
 71 522 l 1,15,-1
 71 -213 l 1,16,-1
 159 -213 l 1,17,-1
 159 103 l 1,18,19
 174 79 174 79 193.5 58 c 128,-1,20
 213 37 213 37 237.5 22 c 128,-1,21
 262 7 262 7 291 -1.5 c 128,-1,22
 320 -10 320 -10 352 -10 c 0,0,1
325 66 m 0,23,24
 298 66 298 66 273 75.5 c 128,-1,25
 248 85 248 85 226.5 101.5 c 128,-1,26
 205 118 205 118 187.5 140.5 c 128,-1,27
 170 163 170 163 159 189 c 1,28,-1
 159 338 l 1,29,30
 164 362 164 362 180.5 383.5 c 128,-1,31
 197 405 197 405 219.5 420.5 c 128,-1,32
 242 436 242 436 267.5 445.5 c 128,-1,33
 293 455 293 455 317 455 c 0,34,35
 355 455 355 455 387.5 439.5 c 128,-1,36
 420 424 420 424 444 397.5 c 128,-1,37
 468 371 468 371 482 335.5 c 128,-1,38
 496 300 496 300 496 261 c 0,39,40
 496 224 496 224 484 189 c 128,-1,41
 472 154 472 154 449.5 126.5 c 128,-1,42
 427 99 427 99 395.5 82.5 c 128,-1,43
 364 66 364 66 325 66 c 0,23,24
EndSplineSet
EndChar

StartChar: q
Encoding: 113 113 84
Width: 623
GlyphClass: 1
Flags: W
LayerCount: 2
Fore
SplineSet
271 -10 m 0,0,1
 331 -10 331 -10 380 18.5 c 128,-1,2
 429 47 429 47 464 103 c 1,3,-1
 464 -213 l 1,4,-1
 552 -213 l 1,5,-1
 552 522 l 1,6,-1
 474 522 l 1,7,-1
 474 423 l 1,8,9
 459 447 459 447 439 466.5 c 128,-1,10
 419 486 419 486 394.5 500.5 c 128,-1,11
 370 515 370 515 342 523 c 128,-1,12
 314 531 314 531 284 531 c 0,13,14
 232 531 232 531 187 509.5 c 128,-1,15
 142 488 142 488 108.5 451 c 128,-1,16
 75 414 75 414 56 365 c 128,-1,17
 37 316 37 316 37 261 c 0,18,19
 37 207 37 207 54 158 c 128,-1,20
 71 109 71 109 102 71.5 c 128,-1,21
 133 34 133 34 176 12 c 128,-1,22
 219 -10 219 -10 271 -10 c 0,0,1
301 66 m 0,23,24
 263 66 263 66 231 81.5 c 128,-1,25
 199 97 199 97 176 123 c 128,-1,26
 153 149 153 149 140 184.5 c 128,-1,27
 127 220 127 220 127 259 c 0,28,29
 127 296 127 296 140 331.5 c 128,-1,30
 153 367 153 367 176.5 394.5 c 128,-1,31
 200 422 200 422 232 438.5 c 128,-1,32
 264 455 264 455 303 455 c 0,33,34
 329 455 329 455 355.5 444.5 c 128,-1,35
 382 434 382 434 404.5 417 c 128,-1,36
 427 400 427 400 443.5 377 c 128,-1,37
 460 354 460 354 464 328 c 1,38,-1
 464 178 l 1,39,40
 451 155 451 155 434.5 134.5 c 128,-1,41
 418 114 418 114 397.5 99 c 128,-1,42
 377 84 377 84 353 75 c 128,-1,43
 329 66 329 66 301 66 c 0,23,24
EndSplineSet
Substitution2: "'ss06' Style Set 6 lookup 34 subtable" q.ss06
Substitution2: "'aalt' Access All Alternates lookup 0 subtable" q.ss06
EndChar

StartChar: r
Encoding: 114 114 85
Width: 363
GlyphClass: 1
Flags: W
LayerCount: 2
Fore
SplineSet
347 525 m 1,0,1
 342 526 342 526 335 526 c 128,-1,2
 328 526 328 526 318 526 c 0,3,4
 268 522 268 522 224 488.5 c 128,-1,5
 180 455 180 455 153 401 c 1,6,-1
 153 522 l 1,7,-1
 71 522 l 1,8,-1
 71 0 l 1,9,-1
 159 0 l 1,10,-1
 159 322 l 1,11,12
 180 379 180 379 230.5 411 c 128,-1,13
 281 443 281 443 347 445 c 1,14,-1
 347 525 l 1,0,1
EndSplineSet
EndChar

StartChar: s
Encoding: 115 115 86
Width: 488
GlyphClass: 1
Flags: W
LayerCount: 2
Fore
SplineSet
250 -10 m 0,0,1
 296 -10 296 -10 333.5 0.5 c 128,-1,2
 371 11 371 11 398 31.5 c 128,-1,3
 425 52 425 52 439.5 81 c 128,-1,4
 454 110 454 110 454 147 c 0,5,6
 454 183 454 183 440 206.5 c 128,-1,7
 426 230 426 230 400.5 246.5 c 128,-1,8
 375 263 375 263 339.5 275 c 128,-1,9
 304 287 304 287 260 300 c 0,10,11
 231 309 231 309 209 316.5 c 128,-1,12
 187 324 187 324 172 333 c 128,-1,13
 157 342 157 342 149.5 354.5 c 128,-1,14
 142 367 142 367 142 386 c 0,15,16
 142 408 142 408 152 422.5 c 128,-1,17
 162 437 162 437 178 446 c 128,-1,18
 194 455 194 455 214 458.5 c 128,-1,19
 234 462 234 462 255 462 c 0,20,21
 301 462 301 462 338 446.5 c 128,-1,22
 375 431 375 431 406 399 c 1,23,-1
 446 460 l 1,24,25
 412 495 412 495 365 513 c 128,-1,26
 318 531 318 531 260 531 c 0,27,28
 216 531 216 531 179 520.5 c 128,-1,29
 142 510 142 510 115.5 490.5 c 128,-1,30
 89 471 89 471 74 442 c 128,-1,31
 59 413 59 413 59 376 c 0,32,33
 59 345 59 345 70 322.5 c 128,-1,34
 81 300 81 300 102 283 c 128,-1,35
 123 266 123 266 154 253.5 c 128,-1,36
 185 241 185 241 225 229 c 0,37,38
 258 220 258 220 284.5 213 c 128,-1,39
 311 206 311 206 329.5 197 c 128,-1,40
 348 188 348 188 358 175 c 128,-1,41
 368 162 368 162 368 141 c 0,42,43
 368 101 368 101 334 80.5 c 128,-1,44
 300 60 300 60 246 60 c 0,45,46
 198 60 198 60 153.5 78 c 128,-1,47
 109 96 109 96 64 138 c 1,48,-1
 30 76 l 1,49,50
 72 33 72 33 128 11.5 c 128,-1,51
 184 -10 184 -10 250 -10 c 0,0,1
EndSplineSet
EndChar

StartChar: t
Encoding: 116 116 87
Width: 352
GlyphClass: 1
Flags: W
LayerCount: 2
Fore
SplineSet
320 96 m 1,0,1
 316 94 316 94 308.5 90 c 128,-1,2
 301 86 301 86 291 82.5 c 128,-1,3
 281 79 281 79 268.5 76.5 c 128,-1,4
 256 74 256 74 243 74 c 0,5,6
 220 74 220 74 203 87 c 128,-1,7
 186 100 186 100 184 129 c 2,8,-1
 184 453 l 1,9,-1
 301 453 l 1,10,-1
 301 522 l 1,11,-1
 184 522 l 1,12,-1
 184 696 l 1,13,-1
 96 696 l 1,14,-1
 96 522 l 1,15,-1
 25 522 l 1,16,-1
 25 453 l 1,17,-1
 96 453 l 1,18,-1
 96 102 l 2,19,20
 96 74 96 74 105.5 53.5 c 128,-1,21
 115 33 115 33 131 19.5 c 128,-1,22
 147 6 147 6 168.5 -0.5 c 128,-1,23
 190 -7 190 -7 214 -7 c 0,24,25
 235 -7 235 -7 254.5 -3 c 128,-1,26
 274 1 274 1 290.5 6 c 128,-1,27
 307 11 307 11 320 16.5 c 128,-1,28
 333 22 333 22 341 26 c 1,29,-1
 320 96 l 1,0,1
EndSplineSet
Substitution2: "'ss07' Style Set 7 lookup 35 subtable" t.ss07
Substitution2: "'aalt' Access All Alternates lookup 0 subtable" t.ss07
EndChar

StartChar: u
Encoding: 117 117 88
Width: 596
GlyphClass: 1
Flags: W
LayerCount: 2
Fore
SplineSet
525 0 m 1,0,-1
 525 522 l 1,1,-1
 437 522 l 1,2,-1
 437 195 l 1,3,4
 427 168 427 168 409.5 144 c 128,-1,5
 392 120 392 120 370 103 c 128,-1,6
 348 86 348 86 322 76 c 128,-1,7
 296 66 296 66 269 66 c 0,8,9
 235 66 235 66 212.5 78.5 c 128,-1,10
 190 91 190 91 177 112.5 c 128,-1,11
 164 134 164 134 159 163.5 c 128,-1,12
 154 193 154 193 154 226 c 2,13,-1
 154 522 l 1,14,-1
 66 522 l 1,15,-1
 66 209 l 2,16,17
 66 164 66 164 74 124 c 128,-1,18
 82 84 82 84 101.5 54 c 128,-1,19
 121 24 121 24 154.5 7 c 128,-1,20
 188 -10 188 -10 238 -10 c 0,21,22
 269 -10 269 -10 298.5 -2 c 128,-1,23
 328 6 328 6 354.5 21 c 128,-1,24
 381 36 381 36 403 57.5 c 128,-1,25
 425 79 425 79 440 107 c 1,26,-1
 440 0 l 1,27,-1
 525 0 l 1,0,-1
EndSplineSet
Substitution2: "'ss08' Style Set 8 lookup 36 subtable" u.ss08
Substitution2: "'aalt' Access All Alternates lookup 0 subtable" u.ss08
EndChar

StartChar: v
Encoding: 118 118 89
Width: 539
GlyphClass: 1
Flags: W
LayerCount: 2
Fore
SplineSet
317 0 m 1,0,-1
 522 522 l 1,1,-1
 436 522 l 1,2,-1
 272 84 l 1,3,-1
 108 522 l 1,4,-1
 16 522 l 1,5,-1
 221 0 l 1,6,-1
 317 0 l 1,0,-1
EndSplineSet
EndChar

StartChar: w
Encoding: 119 119 90
Width: 842
GlyphClass: 1
Flags: W
LayerCount: 2
Fore
SplineSet
18 522 m 1,0,-1
 201 0 l 1,1,-1
 294 0 l 1,2,-1
 421 387 l 1,3,-1
 547 0 l 1,4,-1
 641 0 l 1,5,-1
 823 522 l 1,6,-1
 732 522 l 1,7,-1
 591 108 l 1,8,-1
 463 522 l 1,9,-1
 379 522 l 1,10,-1
 251 108 l 1,11,-1
 110 522 l 1,12,-1
 18 522 l 1,0,-1
EndSplineSet
Substitution2: "'ss09' Style Set 9 lookup 37 subtable" w.ss09
Substitution2: "'aalt' Access All Alternates lookup 0 subtable" w.ss09
EndChar

StartChar: x
Encoding: 120 120 91
Width: 513
GlyphClass: 1
Flags: W
LayerCount: 2
Fore
SplineSet
13 522 m 1,0,-1
 206 260 l 1,1,-1
 12 0 l 1,2,-1
 110 0 l 1,3,-1
 248 191 l 1,4,-1
 256 206 l 1,5,-1
 265 191 l 1,6,-1
 403 0 l 1,7,-1
 501 0 l 1,8,-1
 307 260 l 1,9,-1
 500 522 l 1,10,-1
 402 522 l 1,11,-1
 265 330 l 1,12,-1
 256 314 l 1,13,-1
 248 330 l 1,14,-1
 110 522 l 1,15,-1
 13 522 l 1,0,-1
EndSplineSet
EndChar

StartChar: y
Encoding: 121 121 92
Width: 547
GlyphClass: 1
Flags: W
LayerCount: 2
Fore
SplineSet
444 522 m 1,0,-1
 281 79 l 1,1,-1
 104 522 l 1,2,-1
 12 522 l 1,3,-1
 233 0 l 1,4,-1
 147 -213 l 1,5,-1
 247 -213 l 1,6,-1
 528 522 l 1,7,-1
 444 522 l 1,0,-1
EndSplineSet
Substitution2: "'ss10' Style Set 10 lookup 38 subtable" y.ss10
Substitution2: "'aalt' Access All Alternates lookup 0 subtable" y.ss10
EndChar

StartChar: z
Encoding: 122 122 93
Width: 493
GlyphClass: 1
Flags: W
LayerCount: 2
Fore
SplineSet
30 0 m 1,0,-1
 459 0 l 1,1,-1
 459 64 l 1,2,-1
 131 64 l 1,3,-1
 458 465 l 1,4,-1
 458 522 l 1,5,-1
 39 522 l 1,6,-1
 39 458 l 1,7,-1
 359 458 l 1,8,-1
 30 57 l 1,9,-1
 30 0 l 1,0,-1
EndSplineSet
EndChar

StartChar: braceleft
Encoding: 123 123 94
Width: 271
GlyphClass: 1
Flags: W
LayerCount: 2
Fore
SplineSet
224 668 m 1,0,-1
 224 740 l 1,1,-1
 112 740 l 2,2,3
 107 740 107 740 98 734.5 c 128,-1,4
 89 729 89 729 89 710 c 2,5,-1
 89 450 l 2,6,7
 89 443 89 443 86.5 433 c 128,-1,8
 84 423 84 423 78.5 414 c 128,-1,9
 73 405 73 405 65.5 399 c 128,-1,10
 58 393 58 393 47 393 c 1,11,-1
 47 329 l 1,12,13
 66 326 66 326 77.5 309 c 128,-1,14
 89 292 89 292 89 270 c 2,15,-1
 89 -1 l 2,16,17
 89 -18 89 -18 96.5 -24.5 c 128,-1,18
 104 -31 104 -31 112 -31 c 2,19,-1
 224 -31 l 1,20,-1
 224 41 l 1,21,-1
 169 41 l 1,22,-1
 169 296 l 2,23,24
 169 310 169 310 162 328 c 128,-1,25
 155 346 155 346 140 360 c 1,26,27
 156 374 156 374 162.5 392 c 128,-1,28
 169 410 169 410 169 424 c 2,29,-1
 169 668 l 1,30,-1
 224 668 l 1,0,-1
EndSplineSet
EndChar

StartChar: bar
Encoding: 124 124 95
Width: 240
GlyphClass: 1
Flags: W
LayerCount: 2
Fore
SplineSet
158 -130 m 1,0,-1
 158 775 l 1,1,-1
 82 775 l 1,2,-1
 82 -130 l 1,3,-1
 158 -130 l 1,0,-1
EndSplineSet
EndChar

StartChar: braceright
Encoding: 125 125 96
Width: 271
GlyphClass: 1
Flags: W
LayerCount: 2
Fore
SplineSet
102 668 m 1,0,-1
 102 424 l 2,1,2
 102 410 102 410 108.5 392 c 128,-1,3
 115 374 115 374 131 360 c 1,4,5
 115 346 115 346 108.5 328 c 128,-1,6
 102 310 102 310 102 296 c 2,7,-1
 102 41 l 1,8,-1
 47 41 l 1,9,-1
 47 -31 l 1,10,-1
 159 -31 l 2,11,12
 166 -31 166 -31 174 -24.5 c 128,-1,13
 182 -18 182 -18 182 -1 c 2,14,-1
 182 270 l 2,15,16
 182 292 182 292 193 309 c 128,-1,17
 204 326 204 326 224 329 c 1,18,-1
 224 393 l 1,19,20
 214 393 214 393 206 399 c 128,-1,21
 198 405 198 405 192.5 414 c 128,-1,22
 187 423 187 423 184.5 433 c 128,-1,23
 182 443 182 443 182 450 c 2,24,-1
 182 710 l 2,25,26
 182 729 182 729 173 734.5 c 128,-1,27
 164 740 164 740 159 740 c 2,28,-1
 47 740 l 1,29,-1
 47 668 l 1,30,-1
 102 668 l 1,0,-1
EndSplineSet
EndChar

StartChar: asciitilde
Encoding: 126 126 97
Width: 532
GlyphClass: 1
Flags: W
LayerCount: 2
Fore
SplineSet
65 237 m 1,0,-1
 117 237 l 1,1,2
 117 238 117 238 120 246.5 c 128,-1,3
 123 255 123 255 130.5 265.5 c 128,-1,4
 138 276 138 276 150.5 284.5 c 128,-1,5
 163 293 163 293 181 293 c 0,6,7
 200 293 200 293 218.5 284.5 c 128,-1,8
 237 276 237 276 257 265.5 c 128,-1,9
 277 255 277 255 299 246 c 128,-1,10
 321 237 321 237 346 237 c 0,11,12
 381 237 381 237 404.5 252.5 c 128,-1,13
 428 268 428 268 442 287.5 c 128,-1,14
 456 307 456 307 462 324 c 128,-1,15
 468 341 468 341 468 344 c 1,16,-1
 416 344 l 1,17,18
 416 342 416 342 412.5 333.5 c 128,-1,19
 409 325 409 325 401 316 c 128,-1,20
 393 307 393 307 380 299.5 c 128,-1,21
 367 292 367 292 347 292 c 0,22,23
 326 292 326 292 306.5 301 c 128,-1,24
 287 310 287 310 267.5 320.5 c 128,-1,25
 248 331 248 331 227 340 c 128,-1,26
 206 349 206 349 182 349 c 0,27,28
 149 349 149 349 127 334 c 128,-1,29
 105 319 105 319 91 299.5 c 128,-1,30
 77 280 77 280 71 261.5 c 128,-1,31
 65 243 65 243 65 237 c 1,0,-1
EndSplineSet
EndChar

StartChar: exclamdown
Encoding: 161 161 99
Width: 262
GlyphClass: 1
Flags: W
LayerCount: 2
Fore
SplineSet
193 467 m 256,0,1
 193 480 193 480 188 491 c 128,-1,2
 183 502 183 502 174.5 510.5 c 128,-1,3
 166 519 166 519 155 524 c 128,-1,4
 144 529 144 529 131 529 c 256,5,6
 118 529 118 529 107 524 c 128,-1,7
 96 519 96 519 87.5 510.5 c 128,-1,8
 79 502 79 502 74 491 c 128,-1,9
 69 480 69 480 69 467 c 256,10,11
 69 454 69 454 74 443 c 128,-1,12
 79 432 79 432 87.5 424 c 128,-1,13
 96 416 96 416 107 411 c 128,-1,14
 118 406 118 406 131 406 c 256,15,16
 144 406 144 406 155 411 c 128,-1,17
 166 416 166 416 174.5 424 c 128,-1,18
 183 432 183 432 188 443 c 128,-1,19
 193 454 193 454 193 467 c 256,0,1
102 279 m 1,20,-1
 87 19 l 1,21,-1
 87 -198 l 1,22,-1
 175 -198 l 1,23,-1
 175 19 l 1,24,-1
 160 279 l 1,25,-1
 102 279 l 1,20,-1
EndSplineSet
EndChar

StartChar: cent
Encoding: 162 162 100
Width: 570
GlyphClass: 1
Flags: W
LayerCount: 2
Fore
SplineSet
320 -120 m 1,0,-1
 320 -10 l 1,1,2
 347 -10 347 -10 378.5 -2 c 128,-1,3
 410 6 410 6 440 22.5 c 128,-1,4
 470 39 470 39 494.5 63.5 c 128,-1,5
 519 88 519 88 532 121 c 1,6,-1
 446 147 l 1,7,8
 441 130 441 130 427 116 c 128,-1,9
 413 102 413 102 395 92 c 128,-1,10
 377 82 377 82 357.5 76 c 128,-1,11
 338 70 338 70 320 68 c 1,12,-1
 320 452 l 1,13,14
 358 450 358 450 390 431.5 c 128,-1,15
 422 413 422 413 442 377 c 1,16,-1
 527 404 l 1,17,18
 498 462 498 462 445.5 495 c 128,-1,19
 393 528 393 528 320 530 c 1,20,-1
 320 645 l 1,21,-1
 276 645 l 1,22,-1
 276 530 l 1,23,24
 221 524 221 524 177.5 499.5 c 128,-1,25
 134 475 134 475 104 438.5 c 128,-1,26
 74 402 74 402 58 355.5 c 128,-1,27
 42 309 42 309 42 258 c 0,28,29
 42 210 42 210 59.5 164 c 128,-1,30
 77 118 77 118 108 81 c 128,-1,31
 139 44 139 44 182 19.5 c 128,-1,32
 225 -5 225 -5 276 -9 c 1,33,-1
 276 -120 l 1,34,-1
 320 -120 l 1,0,-1
132 258 m 256,35,36
 132 291 132 291 141.5 323.5 c 128,-1,37
 151 356 151 356 169.5 382.5 c 128,-1,38
 188 409 188 409 215 427 c 128,-1,39
 242 445 242 445 276 449 c 1,40,-1
 276 72 l 1,41,42
 245 78 245 78 218.5 95.5 c 128,-1,43
 192 113 192 113 172.5 138 c 128,-1,44
 153 163 153 163 142.5 194 c 128,-1,45
 132 225 132 225 132 258 c 256,35,36
EndSplineSet
EndChar

StartChar: sterling
Encoding: 163 163 101
Width: 512
GlyphClass: 1
Flags: W
LayerCount: 2
Fore
SplineSet
53 307 m 1,0,-1
 402 307 l 1,1,-1
 402 375 l 1,2,-1
 53 375 l 1,3,-1
 53 307 l 1,0,-1
75 -8 m 1,4,5
 102 0 102 0 133 5 c 128,-1,6
 164 10 164 10 189 10 c 0,7,8
 212 10 212 10 233.5 6 c 128,-1,9
 255 2 255 2 276 -2.5 c 128,-1,10
 297 -7 297 -7 318 -11 c 128,-1,11
 339 -15 339 -15 361 -15 c 0,12,13
 389 -15 389 -15 417.5 -8 c 128,-1,14
 446 -1 446 -1 472 12 c 1,15,-1
 450 79 l 1,16,17
 424 70 424 70 404.5 65.5 c 128,-1,18
 385 61 385 61 365 61 c 0,19,20
 347 61 347 61 330.5 64 c 128,-1,21
 314 67 314 67 297.5 70 c 128,-1,22
 281 73 281 73 263 76 c 128,-1,23
 245 79 245 79 225 79 c 0,24,25
 207 79 207 79 189 76.5 c 128,-1,26
 171 74 171 74 151 69 c 1,27,28
 178 98 178 98 196.5 123 c 128,-1,29
 215 148 215 148 227 171 c 128,-1,30
 239 194 239 194 244 217 c 128,-1,31
 249 240 249 240 249 264 c 0,32,33
 249 309 249 309 235 345 c 128,-1,34
 221 381 221 381 203.5 413 c 128,-1,35
 186 445 186 445 172 474.5 c 128,-1,36
 158 504 158 504 158 535 c 0,37,38
 158 558 158 558 166 577.5 c 128,-1,39
 174 597 174 597 188.5 611 c 128,-1,40
 203 625 203 625 222.5 633.5 c 128,-1,41
 242 642 242 642 264 642 c 0,42,43
 304 642 304 642 343 618.5 c 128,-1,44
 382 595 382 595 406 556 c 1,45,-1
 455 610 l 1,46,47
 423 659 423 659 373 687 c 128,-1,48
 323 715 323 715 266 715 c 0,49,50
 227 715 227 715 192.5 701.5 c 128,-1,51
 158 688 158 688 132.5 664.5 c 128,-1,52
 107 641 107 641 92 609.5 c 128,-1,53
 77 578 77 578 77 542 c 0,54,55
 77 505 77 505 92 472 c 128,-1,56
 107 439 107 439 124.5 406 c 128,-1,57
 142 373 142 373 157 337.5 c 128,-1,58
 172 302 172 302 172 260 c 0,59,60
 172 236 172 236 165.5 212.5 c 128,-1,61
 159 189 159 189 145 164 c 128,-1,62
 131 139 131 139 108 112.5 c 128,-1,63
 85 86 85 86 53 56 c 1,64,-1
 75 -8 l 1,4,5
EndSplineSet
EndChar

StartChar: currency
Encoding: 164 164 102
Width: 538
GlyphClass: 1
Flags: W
LayerCount: 2
Fore
SplineSet
89 558 m 1,0,-1
 48 517 l 1,1,-1
 119 445 l 1,2,3
 103 422 103 422 95 394.5 c 128,-1,4
 87 367 87 367 87 337 c 256,5,6
 87 307 87 307 95.5 279.5 c 128,-1,7
 104 252 104 252 120 229 c 1,8,-1
 48 157 l 1,9,-1
 84 121 l 1,10,-1
 157 190 l 1,11,12
 180 173 180 173 208 163.5 c 128,-1,13
 236 154 236 154 269 154 c 256,14,15
 302 154 302 154 330 163.5 c 128,-1,16
 358 173 358 173 380 190 c 1,17,-1
 454 121 l 1,18,-1
 490 157 l 1,19,-1
 417 229 l 1,20,21
 434 252 434 252 442.5 279.5 c 128,-1,22
 451 307 451 307 451 337 c 256,23,24
 451 367 451 367 442.5 394.5 c 128,-1,25
 434 422 434 422 418 445 c 1,26,-1
 490 517 l 1,27,-1
 449 558 l 1,28,-1
 378 486 l 1,29,30
 355 503 355 503 328 512 c 128,-1,31
 301 521 301 521 269 521 c 256,32,33
 237 521 237 521 209.5 512 c 128,-1,34
 182 503 182 503 160 486 c 1,35,-1
 89 558 l 1,0,-1
159 336 m 0,36,37
 159 362 159 362 167.5 384.5 c 128,-1,38
 176 407 176 407 191 423.5 c 128,-1,39
 206 440 206 440 226 449.5 c 128,-1,40
 246 459 246 459 269 459 c 256,41,42
 292 459 292 459 312 450 c 128,-1,43
 332 441 332 441 347 424.5 c 128,-1,44
 362 408 362 408 370.5 386 c 128,-1,45
 379 364 379 364 379 338 c 256,46,47
 379 312 379 312 370.5 289.5 c 128,-1,48
 362 267 362 267 347 250.5 c 128,-1,49
 332 234 332 234 312 224.5 c 128,-1,50
 292 215 292 215 269 215 c 256,51,52
 246 215 246 215 226 224.5 c 128,-1,53
 206 234 206 234 191 250 c 128,-1,54
 176 266 176 266 167.5 288.5 c 128,-1,55
 159 311 159 311 159 336 c 0,36,37
EndSplineSet
EndChar

StartChar: yen
Encoding: 165 165 103
Width: 687
GlyphClass: 1
Flags: W
LayerCount: 2
Fore
SplineSet
658 710 m 1,0,-1
 559 710 l 1,1,-1
 342 340 l 1,2,-1
 127 710 l 1,3,-1
 29 710 l 1,4,-1
 233 377 l 1,5,-1
 150 377 l 1,6,-1
 150 317 l 1,7,-1
 265 317 l 1,8,-1
 297 261 l 1,9,-1
 297 231 l 1,10,-1
 150 231 l 1,11,-1
 150 171 l 1,12,-1
 297 171 l 1,13,-1
 297 0 l 1,14,-1
 387 0 l 1,15,-1
 387 171 l 1,16,-1
 536 171 l 1,17,-1
 536 231 l 1,18,-1
 387 231 l 1,19,-1
 387 259 l 1,20,-1
 421 317 l 1,21,-1
 535 317 l 1,22,-1
 535 377 l 1,23,-1
 454 377 l 1,24,-1
 658 710 l 1,0,-1
EndSplineSet
EndChar

StartChar: brokenbar
Encoding: 166 166 104
Width: 242
GlyphClass: 1
Flags: W
LayerCount: 2
Fore
SplineSet
83 273 m 1,0,-1
 83 -130 l 1,1,-1
 159 -130 l 1,2,-1
 159 273 l 1,3,-1
 83 273 l 1,0,-1
83 775 m 1,4,-1
 83 372 l 1,5,-1
 159 372 l 1,6,-1
 159 775 l 1,7,-1
 83 775 l 1,4,-1
EndSplineSet
EndChar

StartChar: section
Encoding: 167 167 105
Width: 517
GlyphClass: 1
Flags: W
LayerCount: 2
Fore
SplineSet
430 201 m 1,0,1
 441 214 441 214 449.5 237.5 c 128,-1,2
 458 261 458 261 458 290 c 0,3,4
 458 334 458 334 439.5 364 c 128,-1,5
 421 394 421 394 392 413 c 128,-1,6
 363 432 363 432 326 440.5 c 128,-1,7
 289 449 289 449 253 449 c 0,8,9
 228 449 228 449 206.5 453.5 c 128,-1,10
 185 458 185 458 169.5 468.5 c 128,-1,11
 154 479 154 479 145 496.5 c 128,-1,12
 136 514 136 514 136 539 c 0,13,14
 136 562 136 562 145.5 579.5 c 128,-1,15
 155 597 155 597 171.5 610 c 128,-1,16
 188 623 188 623 209 629.5 c 128,-1,17
 230 636 230 636 252 636 c 0,18,19
 270 636 270 636 287.5 633 c 128,-1,20
 305 630 305 630 321 623 c 128,-1,21
 337 616 337 616 350.5 605 c 128,-1,22
 364 594 364 594 372 579 c 1,23,-1
 440 611 l 1,24,25
 428 629 428 629 411 647.5 c 128,-1,26
 394 666 394 666 370.5 681 c 128,-1,27
 347 696 347 696 316.5 705.5 c 128,-1,28
 286 715 286 715 247 715 c 256,29,30
 208 715 208 715 172 701.5 c 128,-1,31
 136 688 136 688 108.5 664.5 c 128,-1,32
 81 641 81 641 64 608.5 c 128,-1,33
 47 576 47 576 47 538 c 0,34,35
 47 498 47 498 61.5 468 c 128,-1,36
 76 438 76 438 95 423 c 1,37,38
 86 411 86 411 78.5 390 c 128,-1,39
 71 369 71 369 71 341 c 0,40,41
 71 302 71 302 85.5 272.5 c 128,-1,42
 100 243 100 243 126 222 c 128,-1,43
 152 201 152 201 188.5 189 c 128,-1,44
 225 177 225 177 270 174 c 0,45,46
 290 173 290 173 309.5 169.5 c 128,-1,47
 329 166 329 166 345.5 158 c 128,-1,48
 362 150 362 150 372 134.5 c 128,-1,49
 382 119 382 119 382 94 c 0,50,51
 382 71 382 71 371.5 52.5 c 128,-1,52
 361 34 361 34 344 21.5 c 128,-1,53
 327 9 327 9 305.5 2.5 c 128,-1,54
 284 -4 284 -4 262 -4 c 0,55,56
 222 -4 222 -4 187.5 11.5 c 128,-1,57
 153 27 153 27 118 61 c 1,58,-1
 61 7 l 1,59,60
 75 -8 75 -8 95 -25 c 128,-1,61
 115 -42 115 -42 140.5 -56 c 128,-1,62
 166 -70 166 -70 197.5 -79 c 128,-1,63
 229 -88 229 -88 265 -88 c 0,64,65
 299 -88 299 -88 335.5 -77 c 128,-1,66
 372 -66 372 -66 402.5 -43.5 c 128,-1,67
 433 -21 433 -21 453 14 c 128,-1,68
 473 49 473 49 473 97 c 0,69,70
 473 135 473 135 462 161 c 128,-1,71
 451 187 451 187 430 201 c 1,0,1
157 330 m 0,72,73
 157 347 157 347 163 363.5 c 128,-1,74
 169 380 169 380 179 390 c 1,75,76
 193 384 193 384 213.5 380.5 c 128,-1,77
 234 377 234 377 256 377 c 0,78,79
 275 377 275 377 296 372.5 c 128,-1,80
 317 368 317 368 334 358 c 128,-1,81
 351 348 351 348 362.5 331 c 128,-1,82
 374 314 374 314 374 288 c 0,83,84
 374 270 374 270 367 252.5 c 128,-1,85
 360 235 360 235 348 225 c 1,86,87
 333 231 333 231 313 233 c 128,-1,88
 293 235 293 235 272 237.5 c 128,-1,89
 251 240 251 240 230.5 244.5 c 128,-1,90
 210 249 210 249 193.5 258.5 c 128,-1,91
 177 268 177 268 167 285 c 128,-1,92
 157 302 157 302 157 330 c 0,72,73
EndSplineSet
EndChar

StartChar: copyright
Encoding: 169 169 107
Width: 836
GlyphClass: 1
Flags: W
LayerCount: 2
Fore
SplineSet
416 -7 m 0,0,1
 496 -7 496 -7 564.5 20.5 c 128,-1,2
 633 48 633 48 683 96.5 c 128,-1,3
 733 145 733 145 761 211 c 128,-1,4
 789 277 789 277 789 355 c 0,5,6
 789 432 789 432 761 498 c 128,-1,7
 733 564 733 564 683 612 c 128,-1,8
 633 660 633 660 564.5 687.5 c 128,-1,9
 496 715 496 715 416 715 c 0,10,11
 337 715 337 715 269 687.5 c 128,-1,12
 201 660 201 660 152 612 c 128,-1,13
 103 564 103 564 75 498 c 128,-1,14
 47 432 47 432 47 355 c 0,15,16
 47 277 47 277 75 211 c 128,-1,17
 103 145 103 145 152 96.5 c 128,-1,18
 201 48 201 48 269 20.5 c 128,-1,19
 337 -7 337 -7 416 -7 c 0,0,1
416 37 m 256,20,21
 347 37 347 37 287.5 61.5 c 128,-1,22
 228 86 228 86 185 128.5 c 128,-1,23
 142 171 142 171 117.5 229 c 128,-1,24
 93 287 93 287 93 354 c 0,25,26
 93 422 93 422 117.5 479.5 c 128,-1,27
 142 537 142 537 185.5 580 c 128,-1,28
 229 623 229 623 288 647 c 128,-1,29
 347 671 347 671 416 671 c 0,30,31
 486 671 486 671 546 647 c 128,-1,32
 606 623 606 623 649.5 580 c 128,-1,33
 693 537 693 537 717.5 479 c 128,-1,34
 742 421 742 421 742 353 c 0,35,36
 742 283 742 283 717 225 c 128,-1,37
 692 167 692 167 648 125 c 128,-1,38
 604 83 604 83 544.5 60 c 128,-1,39
 485 37 485 37 416 37 c 256,20,21
424 121 m 0,40,41
 463 121 463 121 496.5 132 c 128,-1,42
 530 143 530 143 556 160.5 c 128,-1,43
 582 178 582 178 600 199.5 c 128,-1,44
 618 221 618 221 626 241 c 1,45,-1
 541 267 l 1,46,47
 533 251 533 251 520 238 c 128,-1,48
 507 225 507 225 490.5 216 c 128,-1,49
 474 207 474 207 456 202 c 128,-1,50
 438 197 438 197 421 197 c 0,51,52
 396 197 396 197 370 207.5 c 128,-1,53
 344 218 344 218 323 238 c 128,-1,54
 302 258 302 258 288.5 287.5 c 128,-1,55
 275 317 275 317 275 355 c 0,56,57
 275 385 275 385 284 413.5 c 128,-1,58
 293 442 293 442 311 464.5 c 128,-1,59
 329 487 329 487 356 500.5 c 128,-1,60
 383 514 383 514 419 514 c 0,61,62
 433 514 433 514 449.5 511 c 128,-1,63
 466 508 466 508 481.5 500.5 c 128,-1,64
 497 493 497 493 511.5 480 c 128,-1,65
 526 467 526 467 535 447 c 1,66,-1
 620 474 l 1,67,68
 596 530 596 530 542.5 560 c 128,-1,69
 489 590 489 590 419 590 c 0,70,71
 360 590 360 590 316 569.5 c 128,-1,72
 272 549 272 549 243 515.5 c 128,-1,73
 214 482 214 482 199.5 440 c 128,-1,74
 185 398 185 398 185 355 c 0,75,76
 185 303 185 303 204 260 c 128,-1,77
 223 217 223 217 255.5 186 c 128,-1,78
 288 155 288 155 331.5 138 c 128,-1,79
 375 121 375 121 424 121 c 0,40,41
EndSplineSet
EndChar

StartChar: ordfeminine
Encoding: 170 170 108
Width: 438
GlyphClass: 1
Flags: W
LayerCount: 2
Fore
SplineSet
165 344 m 0,0,1
 206 344 206 344 241.5 360.5 c 128,-1,2
 277 377 277 377 302 409 c 1,3,-1
 303 351 l 1,4,-1
 362 351 l 1,5,-1
 362 567 l 2,6,7
 362 637 362 637 321 674 c 128,-1,8
 280 711 280 711 208 711 c 0,9,10
 171 711 171 711 136 699.5 c 128,-1,11
 101 688 101 688 66 665 c 1,12,-1
 89 620 l 1,13,14
 119 640 119 640 146.5 650.5 c 128,-1,15
 174 661 174 661 202 661 c 0,16,17
 245 661 245 661 268 638 c 128,-1,18
 291 615 291 615 291 575 c 2,19,-1
 291 550 l 1,20,21
 271 558 271 558 246 562.5 c 128,-1,22
 221 567 221 567 195 567 c 0,23,24
 129 567 129 567 87.5 536 c 128,-1,25
 46 505 46 505 46 455 c 0,26,27
 46 431 46 431 55 411 c 128,-1,28
 64 391 64 391 80 376 c 128,-1,29
 96 361 96 361 118 352.5 c 128,-1,30
 140 344 140 344 165 344 c 0,0,1
185 397 m 0,31,32
 154 397 154 397 133.5 415.5 c 128,-1,33
 113 434 113 434 113 461 c 0,34,35
 113 490 113 490 139 507 c 128,-1,36
 165 524 165 524 207 524 c 0,37,38
 228 524 228 524 250 520.5 c 128,-1,39
 272 517 272 517 291 509 c 1,40,-1
 291 461 l 2,41,42
 291 455 291 455 288 448 c 128,-1,43
 285 441 285 441 278 435 c 0,44,45
 264 418 264 418 239 407.5 c 128,-1,46
 214 397 214 397 185 397 c 0,31,32
EndSplineSet
EndChar

StartChar: guillemotleft
Encoding: 171 171 109
Width: 596
GlyphClass: 1
Flags: W
LayerCount: 2
Fore
SplineSet
40 234 m 1,0,-1
 293 60 l 1,1,-1
 293 134 l 1,2,-1
 111 259 l 1,3,-1
 293 387 l 1,4,-1
 293 461 l 1,5,-1
 40 280 l 1,6,-1
 40 234 l 1,0,-1
282 234 m 1,7,-1
 535 60 l 1,8,-1
 535 134 l 1,9,-1
 353 259 l 1,10,-1
 535 387 l 1,11,-1
 535 461 l 1,12,-1
 282 280 l 1,13,-1
 282 234 l 1,7,-1
EndSplineSet
EndChar

StartChar: logicalnot
Encoding: 172 172 110
Width: 591
GlyphClass: 1
Flags: W
LayerCount: 2
Fore
SplineSet
67 375 m 1,0,-1
 67 295 l 1,1,-1
 445 295 l 1,2,-1
 445 120 l 1,3,-1
 521 120 l 1,4,-1
 521 375 l 1,5,-1
 67 375 l 1,0,-1
EndSplineSet
EndChar

StartChar: uni00AD
Encoding: 173 173 111
Width: 582
GlyphClass: 1
Flags: W
LayerCount: 2
Fore
SplineSet
518 233 m 1,0,-1
 518 313 l 1,1,-1
 64 313 l 1,2,-1
 64 233 l 1,3,-1
 518 233 l 1,0,-1
EndSplineSet
EndChar

StartChar: registered
Encoding: 174 174 112
Width: 836
GlyphClass: 1
Flags: W
LayerCount: 2
Fore
SplineSet
417 -7 m 256,0,1
 497 -7 497 -7 565 20.5 c 128,-1,2
 633 48 633 48 683 96.5 c 128,-1,3
 733 145 733 145 761 211 c 128,-1,4
 789 277 789 277 789 355 c 0,5,6
 789 432 789 432 761 498 c 128,-1,7
 733 564 733 564 683 612 c 128,-1,8
 633 660 633 660 565 687.5 c 128,-1,9
 497 715 497 715 417 715 c 256,10,11
 337 715 337 715 269.5 687.5 c 128,-1,12
 202 660 202 660 152.5 612 c 128,-1,13
 103 564 103 564 75 498 c 128,-1,14
 47 432 47 432 47 355 c 0,15,16
 47 277 47 277 75 211 c 128,-1,17
 103 145 103 145 152.5 96.5 c 128,-1,18
 202 48 202 48 269.5 20.5 c 128,-1,19
 337 -7 337 -7 417 -7 c 256,0,1
417 36 m 0,20,21
 347 36 347 36 288 60.5 c 128,-1,22
 229 85 229 85 186 128 c 128,-1,23
 143 171 143 171 119 229.5 c 128,-1,24
 95 288 95 288 95 355 c 256,25,26
 95 422 95 422 119 479.5 c 128,-1,27
 143 537 143 537 186 579.5 c 128,-1,28
 229 622 229 622 288 646.5 c 128,-1,29
 347 671 347 671 417 671 c 256,30,31
 487 671 487 671 546 646.5 c 128,-1,32
 605 622 605 622 648.5 579.5 c 128,-1,33
 692 537 692 537 716.5 479 c 128,-1,34
 741 421 741 421 741 354 c 0,35,36
 741 284 741 284 716 225.5 c 128,-1,37
 691 167 691 167 647.5 125 c 128,-1,38
 604 83 604 83 544.5 59.5 c 128,-1,39
 485 36 485 36 417 36 c 0,20,21
262 130 m 1,40,-1
 327 130 l 1,41,-1
 327 292 l 1,42,-1
 428 292 l 1,43,-1
 530 130 l 1,44,-1
 603 130 l 1,45,-1
 494 302 l 1,46,47
 515 307 515 307 533 320 c 128,-1,48
 551 333 551 333 563.5 350.5 c 128,-1,49
 576 368 576 368 583 390 c 128,-1,50
 590 412 590 412 590 435 c 0,51,52
 590 461 590 461 580 487 c 128,-1,53
 570 513 570 513 552 533.5 c 128,-1,54
 534 554 534 554 509 566.5 c 128,-1,55
 484 579 484 579 454 579 c 2,56,-1
 262 579 l 1,57,-1
 262 130 l 1,40,-1
327 349 m 1,58,-1
 327 520 l 1,59,-1
 448 520 l 2,60,61
 465 520 465 520 479 514 c 128,-1,62
 493 508 493 508 503.5 496.5 c 128,-1,63
 514 485 514 485 520 469.5 c 128,-1,64
 526 454 526 454 526 435 c 256,65,66
 526 416 526 416 521 400.5 c 128,-1,67
 516 385 516 385 506.5 373.5 c 128,-1,68
 497 362 497 362 483 355.5 c 128,-1,69
 469 349 469 349 451 349 c 2,70,-1
 327 349 l 1,58,-1
EndSplineSet
EndChar

StartChar: degree
Encoding: 176 176 114
Width: 272
GlyphClass: 1
Flags: W
LayerCount: 2
Fore
SplineSet
47 637 m 0,0,1
 47 598 47 598 72.5 572 c 128,-1,2
 98 546 98 546 136 546 c 256,3,4
 174 546 174 546 199.5 571.5 c 128,-1,5
 225 597 225 597 225 637 c 0,6,7
 225 674 225 674 199.5 699 c 128,-1,8
 174 724 174 724 136 724 c 256,9,10
 98 724 98 724 72.5 699 c 128,-1,11
 47 674 47 674 47 637 c 0,0,1
106 665 m 0,12,13
 112 671 112 671 119.5 674 c 128,-1,14
 127 677 127 677 136 677 c 0,15,16
 144 677 144 677 152.5 674 c 128,-1,17
 161 671 161 671 166 665 c 256,18,19
 171 659 171 659 174.5 651.5 c 128,-1,20
 178 644 178 644 178 635 c 0,21,22
 178 627 178 627 174.5 619 c 128,-1,23
 171 611 171 611 166 606 c 0,24,25
 161 600 161 600 152.5 596.5 c 128,-1,26
 144 593 144 593 136 593 c 0,27,28
 127 593 127 593 119.5 596.5 c 128,-1,29
 112 600 112 600 106 606 c 0,30,31
 101 611 101 611 97.5 619 c 128,-1,32
 94 627 94 627 94 635 c 0,33,34
 94 644 94 644 97.5 651.5 c 128,-1,35
 101 659 101 659 106 665 c 0,12,13
EndSplineSet
EndChar

StartChar: plusminus
Encoding: 177 177 115
Width: 466
GlyphClass: 1
Flags: W
LayerCount: 2
Fore
SplineSet
399 51 m 1,0,-1
 399 123 l 1,1,-1
 67 123 l 1,2,-1
 67 51 l 1,3,-1
 399 51 l 1,0,-1
273 404 m 1,4,-1
 273 540 l 1,5,-1
 193 540 l 1,6,-1
 193 404 l 1,7,-1
 67 404 l 1,8,-1
 67 332 l 1,9,-1
 193 332 l 1,10,-1
 193 196 l 1,11,-1
 273 196 l 1,12,-1
 273 332 l 1,13,-1
 399 332 l 1,14,-1
 399 404 l 1,15,-1
 273 404 l 1,4,-1
EndSplineSet
EndChar

StartChar: twosuperior
Encoding: 178 178 116
Width: 396
GlyphClass: 1
Flags: W
LayerCount: 2
Fore
SplineSet
352 400 m 1,0,-1
 352 454 l 1,1,-1
 101 454 l 1,2,3
 101 467 101 467 108 481.5 c 128,-1,4
 115 496 115 496 130 510 c 128,-1,5
 145 524 145 524 167.5 537 c 128,-1,6
 190 550 190 550 221 560 c 0,7,8
 241 566 241 566 265 575 c 128,-1,9
 289 584 289 584 310 598.5 c 128,-1,10
 331 613 331 613 345 635 c 128,-1,11
 359 657 359 657 359 688 c 0,12,13
 359 715 359 715 349.5 737.5 c 128,-1,14
 340 760 340 760 321 776.5 c 128,-1,15
 302 793 302 793 274 802 c 128,-1,16
 246 811 246 811 208 811 c 0,17,18
 171 811 171 811 141.5 803 c 128,-1,19
 112 795 112 795 90.5 784 c 128,-1,20
 69 773 69 773 56 761.5 c 128,-1,21
 43 750 43 750 38 743 c 1,22,-1
 74 704 l 1,23,24
 82 712 82 712 93.5 721.5 c 128,-1,25
 105 731 105 731 121 739 c 128,-1,26
 137 747 137 747 156.5 752 c 128,-1,27
 176 757 176 757 200 757 c 0,28,29
 248 757 248 757 272.5 737.5 c 128,-1,30
 297 718 297 718 297 689 c 0,31,32
 297 667 297 667 284.5 652 c 128,-1,33
 272 637 272 637 252.5 625.5 c 128,-1,34
 233 614 233 614 208.5 605.5 c 128,-1,35
 184 597 184 597 161 588 c 0,36,37
 128 575 128 575 104 558.5 c 128,-1,38
 80 542 80 542 64.5 520 c 128,-1,39
 49 498 49 498 41.5 468.5 c 128,-1,40
 34 439 34 439 34 400 c 1,41,-1
 352 400 l 1,0,-1
EndSplineSet
EndChar

StartChar: threesuperior
Encoding: 179 179 117
Width: 394
GlyphClass: 1
Flags: W
LayerCount: 2
Fore
SplineSet
190 394 m 0,0,1
 223 394 223 394 253 401.5 c 128,-1,2
 283 409 283 409 306.5 423 c 128,-1,3
 330 437 330 437 343.5 458.5 c 128,-1,4
 357 480 357 480 357 507 c 0,5,6
 357 546 357 546 329.5 575 c 128,-1,7
 302 604 302 604 254 611 c 1,8,9
 299 620 299 620 322.5 642 c 128,-1,10
 346 664 346 664 346 699 c 0,11,12
 346 723 346 723 334 743.5 c 128,-1,13
 322 764 322 764 300.5 779 c 128,-1,14
 279 794 279 794 250 802.5 c 128,-1,15
 221 811 221 811 187 811 c 0,16,17
 163 811 163 811 140 807 c 128,-1,18
 117 803 117 803 97 795 c 128,-1,19
 77 787 77 787 61 775.5 c 128,-1,20
 45 764 45 764 35 749 c 1,21,-1
 72 706 l 1,22,23
 88 730 88 730 117 745 c 128,-1,24
 146 760 146 760 187 760 c 0,25,26
 207 760 207 760 225 755.5 c 128,-1,27
 243 751 243 751 256.5 743 c 128,-1,28
 270 735 270 735 278.5 723 c 128,-1,29
 287 711 287 711 287 696 c 0,30,31
 287 664 287 664 251 649 c 128,-1,32
 215 634 215 634 152 634 c 2,33,-1
 129 634 l 1,34,-1
 129 583 l 1,35,-1
 152 583 l 2,36,37
 221 583 221 583 261 565.5 c 128,-1,38
 301 548 301 548 301 515 c 0,39,40
 301 485 301 485 268.5 467.5 c 128,-1,41
 236 450 236 450 189 450 c 0,42,43
 162 450 162 450 139.5 456.5 c 128,-1,44
 117 463 117 463 100.5 473.5 c 128,-1,45
 84 484 84 484 75 496 c 128,-1,46
 66 508 66 508 64 518 c 1,47,-1
 32 480 l 1,48,49
 42 440 42 440 84.5 417 c 128,-1,50
 127 394 127 394 190 394 c 0,0,1
EndSplineSet
EndChar

StartChar: uni00B5
Encoding: 181 181 119
Width: 628
GlyphClass: 1
Flags: W
LayerCount: 2
Fore
SplineSet
78 -212 m 1,0,-1
 166 -212 l 1,1,-1
 161 67 l 1,2,3
 167 51 167 51 176.5 37 c 128,-1,4
 186 23 186 23 200 12.5 c 128,-1,5
 214 2 214 2 232.5 -4 c 128,-1,6
 251 -10 251 -10 274 -10 c 0,7,8
 304 -10 304 -10 332.5 0 c 128,-1,9
 361 10 361 10 385.5 27 c 128,-1,10
 410 44 410 44 430 66 c 128,-1,11
 450 88 450 88 462 112 c 1,12,-1
 472 0 l 1,13,-1
 538 0 l 1,14,-1
 538 522 l 1,15,-1
 450 522 l 1,16,-1
 450 195 l 1,17,18
 438 165 438 165 420 141 c 128,-1,19
 402 117 402 117 379.5 100.5 c 128,-1,20
 357 84 357 84 331 75 c 128,-1,21
 305 66 305 66 279 66 c 0,22,23
 222 66 222 66 194 105.5 c 128,-1,24
 166 145 166 145 166 226 c 2,25,-1
 166 522 l 1,26,-1
 78 522 l 1,27,-1
 78 -212 l 1,0,-1
EndSplineSet
EndChar

StartChar: paragraph
Encoding: 182 182 120
Width: 618
GlyphClass: 1
Flags: W
LayerCount: 2
Fore
SplineSet
35 465 m 0,0,1
 35 410 35 410 52.5 365.5 c 128,-1,2
 70 321 70 321 102.5 290 c 128,-1,3
 135 259 135 259 181.5 242 c 128,-1,4
 228 225 228 225 285 224 c 1,5,-1
 285 -80 l 1,6,-1
 361 -80 l 1,7,-1
 361 224 l 1,8,-1
 428 224 l 1,9,-1
 428 -80 l 1,10,-1
 504 -80 l 1,11,-1
 504 642 l 1,12,-1
 574 642 l 1,13,-1
 574 710 l 1,14,-1
 317 710 l 2,15,16
 183 710 183 710 109 645.5 c 128,-1,17
 35 581 35 581 35 465 c 0,0,1
110 467 m 0,18,19
 110 547 110 547 155 593.5 c 128,-1,20
 200 640 200 640 285 642 c 1,21,-1
 285 292 l 1,22,23
 249 294 249 294 217.5 305.5 c 128,-1,24
 186 317 186 317 162 339 c 128,-1,25
 138 361 138 361 124 392.5 c 128,-1,26
 110 424 110 424 110 467 c 0,18,19
428 292 m 1,27,-1
 361 292 l 1,28,-1
 361 642 l 1,29,-1
 428 642 l 1,30,-1
 428 292 l 1,27,-1
EndSplineSet
EndChar

StartChar: onesuperior
Encoding: 185 185 123
Width: 280
GlyphClass: 1
Flags: W
LayerCount: 2
Fore
SplineSet
185 455 m 1,0,-1
 185 811 l 1,1,-1
 129 811 l 1,2,3
 129 810 129 810 120 801 c 128,-1,4
 111 792 111 792 97 782 c 128,-1,5
 83 772 83 772 66.5 763.5 c 128,-1,6
 50 755 50 755 34 755 c 1,7,-1
 34 700 l 1,8,9
 46 700 46 700 60.5 705.5 c 128,-1,10
 75 711 75 711 88.5 718.5 c 128,-1,11
 102 726 102 726 113 734.5 c 128,-1,12
 124 743 124 743 129 749 c 1,13,-1
 129 455 l 1,14,-1
 49 455 l 1,15,-1
 49 400 l 1,16,-1
 259 400 l 1,17,-1
 259 455 l 1,18,-1
 185 455 l 1,0,-1
EndSplineSet
EndChar

StartChar: ordmasculine
Encoding: 186 186 124
Width: 448
GlyphClass: 1
Flags: W
LayerCount: 2
Fore
SplineSet
224 344 m 256,0,1
 265 344 265 344 298.5 359 c 128,-1,2
 332 374 332 374 356 399 c 128,-1,3
 380 424 380 424 393 457.5 c 128,-1,4
 406 491 406 491 406 527 c 0,5,6
 406 565 406 565 393 598 c 128,-1,7
 380 631 380 631 356 656.5 c 128,-1,8
 332 682 332 682 298.5 696.5 c 128,-1,9
 265 711 265 711 224 711 c 256,10,11
 183 711 183 711 149.5 696.5 c 128,-1,12
 116 682 116 682 92 656.5 c 128,-1,13
 68 631 68 631 55 598 c 128,-1,14
 42 565 42 565 42 527 c 0,15,16
 42 491 42 491 55 457.5 c 128,-1,17
 68 424 68 424 92 399 c 128,-1,18
 116 374 116 374 149.5 359 c 128,-1,19
 183 344 183 344 224 344 c 256,0,1
114 526 m 0,20,21
 114 552 114 552 122.5 574.5 c 128,-1,22
 131 597 131 597 146 613.5 c 128,-1,23
 161 630 161 630 181 639.5 c 128,-1,24
 201 649 201 649 224 649 c 256,25,26
 247 649 247 649 267 640 c 128,-1,27
 287 631 287 631 302 614.5 c 128,-1,28
 317 598 317 598 325.5 576 c 128,-1,29
 334 554 334 554 334 528 c 256,30,31
 334 502 334 502 325.5 479.5 c 128,-1,32
 317 457 317 457 302 440.5 c 128,-1,33
 287 424 287 424 267 414.5 c 128,-1,34
 247 405 247 405 224 405 c 256,35,36
 201 405 201 405 181 414.5 c 128,-1,37
 161 424 161 424 146 440 c 128,-1,38
 131 456 131 456 122.5 478.5 c 128,-1,39
 114 501 114 501 114 526 c 0,20,21
EndSplineSet
EndChar

StartChar: guillemotright
Encoding: 187 187 125
Width: 596
GlyphClass: 1
Flags: W
LayerCount: 2
Fore
SplineSet
556 280 m 1,0,-1
 303 461 l 1,1,-1
 303 387 l 1,2,-1
 485 259 l 1,3,-1
 303 134 l 1,4,-1
 303 60 l 1,5,-1
 556 234 l 1,6,-1
 556 280 l 1,0,-1
314 280 m 1,7,-1
 61 461 l 1,8,-1
 61 387 l 1,9,-1
 243 259 l 1,10,-1
 61 134 l 1,11,-1
 61 60 l 1,12,-1
 314 234 l 1,13,-1
 314 280 l 1,7,-1
EndSplineSet
EndChar

StartChar: onehalf
Encoding: 189 189 127
Width: 834
GlyphClass: 1
Flags: W
LayerCount: 2
Fore
SplineSet
185 375 m 1,0,-1
 185 731 l 1,1,-1
 129 731 l 1,2,3
 129 730 129 730 120 721 c 128,-1,4
 111 712 111 712 97 702 c 128,-1,5
 83 692 83 692 66.5 683.5 c 128,-1,6
 50 675 50 675 34 675 c 1,7,-1
 34 620 l 1,8,9
 46 620 46 620 60.5 625.5 c 128,-1,10
 75 631 75 631 88.5 638.5 c 128,-1,11
 102 646 102 646 113 654.5 c 128,-1,12
 124 663 124 663 129 669 c 1,13,-1
 129 375 l 1,14,-1
 49 375 l 1,15,-1
 49 320 l 1,16,-1
 259 320 l 1,17,-1
 259 375 l 1,18,-1
 185 375 l 1,0,-1
110 -5 m 1,19,-1
 382 343 l 1,20,-1
 659 678 l 1,21,-1
 616 715 l 1,22,-1
 348 370 l 1,23,-1
 68 33 l 1,24,-1
 110 -5 l 1,19,-1
795 0 m 1,25,-1
 795 54 l 1,26,-1
 546 54 l 1,27,28
 546 67 546 67 553 81.5 c 128,-1,29
 560 96 560 96 574 110 c 128,-1,30
 588 124 588 124 610 137 c 128,-1,31
 632 150 632 150 662 160 c 0,32,33
 682 166 682 166 705 175 c 128,-1,34
 728 184 728 184 747.5 198.5 c 128,-1,35
 767 213 767 213 780.5 234.5 c 128,-1,36
 794 256 794 256 794 287 c 0,37,38
 794 314 794 314 785 337 c 128,-1,39
 776 360 776 360 757.5 376.5 c 128,-1,40
 739 393 739 393 712 402 c 128,-1,41
 685 411 685 411 649 411 c 256,42,43
 613 411 613 411 584.5 403 c 128,-1,44
 556 395 556 395 535.5 384 c 128,-1,45
 515 373 515 373 502.5 361.5 c 128,-1,46
 490 350 490 350 485 343 c 1,47,-1
 519 303 l 1,48,49
 527 312 527 312 538 321.5 c 128,-1,50
 549 331 549 331 564.5 339 c 128,-1,51
 580 347 580 347 599 352 c 128,-1,52
 618 357 618 357 641 357 c 0,53,54
 687 357 687 357 710.5 337.5 c 128,-1,55
 734 318 734 318 734 288 c 0,56,57
 734 266 734 266 722 251 c 128,-1,58
 710 236 710 236 691 225 c 128,-1,59
 672 214 672 214 649 205.5 c 128,-1,60
 626 197 626 197 604 188 c 0,61,62
 572 175 572 175 548.5 158.5 c 128,-1,63
 525 142 525 142 510 120 c 128,-1,64
 495 98 495 98 488 68.5 c 128,-1,65
 481 39 481 39 481 0 c 1,66,-1
 795 0 l 1,25,-1
EndSplineSet
EndChar

StartChar: questiondown
Encoding: 191 191 129
Width: 473
GlyphClass: 1
Flags: W
LayerCount: 2
Fore
SplineSet
257 295 m 1,0,1
 257 262 257 262 248.5 240 c 128,-1,2
 240 218 240 218 226.5 202.5 c 128,-1,3
 213 187 213 187 195 176 c 128,-1,4
 177 165 177 165 159 155 c 0,5,6
 134 141 134 141 111 126 c 128,-1,7
 88 111 88 111 71 91 c 128,-1,8
 54 71 54 71 43.5 44 c 128,-1,9
 33 17 33 17 33 -21 c 0,10,11
 33 -70 33 -70 50 -106 c 128,-1,12
 67 -142 67 -142 95 -166 c 128,-1,13
 123 -190 123 -190 159 -201.5 c 128,-1,14
 195 -213 195 -213 232 -213 c 0,15,16
 265 -213 265 -213 296.5 -204.5 c 128,-1,17
 328 -196 328 -196 356 -179.5 c 128,-1,18
 384 -163 384 -163 406 -139 c 128,-1,19
 428 -115 428 -115 441 -84 c 1,20,-1
 382 -45 l 1,21,22
 372 -64 372 -64 357 -81.5 c 128,-1,23
 342 -99 342 -99 323 -112 c 128,-1,24
 304 -125 304 -125 281.5 -132.5 c 128,-1,25
 259 -140 259 -140 234 -140 c 0,26,27
 210 -140 210 -140 188 -132.5 c 128,-1,28
 166 -125 166 -125 149 -110.5 c 128,-1,29
 132 -96 132 -96 121.5 -74.5 c 128,-1,30
 111 -53 111 -53 111 -25 c 0,31,32
 111 9 111 9 125.5 33.5 c 128,-1,33
 140 58 140 58 161 75.5 c 128,-1,34
 182 93 182 93 205.5 106 c 128,-1,35
 229 119 229 119 247 131 c 0,36,37
 270 146 270 146 286 163 c 128,-1,38
 302 180 302 180 312 200.5 c 128,-1,39
 322 221 322 221 326.5 244.5 c 128,-1,40
 331 268 331 268 331 295 c 1,41,-1
 257 295 l 1,0,1
349 460 m 256,42,43
 349 483 349 483 332.5 499.5 c 128,-1,44
 316 516 316 516 293 516 c 256,45,46
 270 516 270 516 253.5 499.5 c 128,-1,47
 237 483 237 483 237 460 c 256,48,49
 237 437 237 437 253.5 420.5 c 128,-1,50
 270 404 270 404 293 404 c 256,51,52
 316 404 316 404 332.5 420.5 c 128,-1,53
 349 437 349 437 349 460 c 256,42,43
EndSplineSet
EndChar

StartChar: AE
Encoding: 198 198 136
Width: 961
GlyphClass: 1
Flags: W
LayerCount: 2
Fore
SplineSet
-25 0 m 1,0,-1
 73 0 l 1,1,-1
 203 208 l 1,2,-1
 452 208 l 1,3,-1
 452 0 l 1,4,-1
 925 0 l 1,5,-1
 925 80 l 1,6,-1
 541 80 l 1,7,-1
 541 322 l 1,8,-1
 862 322 l 1,9,-1
 862 402 l 1,10,-1
 541 402 l 1,11,-1
 541 630 l 1,12,-1
 916 630 l 1,13,-1
 916 710 l 1,14,-1
 428 710 l 1,15,-1
 -25 0 l 1,0,-1
243 288 m 1,16,-1
 446 605 l 1,17,-1
 446 288 l 1,18,-1
 243 288 l 1,16,-1
EndSplineSet
EndChar

StartChar: Idieresis
Encoding: 207 207 145
Width: 260
GlyphClass: 1
Flags: W
LayerCount: 2
Fore
SplineSet
175 0 m 1,0,-1
 175 710 l 1,1,-1
 85 710 l 1,2,-1
 85 0 l 1,3,-1
 175 0 l 1,0,-1
11 862 m 256,4,5
 11 839 11 839 25 822.5 c 128,-1,6
 39 806 39 806 59 806 c 256,7,8
 79 806 79 806 93.5 822.5 c 128,-1,9
 108 839 108 839 108 862 c 256,10,11
 108 885 108 885 93.5 901.5 c 128,-1,12
 79 918 79 918 59 918 c 256,13,14
 39 918 39 918 25 901.5 c 128,-1,15
 11 885 11 885 11 862 c 256,4,5
151 862 m 256,16,17
 151 839 151 839 165.5 822.5 c 128,-1,18
 180 806 180 806 200 806 c 256,19,20
 220 806 220 806 234 822.5 c 128,-1,21
 248 839 248 839 248 862 c 256,22,23
 248 885 248 885 234 901.5 c 128,-1,24
 220 918 220 918 200 918 c 256,25,26
 180 918 180 918 165.5 901.5 c 128,-1,27
 151 885 151 885 151 862 c 256,16,17
EndSplineSet
EndChar

StartChar: Eth
Encoding: 208 208 146
Width: 722
GlyphClass: 1
Flags: W
LayerCount: 2
Fore
SplineSet
342 323 m 1,0,-1
 342 391 l 1,1,-1
 34 391 l 1,2,-1
 34 323 l 1,3,-1
 342 323 l 1,0,-1
337 0 m 2,4,5
 415 0 415 0 478.5 25.5 c 128,-1,6
 542 51 542 51 587 97.5 c 128,-1,7
 632 144 632 144 656 209.5 c 128,-1,8
 680 275 680 275 680 356 c 0,9,10
 680 430 680 430 658.5 494.5 c 128,-1,11
 637 559 637 559 594 607 c 128,-1,12
 551 655 551 655 487 682.5 c 128,-1,13
 423 710 423 710 337 710 c 2,14,-1
 91 710 l 1,15,-1
 91 0 l 1,16,-1
 337 0 l 2,4,5
589 356 m 0,17,18
 589 297 589 297 572.5 246.5 c 128,-1,19
 556 196 556 196 524.5 159 c 128,-1,20
 493 122 493 122 446 101 c 128,-1,21
 399 80 399 80 337 80 c 2,22,-1
 181 80 l 1,23,-1
 181 630 l 1,24,-1
 337 630 l 2,25,26
 397 630 397 630 444 609.5 c 128,-1,27
 491 589 491 589 523.5 553 c 128,-1,28
 556 517 556 517 572.5 466.5 c 128,-1,29
 589 416 589 416 589 356 c 0,17,18
EndSplineSet
EndChar

StartChar: multiply
Encoding: 215 215 153
Width: 464
GlyphClass: 1
Flags: W
LayerCount: 2
Fore
SplineSet
288 273 m 1,0,-1
 401 387 l 1,1,-1
 346 443 l 1,2,-1
 232 329 l 1,3,-1
 119 442 l 1,4,-1
 63 387 l 1,5,-1
 176 273 l 1,6,-1
 61 158 l 1,7,-1
 116 102 l 1,8,-1
 232 218 l 1,9,-1
 348 102 l 1,10,-1
 404 157 l 1,11,-1
 288 273 l 1,0,-1
EndSplineSet
EndChar

StartChar: Thorn
Encoding: 222 222 160
Width: 604
GlyphClass: 1
Flags: W
LayerCount: 2
Fore
SplineSet
363 573 m 2,0,-1
 175 573 l 1,1,-1
 175 710 l 1,2,-1
 85 710 l 1,3,-1
 85 0 l 1,4,-1
 175 0 l 1,5,-1
 175 118 l 1,6,-1
 369 118 l 2,7,8
 416 118 416 118 454.5 137 c 128,-1,9
 493 156 493 156 520.5 187.5 c 128,-1,10
 548 219 548 219 563 260.5 c 128,-1,11
 578 302 578 302 578 346 c 0,12,13
 578 388 578 388 562 428.5 c 128,-1,14
 546 469 546 469 517.5 501.5 c 128,-1,15
 489 534 489 534 449.5 553.5 c 128,-1,16
 410 573 410 573 363 573 c 2,0,-1
365 198 m 2,17,-1
 175 198 l 1,18,-1
 175 493 l 1,19,-1
 359 493 l 2,20,21
 385 493 385 493 408.5 481.5 c 128,-1,22
 432 470 432 470 449.5 449.5 c 128,-1,23
 467 429 467 429 477.5 402.5 c 128,-1,24
 488 376 488 376 488 346 c 0,25,26
 488 317 488 317 479.5 290.5 c 128,-1,27
 471 264 471 264 455 243.5 c 128,-1,28
 439 223 439 223 416 210.5 c 128,-1,29
 393 198 393 198 365 198 c 2,17,-1
EndSplineSet
EndChar

StartChar: germandbls
Encoding: 223 223 161
Width: 553
GlyphClass: 1
Flags: W
LayerCount: 2
Fore
SplineSet
241 -6 m 1,0,1
 301 -4 301 -4 352 10.5 c 128,-1,2
 403 25 403 25 440 51.5 c 128,-1,3
 477 78 477 78 497.5 117.5 c 128,-1,4
 518 157 518 157 518 208 c 0,5,6
 518 280 518 280 478.5 333.5 c 128,-1,7
 439 387 439 387 367 402 c 1,8,9
 388 408 388 408 406 422 c 128,-1,10
 424 436 424 436 437.5 456.5 c 128,-1,11
 451 477 451 477 459 501.5 c 128,-1,12
 467 526 467 526 467 553 c 0,13,14
 467 589 467 589 452.5 618.5 c 128,-1,15
 438 648 438 648 412.5 669.5 c 128,-1,16
 387 691 387 691 352.5 702.5 c 128,-1,17
 318 714 318 714 278 714 c 0,18,19
 233 714 233 714 195 699.5 c 128,-1,20
 157 685 157 685 129.5 659 c 128,-1,21
 102 633 102 633 86.5 597 c 128,-1,22
 71 561 71 561 71 517 c 2,23,-1
 71 0 l 1,24,-1
 155 0 l 1,25,-1
 155 503 l 2,26,27
 155 530 155 530 162 554 c 128,-1,28
 169 578 169 578 184 597 c 128,-1,29
 199 616 199 616 221.5 627 c 128,-1,30
 244 638 244 638 275 638 c 0,31,32
 296 638 296 638 315.5 632 c 128,-1,33
 335 626 335 626 350 614 c 128,-1,34
 365 602 365 602 374 583.5 c 128,-1,35
 383 565 383 565 383 540 c 0,36,37
 383 517 383 517 375 498 c 128,-1,38
 367 479 367 479 353 465.5 c 128,-1,39
 339 452 339 452 319 444.5 c 128,-1,40
 299 437 299 437 275 437 c 2,41,-1
 257 437 l 1,42,-1
 257 357 l 1,43,-1
 276 357 l 2,44,45
 310 357 310 357 337.5 347 c 128,-1,46
 365 337 365 337 385 318.5 c 128,-1,47
 405 300 405 300 416 273.5 c 128,-1,48
 427 247 427 247 427 215 c 0,49,50
 427 179 427 179 413.5 152.5 c 128,-1,51
 400 126 400 126 375 109 c 128,-1,52
 350 92 350 92 316 84 c 128,-1,53
 282 76 282 76 241 75 c 1,54,-1
 241 -6 l 1,0,1
EndSplineSet
EndChar

StartChar: ae
Encoding: 230 230 168
Width: 933
GlyphClass: 1
Flags: W
LayerCount: 2
Fore
SplineSet
204 -10 m 0,0,1
 233 -10 233 -10 265 -3.5 c 128,-1,2
 297 3 297 3 327 16.5 c 128,-1,3
 357 30 357 30 383 51.5 c 128,-1,4
 409 73 409 73 426 103 c 1,5,6
 461 52 461 52 517 21 c 128,-1,7
 573 -10 573 -10 644 -10 c 0,8,9
 683 -10 683 -10 719 0 c 128,-1,10
 755 10 755 10 784.5 27.5 c 128,-1,11
 814 45 814 45 836.5 69 c 128,-1,12
 859 93 859 93 872 122 c 1,13,-1
 796 143 l 1,14,15
 788 124 788 124 772.5 107.5 c 128,-1,16
 757 91 757 91 737 80 c 128,-1,17
 717 69 717 69 694 62.5 c 128,-1,18
 671 56 671 56 647 56 c 0,19,20
 611 56 611 56 578.5 69 c 128,-1,21
 546 82 546 82 521 105 c 128,-1,22
 496 128 496 128 480 160 c 128,-1,23
 464 192 464 192 461 231 c 1,24,-1
 904 231 l 1,25,26
 905 236 905 236 905.5 245.5 c 128,-1,27
 906 255 906 255 906 261 c 0,28,29
 906 316 906 316 886.5 365 c 128,-1,30
 867 414 867 414 832.5 451 c 128,-1,31
 798 488 798 488 749 509.5 c 128,-1,32
 700 531 700 531 641 531 c 0,33,34
 579 531 579 531 529 505 c 128,-1,35
 479 479 479 479 446 436 c 1,36,37
 421 481 421 481 375 506 c 128,-1,38
 329 531 329 531 265 531 c 0,39,40
 214 531 214 531 163.5 514 c 128,-1,41
 113 497 113 497 62 463 c 1,42,-1
 91 406 l 1,43,44
 135 436 135 436 176 451.5 c 128,-1,45
 217 467 217 467 257 467 c 0,46,47
 315 467 315 467 349.5 439 c 128,-1,48
 384 411 384 411 392 360 c 1,49,50
 386 346 386 346 383 328 c 128,-1,51
 380 310 380 310 378 294 c 1,52,53
 350 303 350 303 316.5 308.5 c 128,-1,54
 283 314 283 314 249 314 c 0,55,56
 201 314 201 314 160.5 302 c 128,-1,57
 120 290 120 290 91 269 c 128,-1,58
 62 248 62 248 46 218.5 c 128,-1,59
 30 189 30 189 30 153 c 0,60,61
 30 119 30 119 43.5 89 c 128,-1,62
 57 59 57 59 80.5 37 c 128,-1,63
 104 15 104 15 135.5 2.5 c 128,-1,64
 167 -10 167 -10 204 -10 c 0,0,1
227 56 m 0,65,66
 203 56 203 56 182 64 c 128,-1,67
 161 72 161 72 146 86 c 128,-1,68
 131 100 131 100 122 119 c 128,-1,69
 113 138 113 138 113 160 c 0,70,71
 113 183 113 183 124 201.5 c 128,-1,72
 135 220 135 220 154.5 233 c 128,-1,73
 174 246 174 246 201.5 253.5 c 128,-1,74
 229 261 229 261 262 261 c 0,75,76
 291 261 291 261 321 256 c 128,-1,77
 351 251 351 251 378 242 c 1,78,79
 379 223 379 223 383.5 197.5 c 128,-1,80
 388 172 388 172 396 155 c 1,81,82
 395 147 395 147 390 137.5 c 128,-1,83
 385 128 385 128 377 120 c 0,84,85
 355 91 355 91 315 73.5 c 128,-1,86
 275 56 275 56 227 56 c 0,65,66
460 288 m 1,87,88
 462 327 462 327 476.5 359.5 c 128,-1,89
 491 392 491 392 515 415.5 c 128,-1,90
 539 439 539 439 571 452 c 128,-1,91
 603 465 603 465 640 465 c 256,92,93
 677 465 677 465 709 452 c 128,-1,94
 741 439 741 439 765 415.5 c 128,-1,95
 789 392 789 392 804 359.5 c 128,-1,96
 819 327 819 327 822 288 c 1,97,-1
 460 288 l 1,87,88
EndSplineSet
EndChar

StartChar: idieresis
Encoding: 239 239 177
Width: 230
GlyphClass: 1
Flags: W
LayerCount: 2
Fore
SplineSet
159 0 m 1,0,-1
 159 522 l 1,1,-1
 71 522 l 1,2,-1
 71 0 l 1,3,-1
 159 0 l 1,0,-1
5 674 m 256,4,5
 5 651 5 651 18 634.5 c 128,-1,6
 31 618 31 618 50 618 c 256,7,8
 69 618 69 618 82 634.5 c 128,-1,9
 95 651 95 651 95 674 c 256,10,11
 95 697 95 697 82 713.5 c 128,-1,12
 69 730 69 730 50 730 c 256,13,14
 31 730 31 730 18 713.5 c 128,-1,15
 5 697 5 697 5 674 c 256,4,5
134 674 m 256,16,17
 134 651 134 651 147 634.5 c 128,-1,18
 160 618 160 618 179 618 c 256,19,20
 198 618 198 618 211 634.5 c 128,-1,21
 224 651 224 651 224 674 c 256,22,23
 224 697 224 697 211 713.5 c 128,-1,24
 198 730 198 730 179 730 c 256,25,26
 160 730 160 730 147 713.5 c 128,-1,27
 134 697 134 697 134 674 c 256,16,17
EndSplineSet
EndChar

StartChar: eth
Encoding: 240 240 178
Width: 606
GlyphClass: 1
Flags: W
LayerCount: 2
Fore
SplineSet
566 290 m 0,0,1
 566 340 566 340 553 398.5 c 128,-1,2
 540 457 540 457 509.5 516 c 128,-1,3
 479 575 479 575 428 630.5 c 128,-1,4
 377 686 377 686 301 730 c 1,5,-1
 177 730 l 1,6,7
 256 687 256 687 309.5 642.5 c 128,-1,8
 363 598 363 598 397.5 553 c 128,-1,9
 432 508 432 508 450 462 c 128,-1,10
 468 416 468 416 476 368 c 1,11,12
 463 392 463 392 442.5 411 c 128,-1,13
 422 430 422 430 397 444 c 128,-1,14
 372 458 372 458 343 465.5 c 128,-1,15
 314 473 314 473 283 473 c 0,16,17
 232 473 232 473 187.5 454 c 128,-1,18
 143 435 143 435 110 402 c 128,-1,19
 77 369 77 369 58 325.5 c 128,-1,20
 39 282 39 282 39 233 c 0,21,22
 39 182 39 182 59.5 137.5 c 128,-1,23
 80 93 80 93 115 60.5 c 128,-1,24
 150 28 150 28 197 9 c 128,-1,25
 244 -10 244 -10 297 -10 c 0,26,27
 351 -10 351 -10 400 10.5 c 128,-1,28
 449 31 449 31 486 70 c 128,-1,29
 523 109 523 109 544.5 164.5 c 128,-1,30
 566 220 566 220 566 290 c 0,0,1
129 233 m 256,31,32
 129 268 129 268 142.5 298.5 c 128,-1,33
 156 329 156 329 179.5 352 c 128,-1,34
 203 375 203 375 235 388 c 128,-1,35
 267 401 267 401 304 401 c 0,36,37
 340 401 340 401 371 388.5 c 128,-1,38
 402 376 402 376 425.5 354.5 c 128,-1,39
 449 333 449 333 462.5 303.5 c 128,-1,40
 476 274 476 274 476 239 c 256,41,42
 476 204 476 204 462.5 172.5 c 128,-1,43
 449 141 449 141 425 117.5 c 128,-1,44
 401 94 401 94 369 80 c 128,-1,45
 337 66 337 66 300 66 c 0,46,47
 264 66 264 66 233 79 c 128,-1,48
 202 92 202 92 179 114.5 c 128,-1,49
 156 137 156 137 142.5 167.5 c 128,-1,50
 129 198 129 198 129 233 c 256,31,32
478 713 m 1,51,-1
 369 647 l 1,52,-1
 343 639 l 1,53,-1
 226 569 l 1,54,-1
 253 532 l 1,55,-1
 372 604 l 1,56,-1
 400 614 l 1,57,-1
 505 676 l 1,58,-1
 478 713 l 1,51,-1
EndSplineSet
EndChar

StartChar: divide
Encoding: 247 247 185
Width: 533
GlyphClass: 1
Flags: W
LayerCount: 2
Fore
SplineSet
468 251 m 1,0,-1
 468 323 l 1,1,-1
 65 323 l 1,2,-1
 65 251 l 1,3,-1
 468 251 l 1,0,-1
210 112 m 256,4,5
 210 89 210 89 226.5 72.5 c 128,-1,6
 243 56 243 56 266 56 c 256,7,8
 289 56 289 56 305.5 72.5 c 128,-1,9
 322 89 322 89 322 112 c 256,10,11
 322 135 322 135 305.5 151.5 c 128,-1,12
 289 168 289 168 266 168 c 256,13,14
 243 168 243 168 226.5 151.5 c 128,-1,15
 210 135 210 135 210 112 c 256,4,5
211 463 m 256,16,17
 211 440 211 440 227.5 423 c 128,-1,18
 244 406 244 406 267 406 c 256,19,20
 290 406 290 406 306.5 423 c 128,-1,21
 323 440 323 440 323 463 c 256,22,23
 323 486 323 486 306.5 502.5 c 128,-1,24
 290 519 290 519 267 519 c 256,25,26
 244 519 244 519 227.5 502.5 c 128,-1,27
 211 486 211 486 211 463 c 256,16,17
EndSplineSet
EndChar

StartChar: oslash
Encoding: 248 248 186
Width: 599
GlyphClass: 1
Flags: W
LayerCount: 2
Fore
SplineSet
299 -10 m 256,0,1
 358 -10 358 -10 406.5 12 c 128,-1,2
 455 34 455 34 490 71 c 128,-1,3
 525 108 525 108 544 157 c 128,-1,4
 563 206 563 206 563 260 c 0,5,6
 563 315 563 315 543.5 364 c 128,-1,7
 524 413 524 413 489.5 450 c 128,-1,8
 455 487 455 487 406.5 509 c 128,-1,9
 358 531 358 531 299 531 c 0,10,11
 241 531 241 531 192.5 509 c 128,-1,12
 144 487 144 487 109.5 450 c 128,-1,13
 75 413 75 413 55.5 364 c 128,-1,14
 36 315 36 315 36 260 c 0,15,16
 36 206 36 206 55 157 c 128,-1,17
 74 108 74 108 108.5 71 c 128,-1,18
 143 34 143 34 191.5 12 c 128,-1,19
 240 -10 240 -10 299 -10 c 256,0,1
299 66 m 256,20,21
 263 66 263 66 231.5 81 c 128,-1,22
 200 96 200 96 176.5 122 c 128,-1,23
 153 148 153 148 139.5 183 c 128,-1,24
 126 218 126 218 126 259 c 256,25,26
 126 300 126 300 139.5 335.5 c 128,-1,27
 153 371 153 371 176.5 397.5 c 128,-1,28
 200 424 200 424 231.5 439.5 c 128,-1,29
 263 455 263 455 299 455 c 256,30,31
 335 455 335 455 366.5 440 c 128,-1,32
 398 425 398 425 422 398.5 c 128,-1,33
 446 372 446 372 459.5 337 c 128,-1,34
 473 302 473 302 473 261 c 256,35,36
 473 220 473 220 459.5 184.5 c 128,-1,37
 446 149 446 149 422 122.5 c 128,-1,38
 398 96 398 96 366.5 81 c 128,-1,39
 335 66 335 66 299 66 c 256,20,21
140 -2 m 1,40,-1
 193 64 l 1,41,-1
 142 94 l 1,42,-1
 65 -2 l 1,43,-1
 140 -2 l 1,40,-1
452 432 m 1,44,-1
 398 455 l 1,45,-1
 153 98 l 1,46,-1
 202 71 l 1,47,-1
 452 432 l 1,44,-1
532 524 m 1,48,-1
 456 524 l 1,49,-1
 407 461 l 1,50,-1
 463 437 l 1,51,-1
 532 524 l 1,48,-1
EndSplineSet
EndChar

StartChar: thorn
Encoding: 254 254 192
Width: 603
GlyphClass: 1
Flags: W
LayerCount: 2
Fore
SplineSet
568 257 m 0,0,1
 568 307 568 307 551 356 c 128,-1,2
 534 405 534 405 501.5 445 c 128,-1,3
 469 485 469 485 423 509.5 c 128,-1,4
 377 534 377 534 319 534 c 256,5,6
 261 534 261 534 223 508.5 c 128,-1,7
 185 483 185 483 161 449 c 1,8,-1
 161 710 l 1,9,-1
 71 710 l 1,10,-1
 71 -213 l 1,11,-1
 161 -213 l 1,12,-1
 161 60 l 1,13,14
 170 45 170 45 185 30.5 c 128,-1,15
 200 16 200 16 219 5.5 c 128,-1,16
 238 -5 238 -5 261 -11.5 c 128,-1,17
 284 -18 284 -18 310 -18 c 0,18,19
 364 -18 364 -18 410.5 4.5 c 128,-1,20
 457 27 457 27 492 65 c 128,-1,21
 527 103 527 103 547 153 c 128,-1,22
 567 203 567 203 568 257 c 0,0,1
478 258 m 0,23,24
 478 220 478 220 465.5 184.5 c 128,-1,25
 453 149 453 149 430.5 122 c 128,-1,26
 408 95 408 95 376.5 78.5 c 128,-1,27
 345 62 345 62 308 62 c 0,28,29
 284 62 284 62 258.5 71.5 c 128,-1,30
 233 81 233 81 211 96.5 c 128,-1,31
 189 112 189 112 175 132 c 128,-1,32
 161 152 161 152 161 173 c 2,33,-1
 161 344 l 1,34,35
 172 366 172 366 187.5 386 c 128,-1,36
 203 406 203 406 222 421 c 128,-1,37
 241 436 241 436 264 445 c 128,-1,38
 287 454 287 454 314 454 c 0,39,40
 351 454 351 454 381.5 438 c 128,-1,41
 412 422 412 422 433.5 395 c 128,-1,42
 455 368 455 368 466.5 332.5 c 128,-1,43
 478 297 478 297 478 258 c 0,23,24
EndSplineSet
EndChar

StartChar: Dcroat
Encoding: 272 272 210
Width: 722
GlyphClass: 1
Flags: W
LayerCount: 2
Fore
SplineSet
342 323 m 1,0,-1
 342 391 l 1,1,-1
 34 391 l 1,2,-1
 34 323 l 1,3,-1
 342 323 l 1,0,-1
337 0 m 2,4,5
 415 0 415 0 478.5 25.5 c 128,-1,6
 542 51 542 51 587 97.5 c 128,-1,7
 632 144 632 144 656 209.5 c 128,-1,8
 680 275 680 275 680 356 c 0,9,10
 680 430 680 430 658.5 494.5 c 128,-1,11
 637 559 637 559 594 607 c 128,-1,12
 551 655 551 655 487 682.5 c 128,-1,13
 423 710 423 710 337 710 c 2,14,-1
 91 710 l 1,15,-1
 91 0 l 1,16,-1
 337 0 l 2,4,5
589 356 m 0,17,18
 589 297 589 297 572.5 246.5 c 128,-1,19
 556 196 556 196 524.5 159 c 128,-1,20
 493 122 493 122 446 101 c 128,-1,21
 399 80 399 80 337 80 c 2,22,-1
 181 80 l 1,23,-1
 181 630 l 1,24,-1
 337 630 l 2,25,26
 397 630 397 630 444 609.5 c 128,-1,27
 491 589 491 589 523.5 553 c 128,-1,28
 556 517 556 517 572.5 466.5 c 128,-1,29
 589 416 589 416 589 356 c 0,17,18
EndSplineSet
EndChar

StartChar: dcroat
Encoding: 273 273 211
Width: 629
GlyphClass: 1
Flags: W
LayerCount: 2
Fore
SplineSet
621 611 m 1,0,-1
 621 667 l 1,1,-1
 355 667 l 1,2,-1
 355 611 l 1,3,-1
 621 611 l 1,0,-1
553 0 m 1,4,-1
 553 730 l 1,5,-1
 465 730 l 1,6,-1
 465 418 l 1,7,8
 450 442 450 442 430 462.5 c 128,-1,9
 410 483 410 483 385.5 498 c 128,-1,10
 361 513 361 513 333 522 c 128,-1,11
 305 531 305 531 273 531 c 0,12,13
 222 531 222 531 179 509.5 c 128,-1,14
 136 488 136 488 104.5 451 c 128,-1,15
 73 414 73 414 55 365 c 128,-1,16
 37 316 37 316 37 260 c 0,17,18
 37 206 37 206 55.5 157 c 128,-1,19
 74 108 74 108 107 71 c 128,-1,20
 140 34 140 34 186 12 c 128,-1,21
 232 -10 232 -10 286 -10 c 0,22,23
 343 -10 343 -10 389.5 17.5 c 128,-1,24
 436 45 436 45 465 92 c 1,25,-1
 465 0 l 1,26,-1
 553 0 l 1,4,-1
465 183 m 1,27,28
 461 159 461 159 444.5 137.5 c 128,-1,29
 428 116 428 116 405.5 100 c 128,-1,30
 383 84 383 84 357 75 c 128,-1,31
 331 66 331 66 307 66 c 0,32,33
 269 66 269 66 236.5 81.5 c 128,-1,34
 204 97 204 97 180 123 c 128,-1,35
 156 149 156 149 142 184.5 c 128,-1,36
 128 220 128 220 128 259 c 0,37,38
 128 296 128 296 140 331.5 c 128,-1,39
 152 367 152 367 174.5 394.5 c 128,-1,40
 197 422 197 422 228.5 438.5 c 128,-1,41
 260 455 260 455 298 455 c 0,42,43
 323 455 323 455 349 445.5 c 128,-1,44
 375 436 375 436 397.5 419.5 c 128,-1,45
 420 403 420 403 438 381 c 128,-1,46
 456 359 456 359 465 333 c 1,47,-1
 465 183 l 1,27,28
EndSplineSet
EndChar

StartChar: Hbar
Encoding: 294 294 232
Width: 751
GlyphClass: 1
Flags: W
LayerCount: 2
Fore
SplineSet
711 529 m 1,0,-1
 711 595 l 1,1,-1
 40 595 l 1,2,-1
 40 529 l 1,3,-1
 711 529 l 1,0,-1
571 710 m 1,4,-1
 571 403 l 1,5,-1
 180 403 l 1,6,-1
 180 710 l 1,7,-1
 90 710 l 1,8,-1
 90 0 l 1,9,-1
 180 0 l 1,10,-1
 180 323 l 1,11,-1
 571 323 l 1,12,-1
 571 0 l 1,13,-1
 661 0 l 1,14,-1
 661 710 l 1,15,-1
 571 710 l 1,4,-1
EndSplineSet
EndChar

StartChar: hbar
Encoding: 295 295 233
Width: 590
GlyphClass: 1
Flags: W
LayerCount: 2
Fore
SplineSet
281 611 m 1,0,-1
 281 667 l 1,1,-1
 15 667 l 1,2,-1
 15 611 l 1,3,-1
 281 611 l 1,0,-1
524 312 m 2,4,5
 524 359 524 359 515.5 399 c 128,-1,6
 507 439 507 439 488 468 c 128,-1,7
 469 497 469 497 437.5 514 c 128,-1,8
 406 531 406 531 359 531 c 0,9,10
 296 531 296 531 243 499 c 128,-1,11
 190 467 190 467 159 410 c 1,12,-1
 159 730 l 1,13,-1
 71 730 l 1,14,-1
 71 0 l 1,15,-1
 159 0 l 1,16,-1
 159 315 l 1,17,18
 168 345 168 345 185.5 370 c 128,-1,19
 203 395 203 395 225.5 413 c 128,-1,20
 248 431 248 431 274 441.5 c 128,-1,21
 300 452 300 452 326 452 c 0,22,23
 380 452 380 452 408 412.5 c 128,-1,24
 436 373 436 373 436 292 c 2,25,-1
 436 0 l 1,26,-1
 524 0 l 1,27,-1
 524 312 l 2,4,5
EndSplineSet
EndChar

StartChar: dotlessi
Encoding: 305 305 243
Width: 230
GlyphClass: 1
Flags: W
LayerCount: 2
Fore
SplineSet
159 0 m 1,0,-1
 159 522 l 1,1,-1
 71 522 l 1,2,-1
 71 0 l 1,3,-1
 159 0 l 1,0,-1
EndSplineSet
EndChar

StartChar: kgreenlandic
Encoding: 312 312 248
Width: 539
GlyphClass: 1
Flags: W
LayerCount: 2
Fore
SplineSet
534 0 m 1,0,-1
 316 305 l 1,1,-1
 524 521 l 1,2,-1
 427 521 l 1,3,-1
 159 250 l 1,4,-1
 159 522 l 1,5,-1
 71 522 l 1,6,-1
 71 0 l 1,7,-1
 159 0 l 1,8,-1
 159 161 l 1,9,-1
 259 255 l 1,10,-1
 439 0 l 1,11,-1
 534 0 l 1,0,-1
EndSplineSet
EndChar

StartChar: Lslash
Encoding: 321 321 257
Width: 591
GlyphClass: 1
Flags: W
LayerCount: 2
Fore
SplineSet
349 474 m 1,0,-1
 324 523 l 1,1,-1
 10 283 l 1,2,-1
 36 233 l 1,3,-1
 349 474 l 1,0,-1
578 0 m 1,4,-1
 578 80 l 1,5,-1
 182 80 l 1,6,-1
 182 710 l 1,7,-1
 92 710 l 1,8,-1
 92 0 l 1,9,-1
 578 0 l 1,4,-1
EndSplineSet
EndChar

StartChar: lslash
Encoding: 322 322 258
Width: 308
GlyphClass: 1
Flags: W
LayerCount: 2
Fore
SplineSet
297 473 m 1,0,-1
 270 522 l 1,1,-1
 8 332 l 1,2,-1
 34 283 l 1,3,-1
 297 473 l 1,0,-1
94 103 m 2,4,5
 94 51 94 51 123.5 22 c 128,-1,6
 153 -7 153 -7 204 -7 c 0,7,8
 227 -7 227 -7 257 -1 c 128,-1,9
 287 5 287 5 309 14 c 1,10,-1
 295 86 l 1,11,12
 282 81 282 81 263 76.5 c 128,-1,13
 244 72 244 72 223 72 c 0,14,15
 214 72 214 72 206.5 73.5 c 128,-1,16
 199 75 199 75 193.5 81.5 c 128,-1,17
 188 88 188 88 185 100.5 c 128,-1,18
 182 113 182 113 182 135 c 2,19,-1
 182 730 l 1,20,-1
 94 730 l 1,21,-1
 94 103 l 2,4,5
EndSplineSet
EndChar

StartChar: Eng
Encoding: 330 330 265
Width: 762
GlyphClass: 1
Flags: W
LayerCount: 2
Fore
SplineSet
589 15 m 1,0,-1
 589 -23 l 2,1,2
 589 -41 589 -41 582 -57 c 128,-1,3
 575 -73 575 -73 563 -84 c 128,-1,4
 551 -95 551 -95 535.5 -101.5 c 128,-1,5
 520 -108 520 -108 504 -108 c 0,6,7
 486 -108 486 -108 468 -103 c 128,-1,8
 450 -98 450 -98 436 -85 c 1,9,-1
 395 -144 l 1,10,11
 419 -166 419 -166 449.5 -176 c 128,-1,12
 480 -186 480 -186 514 -186 c 0,13,14
 546 -186 546 -186 575 -174 c 128,-1,15
 604 -162 604 -162 627 -140 c 128,-1,16
 650 -118 650 -118 663.5 -87.5 c 128,-1,17
 677 -57 677 -57 677 -20 c 2,18,-1
 677 709 l 1,19,-1
 587 709 l 1,20,-1
 587 161 l 1,21,-1
 154 710 l 1,22,-1
 85 710 l 1,23,-1
 85 0 l 1,24,-1
 175 0 l 1,25,-1
 175 540 l 1,26,-1
 589 15 l 1,0,-1
EndSplineSet
EndChar

StartChar: eng
Encoding: 331 331 266
Width: 590
GlyphClass: 1
Flags: W
LayerCount: 2
Fore
SplineSet
362 -186 m 0,0,1
 394 -186 394 -186 423 -173.5 c 128,-1,2
 452 -161 452 -161 474.5 -138.5 c 128,-1,3
 497 -116 497 -116 510.5 -85 c 128,-1,4
 524 -54 524 -54 524 -17 c 2,5,-1
 524 312 l 2,6,7
 524 359 524 359 516.5 399.5 c 128,-1,8
 509 440 509 440 491 469 c 128,-1,9
 473 498 473 498 443 514.5 c 128,-1,10
 413 531 413 531 368 531 c 0,11,12
 334 531 334 531 301.5 522.5 c 128,-1,13
 269 514 269 514 240.5 498 c 128,-1,14
 212 482 212 482 189 459.5 c 128,-1,15
 166 437 166 437 151 410 c 1,16,-1
 151 522 l 1,17,-1
 71 522 l 1,18,-1
 71 0 l 1,19,-1
 159 0 l 1,20,-1
 159 315 l 1,21,22
 168 345 168 345 186 370 c 128,-1,23
 204 395 204 395 228 413 c 128,-1,24
 252 431 252 431 279 441.5 c 128,-1,25
 306 452 306 452 333 452 c 0,26,27
 385 452 385 452 410.5 414 c 128,-1,28
 436 376 436 376 436 292 c 2,29,-1
 436 -23 l 2,30,31
 436 -41 436 -41 429 -57 c 128,-1,32
 422 -73 422 -73 410 -84 c 128,-1,33
 398 -95 398 -95 383 -101.5 c 128,-1,34
 368 -108 368 -108 352 -108 c 0,35,36
 334 -108 334 -108 315.5 -103 c 128,-1,37
 297 -98 297 -98 283 -85 c 1,38,-1
 242 -144 l 1,39,40
 266 -166 266 -166 296.5 -176 c 128,-1,41
 327 -186 327 -186 362 -186 c 0,0,1
EndSplineSet
EndChar

StartChar: OE
Encoding: 338 338 273
Width: 1131
GlyphClass: 1
Flags: W
LayerCount: 2
Fore
SplineSet
710 80 m 1,0,-1
 710 322 l 1,1,-1
 1031 322 l 1,2,-1
 1031 402 l 1,3,-1
 710 402 l 1,4,-1
 710 630 l 1,5,-1
 1085 630 l 1,6,-1
 1085 710 l 1,7,-1
 620 710 l 1,8,-1
 620 553 l 1,9,10
 604 587 604 587 579 616.5 c 128,-1,11
 554 646 554 646 523 668 c 128,-1,12
 492 690 492 690 454.5 702.5 c 128,-1,13
 417 715 417 715 375 715 c 0,14,15
 303 715 303 715 241.5 685.5 c 128,-1,16
 180 656 180 656 135 606 c 128,-1,17
 90 556 90 556 64.5 491 c 128,-1,18
 39 426 39 426 39 355 c 0,19,20
 39 287 39 287 63.5 222 c 128,-1,21
 88 157 88 157 132 106.5 c 128,-1,22
 176 56 176 56 237.5 25.5 c 128,-1,23
 299 -5 299 -5 374 -5 c 0,24,25
 415 -5 415 -5 452 7.5 c 128,-1,26
 489 20 489 20 521 41.5 c 128,-1,27
 553 63 553 63 578 93 c 128,-1,28
 603 123 603 123 620 157 c 1,29,-1
 620 0 l 1,30,-1
 1094 0 l 1,31,-1
 1094 80 l 1,32,-1
 710 80 l 1,0,-1
374 76 m 0,33,34
 319 76 319 76 274 99 c 128,-1,35
 229 122 229 122 197 161 c 128,-1,36
 165 200 165 200 147.5 250.5 c 128,-1,37
 130 301 130 301 130 355 c 0,38,39
 130 407 130 407 147 457 c 128,-1,40
 164 507 164 507 195.5 546.5 c 128,-1,41
 227 586 227 586 272 610 c 128,-1,42
 317 634 317 634 374 634 c 0,43,44
 428 634 428 634 472.5 611 c 128,-1,45
 517 588 517 588 549.5 549 c 128,-1,46
 582 510 582 510 599.5 460 c 128,-1,47
 617 410 617 410 617 356 c 0,48,49
 617 304 617 304 600.5 253.5 c 128,-1,50
 584 203 584 203 552.5 163.5 c 128,-1,51
 521 124 521 124 476 100 c 128,-1,52
 431 76 431 76 374 76 c 0,33,34
EndSplineSet
EndChar

StartChar: oe
Encoding: 339 339 274
Width: 1028
GlyphClass: 1
Flags: W
LayerCount: 2
Fore
SplineSet
298 -10 m 0,0,1
 333 -10 333 -10 365 0 c 128,-1,2
 397 10 397 10 425 29 c 128,-1,3
 453 48 453 48 476.5 76 c 128,-1,4
 500 104 500 104 518 139 c 1,5,6
 536 105 536 105 560.5 77.5 c 128,-1,7
 585 50 585 50 614 30.5 c 128,-1,8
 643 11 643 11 676 0.5 c 128,-1,9
 709 -10 709 -10 745 -10 c 0,10,11
 783 -10 783 -10 818 -0.5 c 128,-1,12
 853 9 853 9 883 26.5 c 128,-1,13
 913 44 913 44 936.5 68 c 128,-1,14
 960 92 960 92 973 122 c 1,15,-1
 899 143 l 1,16,17
 892 124 892 124 877 107.5 c 128,-1,18
 862 91 862 91 842 79.5 c 128,-1,19
 822 68 822 68 798 61.5 c 128,-1,20
 774 55 774 55 749 55 c 0,21,22
 713 55 713 55 681 68.5 c 128,-1,23
 649 82 649 82 624.5 106 c 128,-1,24
 600 130 600 130 584.5 162 c 128,-1,25
 569 194 569 194 566 231 c 1,26,-1
 999 231 l 1,27,28
 1000 236 1000 236 1000 245.5 c 128,-1,29
 1000 255 1000 255 1000 261 c 0,30,31
 997 322 997 322 976.5 371.5 c 128,-1,32
 956 421 956 421 921.5 456.5 c 128,-1,33
 887 492 887 492 840.5 511.5 c 128,-1,34
 794 531 794 531 738 531 c 0,35,36
 661 531 661 531 604.5 491.5 c 128,-1,37
 548 452 548 452 517 379 c 1,38,39
 502 414 502 414 480 442.5 c 128,-1,40
 458 471 458 471 430 490.5 c 128,-1,41
 402 510 402 510 369 520.5 c 128,-1,42
 336 531 336 531 299 531 c 0,43,44
 243 531 243 531 195 510 c 128,-1,45
 147 489 147 489 111.5 452.5 c 128,-1,46
 76 416 76 416 56 366.5 c 128,-1,47
 36 317 36 317 36 259 c 0,48,49
 36 202 36 202 56 153 c 128,-1,50
 76 104 76 104 111 67.5 c 128,-1,51
 146 31 146 31 194 10.5 c 128,-1,52
 242 -10 242 -10 298 -10 c 0,0,1
299 66 m 0,53,54
 263 66 263 66 231 80.5 c 128,-1,55
 199 95 199 95 176 121 c 128,-1,56
 153 147 153 147 139.5 182 c 128,-1,57
 126 217 126 217 126 258 c 256,58,59
 126 299 126 299 139.5 335 c 128,-1,60
 153 371 153 371 176.5 397.5 c 128,-1,61
 200 424 200 424 232 439.5 c 128,-1,62
 264 455 264 455 300 455 c 256,63,64
 336 455 336 455 368 440 c 128,-1,65
 400 425 400 425 423 398.5 c 128,-1,66
 446 372 446 372 459.5 336.5 c 128,-1,67
 473 301 473 301 473 260 c 256,68,69
 473 219 473 219 459.5 183.5 c 128,-1,70
 446 148 446 148 422.5 122 c 128,-1,71
 399 96 399 96 367.5 81 c 128,-1,72
 336 66 336 66 299 66 c 0,53,54
564 288 m 1,73,74
 566 327 566 327 580 359.5 c 128,-1,75
 594 392 594 392 617 415.5 c 128,-1,76
 640 439 640 439 670.5 452 c 128,-1,77
 701 465 701 465 736 465 c 256,78,79
 771 465 771 465 802.5 452 c 128,-1,80
 834 439 834 439 858 415.5 c 128,-1,81
 882 392 882 392 897 359.5 c 128,-1,82
 912 327 912 327 915 288 c 1,83,-1
 564 288 l 1,73,74
EndSplineSet
EndChar

StartChar: Tbar
Encoding: 358 358 293
Width: 642
GlyphClass: 1
Flags: W
LayerCount: 2
Fore
SplineSet
567 309 m 1,0,-1
 567 375 l 1,1,-1
 75 375 l 1,2,-1
 75 309 l 1,3,-1
 567 309 l 1,0,-1
611 710 m 1,4,-1
 31 710 l 1,5,-1
 31 630 l 1,6,-1
 276 630 l 1,7,-1
 276 0 l 1,8,-1
 366 0 l 1,9,-1
 366 630 l 1,10,-1
 611 630 l 1,11,-1
 611 710 l 1,4,-1
EndSplineSet
EndChar

StartChar: tbar
Encoding: 359 359 294
Width: 353
GlyphClass: 1
Flags: W
LayerCount: 2
Fore
SplineSet
289 272 m 1,0,-1
 289 328 l 1,1,-1
 36 328 l 1,2,-1
 36 272 l 1,3,-1
 289 272 l 1,0,-1
321 96 m 1,4,5
 317 94 317 94 309.5 90 c 128,-1,6
 302 86 302 86 292 82.5 c 128,-1,7
 282 79 282 79 269.5 76.5 c 128,-1,8
 257 74 257 74 244 74 c 0,9,10
 221 74 221 74 204 87 c 128,-1,11
 187 100 187 100 185 129 c 2,12,-1
 185 453 l 1,13,-1
 302 453 l 1,14,-1
 302 522 l 1,15,-1
 185 522 l 1,16,-1
 185 696 l 1,17,-1
 97 696 l 1,18,-1
 97 522 l 1,19,-1
 26 522 l 1,20,-1
 26 453 l 1,21,-1
 97 453 l 1,22,-1
 97 102 l 2,23,24
 97 74 97 74 106.5 53.5 c 128,-1,25
 116 33 116 33 132 19.5 c 128,-1,26
 148 6 148 6 169.5 -0.5 c 128,-1,27
 191 -7 191 -7 215 -7 c 0,28,29
 236 -7 236 -7 255.5 -3 c 128,-1,30
 275 1 275 1 291.5 6 c 128,-1,31
 308 11 308 11 321 16.5 c 128,-1,32
 334 22 334 22 342 26 c 1,33,-1
 321 96 l 1,4,5
EndSplineSet
EndChar

StartChar: uni018F
Encoding: 399 399 318
Width: 736
GlyphClass: 1
Flags: W
LayerCount: 2
Fore
SplineSet
364 -5 m 256,0,1
 434 -5 434 -5 494.5 22.5 c 128,-1,2
 555 50 555 50 600 98.5 c 128,-1,3
 645 147 645 147 670.5 212.5 c 128,-1,4
 696 278 696 278 696 353 c 0,5,6
 696 429 696 429 670.5 495 c 128,-1,7
 645 561 645 561 600.5 610 c 128,-1,8
 556 659 556 659 496 687 c 128,-1,9
 436 715 436 715 367 715 c 0,10,11
 321 715 321 715 277 702 c 128,-1,12
 233 689 233 689 194 666 c 128,-1,13
 155 643 155 643 124 610 c 128,-1,14
 93 577 93 577 73 538 c 1,15,-1
 158 499 l 1,16,17
 167 528 167 528 187 552.5 c 128,-1,18
 207 577 207 577 233.5 594.5 c 128,-1,19
 260 612 260 612 292.5 622 c 128,-1,20
 325 632 325 632 359 632 c 0,21,22
 405 632 405 632 446 614 c 128,-1,23
 487 596 487 596 518.5 563.5 c 128,-1,24
 550 531 550 531 571 487 c 128,-1,25
 592 443 592 443 597 392 c 1,26,-1
 30 392 l 1,27,28
 28 386 28 386 27.5 374 c 128,-1,29
 27 362 27 362 27 349 c 0,30,31
 27 276 27 276 53.5 211.5 c 128,-1,32
 80 147 80 147 126 99 c 128,-1,33
 172 51 172 51 233 23 c 128,-1,34
 294 -5 294 -5 364 -5 c 256,0,1
366 76 m 0,35,36
 318 76 318 76 275.5 94.5 c 128,-1,37
 233 113 233 113 200 145 c 128,-1,38
 167 177 167 177 147 220.5 c 128,-1,39
 127 264 127 264 124 314 c 1,40,-1
 599 314 l 1,41,42
 596 263 596 263 576.5 219 c 128,-1,43
 557 175 557 175 526 143.5 c 128,-1,44
 495 112 495 112 454 94 c 128,-1,45
 413 76 413 76 366 76 c 0,35,36
EndSplineSet
EndChar

StartChar: florin
Encoding: 402 402 319
Width: 534
GlyphClass: 1
Flags: W
LayerCount: 2
Fore
SplineSet
150 -186 m 0,0,1
 182 -186 182 -186 211 -174 c 128,-1,2
 240 -162 240 -162 262.5 -140 c 128,-1,3
 285 -118 285 -118 298.5 -87.5 c 128,-1,4
 312 -57 312 -57 312 -21 c 2,5,-1
 312 392 l 1,6,-1
 451 392 l 1,7,-1
 451 461 l 1,8,-1
 312 461 l 1,9,-1
 312 536 l 2,10,11
 312 599 312 599 334.5 632 c 128,-1,12
 357 665 357 665 401 665 c 0,13,14
 421 665 421 665 442 659 c 128,-1,15
 463 653 463 653 477 643 c 1,16,-1
 499 708 l 1,17,18
 475 723 475 723 444.5 731.5 c 128,-1,19
 414 740 414 740 384 740 c 0,20,21
 347 740 347 740 317.5 725.5 c 128,-1,22
 288 711 288 711 267 684.5 c 128,-1,23
 246 658 246 658 235 619.5 c 128,-1,24
 224 581 224 581 224 533 c 2,25,-1
 224 461 l 1,26,-1
 153 461 l 1,27,-1
 153 392 l 1,28,-1
 224 392 l 1,29,-1
 224 -23 l 2,30,31
 224 -41 224 -41 217 -57 c 128,-1,32
 210 -73 210 -73 198 -84 c 128,-1,33
 186 -95 186 -95 171 -101.5 c 128,-1,34
 156 -108 156 -108 140 -108 c 0,35,36
 122 -108 122 -108 103.5 -103 c 128,-1,37
 85 -98 85 -98 71 -85 c 1,38,-1
 30 -144 l 1,39,40
 54 -166 54 -166 85 -176 c 128,-1,41
 116 -186 116 -186 150 -186 c 0,0,1
EndSplineSet
EndChar

StartChar: Aringacute
Encoding: 506 506 328
Width: 677
GlyphClass: 1
Flags: W
LayerCount: 2
Fore
SplineSet
10 0 m 1,0,-1
 106 0 l 1,1,-1
 189 208 l 1,2,-1
 487 208 l 1,3,-1
 571 0 l 1,4,-1
 667 0 l 1,5,-1
 377 710 l 1,6,-1
 301 710 l 1,7,-1
 10 0 l 1,0,-1
207 278 m 1,8,-1
 339 606 l 1,9,-1
 467 278 l 1,10,-1
 207 278 l 1,8,-1
244 770 m 0,11,12
 244 731 244 731 270.5 707.5 c 128,-1,13
 297 684 297 684 339 684 c 256,14,15
 381 684 381 684 407.5 707.5 c 128,-1,16
 434 731 434 731 434 770 c 0,17,18
 434 810 434 810 407.5 834 c 128,-1,19
 381 858 381 858 339 858 c 256,20,21
 297 858 297 858 270.5 834 c 128,-1,22
 244 810 244 810 244 770 c 0,11,12
339 818 m 256,23,24
 359 818 359 818 373 805.5 c 128,-1,25
 387 793 387 793 387 770 c 0,26,27
 387 749 387 749 372.5 736 c 128,-1,28
 358 723 358 723 339 723 c 0,29,30
 319 723 319 723 305.5 736.5 c 128,-1,31
 292 750 292 750 292 770 c 0,32,33
 292 793 292 793 305.5 805.5 c 128,-1,34
 319 818 319 818 339 818 c 256,23,24
477 973 m 1,35,-1
 389 973 l 1,36,-1
 310 821 l 1,37,-1
 359 821 l 1,38,-1
 477 973 l 1,35,-1
EndSplineSet
EndChar

StartChar: uni0237
Encoding: 567 567 370
Width: 230
GlyphClass: 1
Flags: W
LayerCount: 2
Fore
SplineSet
-3 -186 m 0,0,1
 29 -186 29 -186 58 -173.5 c 128,-1,2
 87 -161 87 -161 109.5 -138.5 c 128,-1,3
 132 -116 132 -116 145.5 -85 c 128,-1,4
 159 -54 159 -54 159 -17 c 2,5,-1
 159 522 l 1,6,-1
 71 522 l 1,7,-1
 71 -23 l 2,8,9
 71 -41 71 -41 64 -57 c 128,-1,10
 57 -73 57 -73 45 -84 c 128,-1,11
 33 -95 33 -95 18 -101.5 c 128,-1,12
 3 -108 3 -108 -13 -108 c 0,13,14
 -31 -108 -31 -108 -49.5 -103 c 128,-1,15
 -68 -98 -68 -98 -82 -85 c 1,16,-1
 -123 -144 l 1,17,18
 -99 -166 -99 -166 -68.5 -176 c 128,-1,19
 -38 -186 -38 -186 -3 -186 c 0,0,1
EndSplineSet
EndChar

StartChar: uni0259
Encoding: 601 601 371
Width: 591
GlyphClass: 1
Flags: W
LayerCount: 2
Fore
SplineSet
292 -10 m 256,0,1
 351 -10 351 -10 399.5 11.5 c 128,-1,2
 448 33 448 33 482.5 69.5 c 128,-1,3
 517 106 517 106 536 154.5 c 128,-1,4
 555 203 555 203 555 258 c 0,5,6
 555 314 555 314 535.5 363.5 c 128,-1,7
 516 413 516 413 481 450.5 c 128,-1,8
 446 488 446 488 397.5 509.5 c 128,-1,9
 349 531 349 531 290 531 c 0,10,11
 250 531 250 531 214 521 c 128,-1,12
 178 511 178 511 148.5 493.5 c 128,-1,13
 119 476 119 476 96.5 452 c 128,-1,14
 74 428 74 428 61 399 c 1,15,-1
 137 378 l 1,16,17
 145 397 145 397 160.5 413 c 128,-1,18
 176 429 176 429 196 440 c 128,-1,19
 216 451 216 451 239 457.5 c 128,-1,20
 262 464 262 464 286 464 c 0,21,22
 320 464 320 464 350.5 451.5 c 128,-1,23
 381 439 381 439 405 416 c 128,-1,24
 429 393 429 393 444 361 c 128,-1,25
 459 329 459 329 462 290 c 1,26,-1
 29 290 l 1,27,28
 28 285 28 285 27.5 275.5 c 128,-1,29
 27 266 27 266 27 260 c 0,30,31
 27 205 27 205 46.5 156 c 128,-1,32
 66 107 66 107 101 70 c 128,-1,33
 136 33 136 33 184.5 11.5 c 128,-1,34
 233 -10 233 -10 292 -10 c 256,0,1
293 56 m 256,35,36
 258 56 258 56 226.5 69 c 128,-1,37
 195 82 195 82 170.5 105 c 128,-1,38
 146 128 146 128 130.5 160.5 c 128,-1,39
 115 193 115 193 112 232 c 1,40,-1
 464 232 l 1,41,42
 461 194 461 194 447 161.5 c 128,-1,43
 433 129 433 129 410.5 105.5 c 128,-1,44
 388 82 388 82 358 69 c 128,-1,45
 328 56 328 56 293 56 c 256,35,36
EndSplineSet
EndChar

StartChar: uni02BE
Encoding: 702 702 376
Width: 157
GlyphClass: 1
Flags: W
LayerCount: 2
Fore
SplineSet
31 579 m 1,0,1
 73 579 73 579 99.5 602.5 c 128,-1,2
 126 626 126 626 126 665 c 0,3,4
 126 705 126 705 99.5 729 c 128,-1,5
 73 753 73 753 31 753 c 1,6,-1
 31 713 l 1,7,8
 51 713 51 713 65 700.5 c 128,-1,9
 79 688 79 688 79 665 c 0,10,11
 79 644 79 644 64.5 631 c 128,-1,12
 50 618 50 618 31 618 c 1,13,-1
 31 579 l 1,0,1
EndSplineSet
EndChar

StartChar: uni02BF
Encoding: 703 703 377
Width: 157
GlyphClass: 1
Flags: W
LayerCount: 2
Fore
SplineSet
126 618 m 1,0,1
 106 618 106 618 92.5 631.5 c 128,-1,2
 79 645 79 645 79 665 c 0,3,4
 79 688 79 688 92.5 700.5 c 128,-1,5
 106 713 106 713 126 713 c 1,6,-1
 126 753 l 1,7,8
 84 753 84 753 57.5 729 c 128,-1,9
 31 705 31 705 31 665 c 0,10,11
 31 626 31 626 57.5 602.5 c 128,-1,12
 84 579 84 579 126 579 c 1,13,-1
 126 618 l 1,0,1
EndSplineSet
EndChar

StartChar: uni02C8
Encoding: 712 712 380
Width: 242
GlyphClass: 1
Flags: W
LayerCount: 2
Fore
SplineSet
83 775 m 1,0,-1
 83 372 l 1,1,-1
 159 372 l 1,2,-1
 159 775 l 1,3,-1
 83 775 l 1,0,-1
EndSplineSet
EndChar

StartChar: uni02C9
Encoding: 713 713 381
Width: 403
GlyphClass: 1
Flags: W
LayerCount: 2
Fore
SplineSet
348 654 m 1,0,-1
 348 712 l 1,1,-1
 56 712 l 1,2,-1
 56 654 l 1,3,-1
 348 654 l 1,0,-1
EndSplineSet
EndChar

StartChar: uni02CA
Encoding: 714 714 382
Width: 210
GlyphClass: 1
Flags: W
LayerCount: 2
Fore
SplineSet
113 501 m 1,0,-1
 143 718 l 1,1,-1
 67 718 l 1,2,-1
 67 501 l 1,3,-1
 113 501 l 1,0,-1
EndSplineSet
EndChar

StartChar: uni02CB
Encoding: 715 715 383
Width: 210
GlyphClass: 1
Flags: W
LayerCount: 2
Fore
SplineSet
143 501 m 1,0,-1
 143 718 l 1,1,-1
 67 718 l 1,2,-1
 97 501 l 1,3,-1
 143 501 l 1,0,-1
EndSplineSet
EndChar

StartChar: uni02CC
Encoding: 716 716 384
Width: 242
GlyphClass: 1
Flags: W
LayerCount: 2
Fore
SplineSet
83 273 m 1,0,-1
 83 -130 l 1,1,-1
 159 -130 l 1,2,-1
 159 273 l 1,3,-1
 83 273 l 1,0,-1
EndSplineSet
EndChar

StartChar: tilde
Encoding: 732 732 389
Width: 415
GlyphClass: 1
Flags: W
LayerCount: 2
Fore
SplineSet
270 627 m 0,0,1
 302 627 302 627 322.5 641 c 128,-1,2
 343 655 343 655 355 673 c 128,-1,3
 367 691 367 691 371.5 707.5 c 128,-1,4
 376 724 376 724 376 730 c 1,5,-1
 324 730 l 1,6,7
 324 729 324 729 322.5 721 c 128,-1,8
 321 713 321 713 315 704 c 128,-1,9
 309 695 309 695 298 688 c 128,-1,10
 287 681 287 681 268 681 c 0,11,12
 250 681 250 681 235.5 687.5 c 128,-1,13
 221 694 221 694 206.5 702.5 c 128,-1,14
 192 711 192 711 176 717.5 c 128,-1,15
 160 724 160 724 139 724 c 0,16,17
 109 724 109 724 90 710.5 c 128,-1,18
 71 697 71 697 60 679 c 128,-1,19
 49 661 49 661 44.5 644 c 128,-1,20
 40 627 40 627 40 621 c 1,21,-1
 92 621 l 1,22,23
 92 623 92 623 93.5 630.5 c 128,-1,24
 95 638 95 638 100 646.5 c 128,-1,25
 105 655 105 655 115 662 c 128,-1,26
 125 669 125 669 141 669 c 256,27,28
 157 669 157 669 171 662.5 c 128,-1,29
 185 656 185 656 199.5 648 c 128,-1,30
 214 640 214 640 231 633.5 c 128,-1,31
 248 627 248 627 270 627 c 0,0,1
EndSplineSet
EndChar

StartChar: gravecomb
Encoding: 768 768 391
Width: 232
GlyphClass: 1
Flags: W
LayerCount: 2
Fore
SplineSet
37 760 m 1,0,-1
 155 600 l 1,1,-1
 204 600 l 1,2,-1
 125 760 l 1,3,-1
 37 760 l 1,0,-1
EndSplineSet
EndChar

StartChar: acutecomb
Encoding: 769 769 392
Width: 232
GlyphClass: 1
Flags: W
LayerCount: 2
Fore
SplineSet
204 760 m 1,0,-1
 116 760 l 1,1,-1
 37 600 l 1,2,-1
 86 600 l 1,3,-1
 204 760 l 1,0,-1
EndSplineSet
EndChar

StartChar: uni0302
Encoding: 770 770 393
Width: 342
GlyphClass: 1
Flags: W
LayerCount: 2
Fore
SplineSet
27 600 m 1,0,-1
 76 600 l 1,1,-1
 171 690 l 1,2,-1
 265 600 l 1,3,-1
 314 600 l 1,4,-1
 215 740 l 1,5,-1
 126 740 l 1,6,-1
 27 600 l 1,0,-1
EndSplineSet
EndChar

StartChar: tildecomb
Encoding: 771 771 394
Width: 415
GlyphClass: 1
Flags: W
LayerCount: 2
Fore
SplineSet
270 627 m 0,0,1
 302 627 302 627 322.5 641 c 128,-1,2
 343 655 343 655 355 673 c 128,-1,3
 367 691 367 691 371.5 707.5 c 128,-1,4
 376 724 376 724 376 730 c 1,5,-1
 324 730 l 1,6,7
 324 729 324 729 322.5 721 c 128,-1,8
 321 713 321 713 315 704 c 128,-1,9
 309 695 309 695 298 688 c 128,-1,10
 287 681 287 681 268 681 c 0,11,12
 250 681 250 681 235.5 687.5 c 128,-1,13
 221 694 221 694 206.5 702.5 c 128,-1,14
 192 711 192 711 176 717.5 c 128,-1,15
 160 724 160 724 139 724 c 0,16,17
 109 724 109 724 90 710.5 c 128,-1,18
 71 697 71 697 60 679 c 128,-1,19
 49 661 49 661 44.5 644 c 128,-1,20
 40 627 40 627 40 621 c 1,21,-1
 92 621 l 1,22,23
 92 623 92 623 93.5 630.5 c 128,-1,24
 95 638 95 638 100 646.5 c 128,-1,25
 105 655 105 655 115 662 c 128,-1,26
 125 669 125 669 141 669 c 256,27,28
 157 669 157 669 171 662.5 c 128,-1,29
 185 656 185 656 199.5 648 c 128,-1,30
 214 640 214 640 231 633.5 c 128,-1,31
 248 627 248 627 270 627 c 0,0,1
EndSplineSet
EndChar

StartChar: uni0304
Encoding: 772 772 395
Width: 403
GlyphClass: 1
Flags: W
LayerCount: 2
Fore
SplineSet
348 654 m 1,0,-1
 348 712 l 1,1,-1
 56 712 l 1,2,-1
 56 654 l 1,3,-1
 348 654 l 1,0,-1
EndSplineSet
EndChar

StartChar: uni0306
Encoding: 774 774 396
Width: 296
GlyphClass: 1
Flags: W
LayerCount: 2
Fore
SplineSet
148 662 m 0,0,1
 125 662 125 662 108 682.5 c 128,-1,2
 91 703 91 703 91 730 c 1,3,-1
 40 730 l 1,4,5
 40 706 40 706 48.5 686 c 128,-1,6
 57 666 57 666 71.5 651 c 128,-1,7
 86 636 86 636 105.5 627.5 c 128,-1,8
 125 619 125 619 148 619 c 256,9,10
 171 619 171 619 190.5 627.5 c 128,-1,11
 210 636 210 636 224.5 651 c 128,-1,12
 239 666 239 666 247.5 686 c 128,-1,13
 256 706 256 706 256 730 c 1,14,-1
 206 730 l 1,15,16
 203 701 203 701 186.5 681.5 c 128,-1,17
 170 662 170 662 148 662 c 0,0,1
EndSplineSet
EndChar

StartChar: uni0307
Encoding: 775 775 397
Width: 180
GlyphClass: 1
Flags: W
LayerCount: 2
Fore
SplineSet
34 674 m 256,0,1
 34 651 34 651 50.5 634.5 c 128,-1,2
 67 618 67 618 90 618 c 256,3,4
 113 618 113 618 129.5 634.5 c 128,-1,5
 146 651 146 651 146 674 c 256,6,7
 146 697 146 697 129.5 713.5 c 128,-1,8
 113 730 113 730 90 730 c 256,9,10
 67 730 67 730 50.5 713.5 c 128,-1,11
 34 697 34 697 34 674 c 256,0,1
EndSplineSet
EndChar

StartChar: uni0308
Encoding: 776 776 398
Width: 368
GlyphClass: 1
Flags: W
LayerCount: 2
Fore
SplineSet
38 674 m 256,0,1
 38 651 38 651 54.5 634.5 c 128,-1,2
 71 618 71 618 94 618 c 256,3,4
 117 618 117 618 133.5 634.5 c 128,-1,5
 150 651 150 651 150 674 c 256,6,7
 150 697 150 697 133.5 713.5 c 128,-1,8
 117 730 117 730 94 730 c 256,9,10
 71 730 71 730 54.5 713.5 c 128,-1,11
 38 697 38 697 38 674 c 256,0,1
219 674 m 256,12,13
 219 651 219 651 235.5 634.5 c 128,-1,14
 252 618 252 618 275 618 c 256,15,16
 298 618 298 618 314.5 634.5 c 128,-1,17
 331 651 331 651 331 674 c 256,18,19
 331 697 331 697 314.5 713.5 c 128,-1,20
 298 730 298 730 275 730 c 256,21,22
 252 730 252 730 235.5 713.5 c 128,-1,23
 219 697 219 697 219 674 c 256,12,13
EndSplineSet
EndChar

StartChar: hookabovecomb
Encoding: 777 777 399
Width: 600
GlyphClass: 1
Flags: W
LayerCount: 2
Fore
SplineSet
258 696 m 1,0,1
 272 709 272 709 281.5 713.5 c 128,-1,2
 291 718 291 718 304 718 c 0,3,4
 316 718 316 718 323.5 710 c 128,-1,5
 331 702 331 702 331 691 c 0,6,7
 331 679 331 679 325 667.5 c 128,-1,8
 319 656 319 656 302 640 c 1,9,-1
 327 611 l 1,10,11
 356 635 356 635 369.5 657 c 128,-1,12
 383 679 383 679 383 699 c 0,13,14
 383 724 383 724 365.5 744.5 c 128,-1,15
 348 765 348 765 312 765 c 0,16,17
 286 765 286 765 265 755.5 c 128,-1,18
 244 746 244 746 225 729 c 1,19,-1
 258 696 l 1,0,1
EndSplineSet
EndChar

StartChar: uni030A
Encoding: 778 778 400
Width: 252
GlyphClass: 1
Flags: W
LayerCount: 2
Fore
SplineSet
31 665 m 0,0,1
 31 626 31 626 57.5 602.5 c 128,-1,2
 84 579 84 579 126 579 c 256,3,4
 168 579 168 579 194.5 602.5 c 128,-1,5
 221 626 221 626 221 665 c 0,6,7
 221 705 221 705 194.5 729 c 128,-1,8
 168 753 168 753 126 753 c 256,9,10
 84 753 84 753 57.5 729 c 128,-1,11
 31 705 31 705 31 665 c 0,0,1
126 713 m 256,12,13
 146 713 146 713 160 700.5 c 128,-1,14
 174 688 174 688 174 665 c 0,15,16
 174 644 174 644 159.5 631 c 128,-1,17
 145 618 145 618 126 618 c 0,18,19
 106 618 106 618 92.5 631.5 c 128,-1,20
 79 645 79 645 79 665 c 0,21,22
 79 688 79 688 92.5 700.5 c 128,-1,23
 106 713 106 713 126 713 c 256,12,13
EndSplineSet
EndChar

StartChar: uni030C
Encoding: 780 780 402
Width: 342
GlyphClass: 1
Flags: W
LayerCount: 2
Fore
SplineSet
27 740 m 1,0,-1
 126 600 l 1,1,-1
 215 600 l 1,2,-1
 314 740 l 1,3,-1
 265 740 l 1,4,-1
 171 650 l 1,5,-1
 76 740 l 1,6,-1
 27 740 l 1,0,-1
EndSplineSet
EndChar

StartChar: uni0311
Encoding: 785 785 404
Width: 296
GlyphClass: 1
Flags: W
LayerCount: 2
Fore
SplineSet
148 687 m 0,0,1
 170 687 170 687 186.5 667.5 c 128,-1,2
 203 648 203 648 206 619 c 1,3,-1
 256 619 l 1,4,5
 256 643 256 643 247.5 663 c 128,-1,6
 239 683 239 683 224.5 698 c 128,-1,7
 210 713 210 713 190.5 721.5 c 128,-1,8
 171 730 171 730 148 730 c 256,9,10
 125 730 125 730 105.5 721.5 c 128,-1,11
 86 713 86 713 71.5 698 c 128,-1,12
 57 683 57 683 48.5 663 c 128,-1,13
 40 643 40 643 40 619 c 1,14,-1
 91 619 l 1,15,16
 91 646 91 646 108 666.5 c 128,-1,17
 125 687 125 687 148 687 c 0,0,1
EndSplineSet
EndChar

StartChar: uni0312
Encoding: 786 786 405
Width: 168
GlyphClass: 1
Flags: W
LayerCount: 2
Fore
SplineSet
24 588 m 1,0,-1
 112 588 l 1,1,-1
 181 728 l 1,2,-1
 132 728 l 1,3,-1
 24 588 l 1,0,-1
EndSplineSet
EndChar

StartChar: uni031B
Encoding: 795 795 406
Width: 271
GlyphClass: 1
Flags: W
LayerCount: 2
Fore
SplineSet
50 493 m 1,0,1
 72 493 72 493 92.5 496 c 128,-1,2
 113 499 113 499 130.5 504.5 c 128,-1,3
 148 510 148 510 162 518.5 c 128,-1,4
 176 527 176 527 186 539 c 0,5,6
 196 550 196 550 202 562.5 c 128,-1,7
 208 575 208 575 212 587.5 c 128,-1,8
 216 600 216 600 218 613.5 c 128,-1,9
 220 627 220 627 221 641 c 1,10,-1
 149 641 l 1,11,12
 148 621 148 621 145 607 c 128,-1,13
 142 593 142 593 132 580 c 0,14,15
 122 569 122 569 104.5 563 c 128,-1,16
 87 557 87 557 52 557 c 1,17,-1
 50 493 l 1,0,1
EndSplineSet
EndChar

StartChar: dotbelowcomb
Encoding: 803 803 407
Width: 180
GlyphClass: 1
Flags: W
LayerCount: 2
Fore
SplineSet
34 -136 m 256,0,1
 34 -159 34 -159 50.5 -175.5 c 128,-1,2
 67 -192 67 -192 90 -192 c 256,3,4
 113 -192 113 -192 129.5 -175.5 c 128,-1,5
 146 -159 146 -159 146 -136 c 256,6,7
 146 -113 146 -113 129.5 -96.5 c 128,-1,8
 113 -80 113 -80 90 -80 c 256,9,10
 67 -80 67 -80 50.5 -96.5 c 128,-1,11
 34 -113 34 -113 34 -136 c 256,0,1
EndSplineSet
EndChar

StartChar: uni0324
Encoding: 804 804 408
Width: 368
GlyphClass: 1
Flags: W
LayerCount: 2
Fore
SplineSet
208 -136 m 256,0,1
 208 -159 208 -159 224.5 -175.5 c 128,-1,2
 241 -192 241 -192 264 -192 c 256,3,4
 287 -192 287 -192 303.5 -175.5 c 128,-1,5
 320 -159 320 -159 320 -136 c 256,6,7
 320 -113 320 -113 303.5 -96.5 c 128,-1,8
 287 -80 287 -80 264 -80 c 256,9,10
 241 -80 241 -80 224.5 -96.5 c 128,-1,11
 208 -113 208 -113 208 -136 c 256,0,1
47 -136 m 256,12,13
 47 -159 47 -159 63.5 -175.5 c 128,-1,14
 80 -192 80 -192 103 -192 c 256,15,16
 126 -192 126 -192 142.5 -175.5 c 128,-1,17
 159 -159 159 -159 159 -136 c 256,18,19
 159 -113 159 -113 142.5 -96.5 c 128,-1,20
 126 -80 126 -80 103 -80 c 256,21,22
 80 -80 80 -80 63.5 -96.5 c 128,-1,23
 47 -113 47 -113 47 -136 c 256,12,13
EndSplineSet
EndChar

StartChar: uni0326
Encoding: 806 806 409
Width: 168
GlyphClass: 1
Flags: W
LayerCount: 2
Fore
SplineSet
76 -241 m 1,0,-1
 146 -48 l 1,1,-1
 63 -48 l 1,2,-1
 33 -241 l 1,3,-1
 76 -241 l 1,0,-1
EndSplineSet
EndChar

StartChar: uni0327
Encoding: 807 807 410
Width: 296
GlyphClass: 1
Flags: W
LayerCount: 2
Fore
SplineSet
52 -166 m 0,0,1
 74 -181 74 -181 100.5 -183 c 128,-1,2
 127 -185 127 -185 153 -185 c 0,3,4
 171 -185 171 -185 190.5 -181.5 c 128,-1,5
 210 -178 210 -178 226 -170 c 128,-1,6
 242 -162 242 -162 252.5 -147.5 c 128,-1,7
 263 -133 263 -133 263 -110 c 0,8,9
 263 -75 263 -75 239 -60.5 c 128,-1,10
 215 -46 215 -46 184 -46 c 0,11,12
 175 -46 175 -46 165.5 -47 c 128,-1,13
 156 -48 156 -48 148 -51 c 1,14,-1
 183 4 l 1,15,16
 181 5 181 5 175.5 7 c 128,-1,17
 170 9 170 9 164 11 c 128,-1,18
 158 13 158 13 152.5 15 c 128,-1,19
 147 17 147 17 144 18 c 2,20,-1
 86 -91 l 1,21,22
 106 -85 106 -85 126 -81.5 c 128,-1,23
 146 -78 146 -78 166 -78 c 0,24,25
 185 -78 185 -78 201 -84 c 128,-1,26
 217 -90 217 -90 217 -113 c 0,27,28
 217 -125 217 -125 211.5 -131.5 c 128,-1,29
 206 -138 206 -138 197.5 -142 c 128,-1,30
 189 -146 189 -146 179 -147 c 128,-1,31
 169 -148 169 -148 160 -148 c 0,32,33
 140 -148 140 -148 115 -143.5 c 128,-1,34
 90 -139 90 -139 72 -129 c 1,35,36
 71 -131 71 -131 67 -136.5 c 128,-1,37
 63 -142 63 -142 59 -148 c 128,-1,38
 55 -154 55 -154 52.5 -159.5 c 128,-1,39
 50 -165 50 -165 52 -166 c 0,0,1
EndSplineSet
EndChar

StartChar: uni0328
Encoding: 808 808 411
Width: 255
GlyphClass: 1
Flags: W
LayerCount: 2
Fore
SplineSet
54 -107 m 0,0,1
 54 -120 54 -120 58.5 -133.5 c 128,-1,2
 63 -147 63 -147 75.5 -158.5 c 128,-1,3
 88 -170 88 -170 111 -178 c 128,-1,4
 134 -186 134 -186 171 -189 c 1,5,-1
 191 -133 l 1,6,7
 155 -131 155 -131 134 -123 c 128,-1,8
 113 -115 113 -115 113 -95 c 0,9,10
 113 -76 113 -76 131 -54 c 128,-1,11
 149 -32 149 -32 191 0 c 1,12,-1
 171 18 l 1,13,-1
 147 18 l 1,14,15
 99 -13 99 -13 76.5 -43.5 c 128,-1,16
 54 -74 54 -74 54 -107 c 0,0,1
EndSplineSet
EndChar

StartChar: uni032E
Encoding: 814 814 412
Width: 296
GlyphClass: 1
Flags: W
LayerCount: 2
Fore
SplineSet
148 -123 m 0,0,1
 125 -123 125 -123 108 -102.5 c 128,-1,2
 91 -82 91 -82 91 -55 c 1,3,-1
 40 -55 l 1,4,5
 40 -79 40 -79 48.5 -99 c 128,-1,6
 57 -119 57 -119 71.5 -134 c 128,-1,7
 86 -149 86 -149 105.5 -157.5 c 128,-1,8
 125 -166 125 -166 148 -166 c 256,9,10
 171 -166 171 -166 190.5 -157.5 c 128,-1,11
 210 -149 210 -149 224.5 -134 c 128,-1,12
 239 -119 239 -119 247.5 -99 c 128,-1,13
 256 -79 256 -79 256 -55 c 1,14,-1
 206 -55 l 1,15,16
 203 -84 203 -84 186.5 -103.5 c 128,-1,17
 170 -123 170 -123 148 -123 c 0,0,1
EndSplineSet
EndChar

StartChar: uni0331
Encoding: 817 817 413
Width: 403
GlyphClass: 1
Flags: W
LayerCount: 2
Fore
SplineSet
348 -143 m 1,0,-1
 348 -85 l 1,1,-1
 56 -85 l 1,2,-1
 56 -143 l 1,3,-1
 348 -143 l 1,0,-1
EndSplineSet
EndChar

StartChar: uni0335
Encoding: 821 821 414
Width: 353
GlyphClass: 1
Flags: W
LayerCount: 2
Fore
SplineSet
303 272 m 1,0,-1
 303 328 l 1,1,-1
 50 328 l 1,2,-1
 50 272 l 1,3,-1
 303 272 l 1,0,-1
EndSplineSet
EndChar

StartChar: tonos
Encoding: 900 900 416
Width: 176
GlyphClass: 1
Flags: W
LayerCount: 2
Fore
SplineSet
67 800 m 1,0,-1
 42 578 l 1,1,-1
 96 570 l 1,2,-1
 135 786 l 1,3,-1
 67 800 l 1,0,-1
EndSplineSet
EndChar

StartChar: dieresistonos
Encoding: 901 901 417
Width: 431
GlyphClass: 1
Flags: W
LayerCount: 2
Fore
SplineSet
17 647 m 0,0,1
 17 621 17 621 35 603 c 128,-1,2
 53 585 53 585 79 585 c 0,3,4
 106 585 106 585 123 603 c 128,-1,5
 140 621 140 621 140 647 c 0,6,7
 140 674 140 674 123 691 c 128,-1,8
 106 708 106 708 79 708 c 0,9,10
 53 708 53 708 35 691 c 128,-1,11
 17 674 17 674 17 647 c 0,0,1
292 647 m 0,12,13
 292 621 292 621 310 603 c 128,-1,14
 328 585 328 585 354 585 c 0,15,16
 381 585 381 585 398 603 c 128,-1,17
 415 621 415 621 415 647 c 0,18,19
 415 674 415 674 398 691 c 128,-1,20
 381 708 381 708 354 708 c 0,21,22
 328 708 328 708 310 691 c 128,-1,23
 292 674 292 674 292 647 c 0,12,13
205 813 m 1,24,-1
 180 591 l 1,25,-1
 234 583 l 1,26,-1
 273 799 l 1,27,-1
 205 813 l 1,24,-1
EndSplineSet
EndChar

StartChar: Alphatonos
Encoding: 902 902 418
Width: 677
GlyphClass: 1
Flags: W
LayerCount: 2
Fore
SplineSet
10 0 m 1,0,-1
 106 0 l 1,1,-1
 189 208 l 1,2,-1
 487 208 l 1,3,-1
 571 0 l 1,4,-1
 667 0 l 1,5,-1
 377 710 l 1,6,-1
 301 710 l 1,7,-1
 10 0 l 1,0,-1
207 278 m 1,8,-1
 339 606 l 1,9,-1
 467 278 l 1,10,-1
 207 278 l 1,8,-1
204 878 m 1,11,-1
 108 662 l 1,12,-1
 158 637 l 1,13,-1
 275 827 l 1,14,-1
 204 878 l 1,11,-1
EndSplineSet
EndChar

StartChar: Epsilontonos
Encoding: 904 904 420
Width: 652
GlyphClass: 1
Flags: W
LayerCount: 2
Fore
SplineSet
222 80 m 1,0,-1
 222 325 l 1,1,-1
 555 325 l 1,2,-1
 555 400 l 1,3,-1
 222 400 l 1,4,-1
 222 630 l 1,5,-1
 605 630 l 1,6,-1
 605 710 l 1,7,-1
 132 710 l 1,8,-1
 132 0 l 1,9,-1
 614 0 l 1,10,-1
 614 80 l 1,11,-1
 222 80 l 1,0,-1
134 958 m 1,12,-1
 38 742 l 1,13,-1
 88 717 l 1,14,-1
 205 907 l 1,15,-1
 134 958 l 1,12,-1
EndSplineSet
EndChar

StartChar: Etatonos
Encoding: 905 905 421
Width: 762
GlyphClass: 1
Flags: W
LayerCount: 2
Fore
SplineSet
613 710 m 1,0,-1
 613 403 l 1,1,-1
 222 403 l 1,2,-1
 222 710 l 1,3,-1
 132 710 l 1,4,-1
 132 0 l 1,5,-1
 222 0 l 1,6,-1
 222 323 l 1,7,-1
 613 323 l 1,8,-1
 613 0 l 1,9,-1
 703 0 l 1,10,-1
 703 710 l 1,11,-1
 613 710 l 1,0,-1
76 874 m 1,12,-1
 -20 658 l 1,13,-1
 30 633 l 1,14,-1
 147 823 l 1,15,-1
 76 874 l 1,12,-1
EndSplineSet
EndChar

StartChar: Iotatonos
Encoding: 906 906 422
Width: 323
GlyphClass: 1
Flags: W
LayerCount: 2
Fore
SplineSet
218 0 m 1,0,-1
 218 710 l 1,1,-1
 128 710 l 1,2,-1
 128 0 l 1,3,-1
 218 0 l 1,0,-1
85 871 m 1,4,-1
 -11 655 l 1,5,-1
 39 630 l 1,6,-1
 156 820 l 1,7,-1
 85 871 l 1,4,-1
EndSplineSet
EndChar

StartChar: Omicrontonos
Encoding: 908 908 423
Width: 820
GlyphClass: 1
Flags: W
LayerCount: 2
Fore
SplineSet
396 -5 m 0,0,1
 468 -5 468 -5 529.5 24.5 c 128,-1,2
 591 54 591 54 635.5 103.5 c 128,-1,3
 680 153 680 153 705.5 218 c 128,-1,4
 731 283 731 283 731 354 c 0,5,6
 731 421 731 421 707 485.5 c 128,-1,7
 683 550 683 550 639 601 c 128,-1,8
 595 652 595 652 534 683.5 c 128,-1,9
 473 715 473 715 398 715 c 0,10,11
 326 715 326 715 264.5 685.5 c 128,-1,12
 203 656 203 656 158 606 c 128,-1,13
 113 556 113 556 87.5 491 c 128,-1,14
 62 426 62 426 62 355 c 0,15,16
 62 287 62 287 86 222 c 128,-1,17
 110 157 110 157 154 106.5 c 128,-1,18
 198 56 198 56 259.5 25.5 c 128,-1,19
 321 -5 321 -5 396 -5 c 0,0,1
153 355 m 0,20,21
 153 407 153 407 170 457 c 128,-1,22
 187 507 187 507 218.5 546 c 128,-1,23
 250 585 250 585 295 609 c 128,-1,24
 340 633 340 633 397 633 c 0,25,26
 451 633 451 633 495.5 610 c 128,-1,27
 540 587 540 587 572.5 548.5 c 128,-1,28
 605 510 605 510 622.5 459.5 c 128,-1,29
 640 409 640 409 640 355 c 0,30,31
 640 304 640 304 623.5 254 c 128,-1,32
 607 204 607 204 575.5 164.5 c 128,-1,33
 544 125 544 125 499 100.5 c 128,-1,34
 454 76 454 76 397 76 c 0,35,36
 342 76 342 76 297 99 c 128,-1,37
 252 122 252 122 220 161 c 128,-1,38
 188 200 188 200 170.5 250.5 c 128,-1,39
 153 301 153 301 153 355 c 0,20,21
98 871 m 1,40,-1
 2 655 l 1,41,-1
 52 630 l 1,42,-1
 169 820 l 1,43,-1
 98 871 l 1,40,-1
EndSplineSet
EndChar

StartChar: Upsilontonos
Encoding: 910 910 424
Width: 686
GlyphClass: 1
Flags: W
LayerCount: 2
Fore
SplineSet
325 0 m 1,0,-1
 413 0 l 1,1,-1
 413 239 l 2,2,3
 414 307 414 307 433 364 c 128,-1,4
 452 421 452 421 483 472 c 128,-1,5
 514 523 514 523 554.5 568.5 c 128,-1,6
 595 614 595 614 639 659 c 1,7,-1
 575 709 l 1,8,9
 530 664 530 664 497 628.5 c 128,-1,10
 464 593 464 593 440 559 c 128,-1,11
 416 525 416 525 399.5 489 c 128,-1,12
 383 453 383 453 371 407 c 1,13,-1
 366 407 l 1,14,15
 353 453 353 453 336.5 489.5 c 128,-1,16
 320 526 320 526 296.5 560 c 128,-1,17
 273 594 273 594 240.5 629.5 c 128,-1,18
 208 665 208 665 163 709 c 1,19,-1
 100 659 l 1,20,21
 141 618 141 618 181 574 c 128,-1,22
 221 530 221 530 253.5 479 c 128,-1,23
 286 428 286 428 305.5 369 c 128,-1,24
 325 310 325 310 325 239 c 2,25,-1
 325 0 l 1,0,-1
95 871 m 1,26,-1
 -1 655 l 1,27,-1
 49 630 l 1,28,-1
 166 820 l 1,29,-1
 95 871 l 1,26,-1
EndSplineSet
EndChar

StartChar: Omegatonos
Encoding: 911 911 425
Width: 712
GlyphClass: 1
Flags: W
LayerCount: 2
Fore
SplineSet
50 0 m 1,0,-1
 311 0 l 1,1,-1
 311 181 l 1,2,3
 272 193 272 193 241.5 214 c 128,-1,4
 211 235 211 235 190 264.5 c 128,-1,5
 169 294 169 294 158.5 330 c 128,-1,6
 148 366 148 366 148 406 c 0,7,8
 148 453 148 453 163 493 c 128,-1,9
 178 533 178 533 205 563 c 128,-1,10
 232 593 232 593 269.5 610 c 128,-1,11
 307 627 307 627 352 627 c 0,12,13
 398 627 398 627 436.5 610 c 128,-1,14
 475 593 475 593 502.5 563.5 c 128,-1,15
 530 534 530 534 545.5 494.5 c 128,-1,16
 561 455 561 455 561 410 c 0,17,18
 561 367 561 367 548.5 329.5 c 128,-1,19
 536 292 536 292 513.5 262 c 128,-1,20
 491 232 491 232 460.5 211 c 128,-1,21
 430 190 430 190 394 181 c 1,22,-1
 394 0 l 1,23,-1
 657 0 l 1,24,-1
 657 85 l 1,25,-1
 425 85 l 1,26,-1
 479 38 l 1,27,-1
 479 171 l 1,28,-1
 442 112 l 1,29,30
 491 126 491 126 531 154 c 128,-1,31
 571 182 571 182 599.5 221.5 c 128,-1,32
 628 261 628 261 643.5 309 c 128,-1,33
 659 357 659 357 659 411 c 0,34,35
 659 478 659 478 635 534 c 128,-1,36
 611 590 611 590 569.5 630.5 c 128,-1,37
 528 671 528 671 472 693.5 c 128,-1,38
 416 716 416 716 352 716 c 256,39,40
 288 716 288 716 232.5 693.5 c 128,-1,41
 177 671 177 671 136 631 c 128,-1,42
 95 591 95 591 72 535 c 128,-1,43
 49 479 49 479 49 411 c 0,44,45
 49 357 49 357 64.5 309 c 128,-1,46
 80 261 80 261 108.5 221.5 c 128,-1,47
 137 182 137 182 177.5 153 c 128,-1,48
 218 124 218 124 269 110 c 1,49,-1
 228 171 l 1,50,-1
 228 38 l 1,51,-1
 284 85 l 1,52,-1
 52 85 l 1,53,-1
 50 0 l 1,0,-1
100 871 m 1,54,-1
 4 655 l 1,55,-1
 54 630 l 1,56,-1
 171 820 l 1,57,-1
 100 871 l 1,54,-1
EndSplineSet
EndChar

StartChar: iotadieresistonos
Encoding: 912 912 426
Width: 353
GlyphClass: 1
Flags: W
LayerCount: 2
Fore
SplineSet
218 -8 m 0,0,1
 233 -8 233 -8 251.5 -5.5 c 128,-1,2
 270 -3 270 -3 287 5 c 1,3,-1
 271 82 l 1,4,5
 261 79 261 79 252 76 c 128,-1,6
 243 73 243 73 234 71 c 0,7,8
 215 73 215 73 206.5 90 c 128,-1,9
 198 107 198 107 198 160 c 0,10,11
 198 183 198 183 199.5 225.5 c 128,-1,12
 201 268 201 268 203 318 c 128,-1,13
 205 368 205 368 207 421 c 128,-1,14
 209 474 209 474 211 518 c 1,15,-1
 123 518 l 1,16,17
 122 463 122 463 121 411.5 c 128,-1,18
 120 360 120 360 119.5 310.5 c 128,-1,19
 119 261 119 261 118.5 213 c 128,-1,20
 118 165 118 165 118 119 c 0,21,22
 118 85 118 85 125.5 61 c 128,-1,23
 133 37 133 37 146 21.5 c 128,-1,24
 159 6 159 6 177.5 -1 c 128,-1,25
 196 -8 196 -8 218 -8 c 0,0,1
-33 653 m 0,26,27
 -33 627 -33 627 -15.5 609 c 128,-1,28
 2 591 2 591 28 591 c 0,29,30
 55 591 55 591 72 609 c 128,-1,31
 89 627 89 627 89 653 c 0,32,33
 89 680 89 680 72 696.5 c 128,-1,34
 55 713 55 713 28 713 c 0,35,36
 2 713 2 713 -15.5 696.5 c 128,-1,37
 -33 680 -33 680 -33 653 c 0,26,27
240 653 m 0,38,39
 240 627 240 627 258 609 c 128,-1,40
 276 591 276 591 301 591 c 0,41,42
 328 591 328 591 345 609 c 128,-1,43
 362 627 362 627 362 653 c 0,44,45
 362 680 362 680 345 696.5 c 128,-1,46
 328 713 328 713 301 713 c 0,47,48
 276 713 276 713 258 696.5 c 128,-1,49
 240 680 240 680 240 653 c 0,38,39
153 817 m 1,50,-1
 128 597 l 1,51,-1
 182 589 l 1,52,-1
 221 803 l 1,53,-1
 153 817 l 1,50,-1
EndSplineSet
EndChar

StartChar: Gamma
Encoding: 915 915 429
Width: 495
GlyphClass: 1
Flags: W
LayerCount: 2
Fore
SplineSet
561 708 m 1,0,-1
 561 629 l 1,1,-1
 172 629 l 1,2,-1
 172 10 l 1,3,-1
 84 10 l 1,4,-1
 84 708 l 1,5,-1
 561 708 l 1,0,-1
EndSplineSet
EndChar

StartChar: uni0394
Encoding: 916 916 430
Width: 633
GlyphClass: 1
Flags: W
LayerCount: 2
Fore
SplineSet
16 0 m 1,0,-1
 617 0 l 1,1,-1
 617 20 l 1,2,-1
 370 708 l 1,3,-1
 263 708 l 1,4,-1
 16 20 l 1,5,-1
 16 0 l 1,0,-1
120 75 m 1,6,-1
 241 402 l 1,7,-1
 314 624 l 1,8,-1
 318 624 l 1,9,-1
 394 402 l 1,10,-1
 511 75 l 1,11,-1
 120 75 l 1,6,-1
EndSplineSet
EndChar

StartChar: Theta
Encoding: 920 920 434
Width: 748
GlyphClass: 1
Flags: W
LayerCount: 2
Fore
SplineSet
192 314 m 1,0,-1
 548 314 l 1,1,-1
 548 395 l 1,2,-1
 192 395 l 1,3,-1
 192 314 l 1,0,-1
367 -5 m 0,4,5
 438 -5 438 -5 498 24 c 128,-1,6
 558 53 558 53 602 102 c 128,-1,7
 646 151 646 151 671 214.5 c 128,-1,8
 696 278 696 278 696 348 c 0,9,10
 696 414 696 414 672.5 477.5 c 128,-1,11
 649 541 649 541 606 591 c 128,-1,12
 563 641 563 641 502.5 672 c 128,-1,13
 442 703 442 703 369 703 c 0,14,15
 298 703 298 703 237.5 674 c 128,-1,16
 177 645 177 645 132.5 596 c 128,-1,17
 88 547 88 547 63 483 c 128,-1,18
 38 419 38 419 38 349 c 0,19,20
 38 282 38 282 62 218.5 c 128,-1,21
 86 155 86 155 129 105 c 128,-1,22
 172 55 172 55 232.5 25 c 128,-1,23
 293 -5 293 -5 367 -5 c 0,4,5
128 349 m 0,24,25
 128 400 128 400 144.5 449 c 128,-1,26
 161 498 161 498 192 536.5 c 128,-1,27
 223 575 223 575 267.5 598.5 c 128,-1,28
 312 622 312 622 368 622 c 0,29,30
 421 622 421 622 465 599.5 c 128,-1,31
 509 577 509 577 540.5 539 c 128,-1,32
 572 501 572 501 589.5 452 c 128,-1,33
 607 403 607 403 607 349 c 0,34,35
 607 299 607 299 590.5 249.5 c 128,-1,36
 574 200 574 200 543 161.5 c 128,-1,37
 512 123 512 123 467.5 99 c 128,-1,38
 423 75 423 75 368 75 c 0,39,40
 314 75 314 75 269.5 97.5 c 128,-1,41
 225 120 225 120 193.5 158.5 c 128,-1,42
 162 197 162 197 145 246.5 c 128,-1,43
 128 296 128 296 128 349 c 0,24,25
EndSplineSet
EndChar

StartChar: Lambda
Encoding: 923 923 437
Width: 662
GlyphClass: 1
Flags: W
LayerCount: 2
Fore
SplineSet
21 0 m 1,0,-1
 112 0 l 1,1,-1
 250 393 l 1,2,-1
 329 622 l 1,3,-1
 333 622 l 1,4,-1
 412 392 l 1,5,-1
 550 0 l 1,6,-1
 641 0 l 1,7,-1
 388 708 l 1,8,-1
 275 708 l 1,9,-1
 21 0 l 1,0,-1
EndSplineSet
EndChar

StartChar: Xi
Encoding: 926 926 440
Width: 630
GlyphClass: 1
Flags: W
LayerCount: 2
Fore
SplineSet
69 0 m 1,0,-1
 559 0 l 1,1,-1
 559 75 l 1,2,-1
 69 75 l 1,3,-1
 69 0 l 1,0,-1
139 320 m 1,4,-1
 489 320 l 1,5,-1
 489 394 l 1,6,-1
 139 394 l 1,7,-1
 139 320 l 1,4,-1
69 634 m 1,8,-1
 559 634 l 1,9,-1
 559 710 l 1,10,-1
 69 710 l 1,11,-1
 69 634 l 1,8,-1
EndSplineSet
EndChar

StartChar: Pi
Encoding: 928 928 442
Width: 642
GlyphClass: 1
Flags: W
LayerCount: 2
Fore
SplineSet
82 0 m 1,0,-1
 172 0 l 1,1,-1
 172 634 l 1,2,-1
 471 634 l 1,3,-1
 471 0 l 1,4,-1
 560 0 l 1,5,-1
 560 710 l 1,6,-1
 82 710 l 1,7,-1
 82 0 l 1,0,-1
EndSplineSet
EndChar

StartChar: Sigma
Encoding: 931 931 444
Width: 551
GlyphClass: 1
Flags: W
LayerCount: 2
Fore
SplineSet
50 0 m 1,0,-1
 508 0 l 1,1,-1
 508 75 l 1,2,-1
 171 75 l 1,3,-1
 389 362 l 1,4,-1
 174 634 l 1,5,-1
 482 634 l 1,6,-1
 482 710 l 1,7,-1
 54 710 l 1,8,-1
 54 657 l 1,9,-1
 293 361 l 1,10,-1
 50 52 l 1,11,-1
 50 0 l 1,0,-1
EndSplineSet
EndChar

StartChar: Upsilon
Encoding: 933 933 446
Width: 621
GlyphClass: 1
Flags: W
LayerCount: 2
Fore
SplineSet
266 0 m 1,0,-1
 354 0 l 1,1,-1
 354 239 l 2,2,3
 355 307 355 307 374 364 c 128,-1,4
 393 421 393 421 424 472 c 128,-1,5
 455 523 455 523 495.5 568.5 c 128,-1,6
 536 614 536 614 580 659 c 1,7,-1
 516 709 l 1,8,9
 471 664 471 664 438 628.5 c 128,-1,10
 405 593 405 593 381 559 c 128,-1,11
 357 525 357 525 340.5 489 c 128,-1,12
 324 453 324 453 312 407 c 1,13,-1
 307 407 l 1,14,15
 294 453 294 453 277.5 489.5 c 128,-1,16
 261 526 261 526 237.5 560 c 128,-1,17
 214 594 214 594 181.5 629.5 c 128,-1,18
 149 665 149 665 104 709 c 1,19,-1
 41 659 l 1,20,21
 82 618 82 618 122 574 c 128,-1,22
 162 530 162 530 194.5 479 c 128,-1,23
 227 428 227 428 246.5 369 c 128,-1,24
 266 310 266 310 266 239 c 2,25,-1
 266 0 l 1,0,-1
EndSplineSet
EndChar

StartChar: Phi
Encoding: 934 934 447
Width: 720
GlyphClass: 1
Flags: W
LayerCount: 2
Fore
SplineSet
344 152 m 1,0,1
 298 152 298 152 258.5 167.5 c 128,-1,2
 219 183 219 183 190.5 210 c 128,-1,3
 162 237 162 237 145.5 274.5 c 128,-1,4
 129 312 129 312 129 356 c 0,5,6
 129 401 129 401 145.5 438 c 128,-1,7
 162 475 162 475 190.5 502 c 128,-1,8
 219 529 219 529 258.5 544 c 128,-1,9
 298 559 298 559 344 559 c 1,10,-1
 344 635 l 1,11,12
 279 635 279 635 224.5 614.5 c 128,-1,13
 170 594 170 594 130.5 557 c 128,-1,14
 91 520 91 520 69 468.5 c 128,-1,15
 47 417 47 417 47 356 c 256,16,17
 47 295 47 295 69 244 c 128,-1,18
 91 193 91 193 130.5 156 c 128,-1,19
 170 119 170 119 224.5 98 c 128,-1,20
 279 77 279 77 344 77 c 1,21,-1
 344 152 l 1,0,1
403 -29 m 1,22,-1
 403 739 l 1,23,-1
 319 739 l 1,24,-1
 319 -29 l 1,25,-1
 403 -29 l 1,22,-1
381 77 m 1,26,27
 447 77 447 77 501.5 98 c 128,-1,28
 556 119 556 119 595 156 c 128,-1,29
 634 193 634 193 655.5 244 c 128,-1,30
 677 295 677 295 677 356 c 256,31,32
 677 417 677 417 655.5 468.5 c 128,-1,33
 634 520 634 520 595 557 c 128,-1,34
 556 594 556 594 501.5 614.5 c 128,-1,35
 447 635 447 635 381 635 c 1,36,-1
 381 559 l 1,37,38
 428 559 428 559 466.5 544 c 128,-1,39
 505 529 505 529 533 502 c 128,-1,40
 561 475 561 475 576.5 438 c 128,-1,41
 592 401 592 401 592 356 c 0,42,43
 592 312 592 312 576.5 274.5 c 128,-1,44
 561 237 561 237 533 210 c 128,-1,45
 505 183 505 183 466.5 167.5 c 128,-1,46
 428 152 428 152 381 152 c 1,47,-1
 381 77 l 1,26,27
EndSplineSet
EndChar

StartChar: Psi
Encoding: 936 936 449
Width: 742
GlyphClass: 1
Flags: W
LayerCount: 2
Fore
SplineSet
329 0 m 1,0,-1
 414 0 l 1,1,-1
 414 708 l 1,2,-1
 329 708 l 1,3,-1
 329 0 l 1,0,-1
79 432 m 2,4,5
 79 375 79 375 95 328.5 c 128,-1,6
 111 282 111 282 144 249 c 128,-1,7
 177 216 177 216 227.5 197.5 c 128,-1,8
 278 179 278 179 346 179 c 1,9,-1
 344 250 l 1,10,11
 296 250 296 250 261 263 c 128,-1,12
 226 276 226 276 203.5 299.5 c 128,-1,13
 181 323 181 323 170 355.5 c 128,-1,14
 159 388 159 388 159 428 c 0,15,16
 159 441 159 441 160 459 c 128,-1,17
 161 477 161 477 161.5 498 c 128,-1,18
 162 519 162 519 162 542 c 128,-1,19
 162 565 162 565 162 588 c 0,20,21
 163 623 163 623 161.5 654 c 128,-1,22
 160 685 160 685 152 708 c 1,23,-1
 67 708 l 1,24,25
 72 686 72 686 74.5 667 c 128,-1,26
 77 648 77 648 78 630.5 c 128,-1,27
 79 613 79 613 79 596.5 c 128,-1,28
 79 580 79 580 79 564 c 2,29,-1
 79 432 l 2,4,5
662 564 m 2,30,31
 662 581 662 581 662 597.5 c 128,-1,32
 662 614 662 614 663 631.5 c 128,-1,33
 664 649 664 649 666.5 667.5 c 128,-1,34
 669 686 669 686 673 708 c 1,35,-1
 589 708 l 1,36,37
 581 685 581 685 580 654 c 128,-1,38
 579 623 579 623 579 588 c 0,39,40
 579 565 579 565 579.5 542 c 128,-1,41
 580 519 580 519 580 498 c 128,-1,42
 580 477 580 477 580.5 459 c 128,-1,43
 581 441 581 441 581 428 c 0,44,45
 581 389 581 389 570.5 356 c 128,-1,46
 560 323 560 323 538 299.5 c 128,-1,47
 516 276 516 276 481.5 263 c 128,-1,48
 447 250 447 250 400 250 c 1,49,-1
 397 179 l 1,50,51
 466 179 466 179 516 198 c 128,-1,52
 566 217 566 217 598.5 250 c 128,-1,53
 631 283 631 283 646.5 329.5 c 128,-1,54
 662 376 662 376 662 432 c 2,55,-1
 662 564 l 2,30,31
EndSplineSet
EndChar

StartChar: uni03A9
Encoding: 937 937 450
Width: 707
GlyphClass: 1
Flags: W
LayerCount: 2
Fore
SplineSet
50 0 m 1,0,-1
 311 0 l 1,1,-1
 311 181 l 1,2,3
 272 193 272 193 241.5 214 c 128,-1,4
 211 235 211 235 190 264.5 c 128,-1,5
 169 294 169 294 158.5 330 c 128,-1,6
 148 366 148 366 148 406 c 0,7,8
 148 453 148 453 163 493 c 128,-1,9
 178 533 178 533 205 563 c 128,-1,10
 232 593 232 593 269.5 610 c 128,-1,11
 307 627 307 627 352 627 c 0,12,13
 398 627 398 627 436.5 610 c 128,-1,14
 475 593 475 593 502.5 563.5 c 128,-1,15
 530 534 530 534 545.5 494.5 c 128,-1,16
 561 455 561 455 561 410 c 0,17,18
 561 367 561 367 548.5 329.5 c 128,-1,19
 536 292 536 292 513.5 262 c 128,-1,20
 491 232 491 232 460.5 211 c 128,-1,21
 430 190 430 190 394 181 c 1,22,-1
 394 0 l 1,23,-1
 657 0 l 1,24,-1
 657 85 l 1,25,-1
 425 85 l 1,26,-1
 479 38 l 1,27,-1
 479 171 l 1,28,-1
 442 112 l 1,29,30
 491 126 491 126 531 154 c 128,-1,31
 571 182 571 182 599.5 221.5 c 128,-1,32
 628 261 628 261 643.5 309 c 128,-1,33
 659 357 659 357 659 411 c 0,34,35
 659 478 659 478 635 534 c 128,-1,36
 611 590 611 590 569.5 630.5 c 128,-1,37
 528 671 528 671 472 693.5 c 128,-1,38
 416 716 416 716 352 716 c 256,39,40
 288 716 288 716 232.5 693.5 c 128,-1,41
 177 671 177 671 136 631 c 128,-1,42
 95 591 95 591 72 535 c 128,-1,43
 49 479 49 479 49 411 c 0,44,45
 49 357 49 357 64.5 309 c 128,-1,46
 80 261 80 261 108.5 221.5 c 128,-1,47
 137 182 137 182 177.5 153 c 128,-1,48
 218 124 218 124 269 110 c 1,49,-1
 228 171 l 1,50,-1
 228 38 l 1,51,-1
 284 85 l 1,52,-1
 52 85 l 1,53,-1
 50 0 l 1,0,-1
EndSplineSet
EndChar

StartChar: Iotadieresis
Encoding: 938 938 451
Width: 319
GlyphClass: 1
Flags: W
LayerCount: 2
Fore
SplineSet
172 0 m 1,0,-1
 172 698 l 1,1,-1
 84 698 l 1,2,-1
 84 0 l 1,3,-1
 172 0 l 1,0,-1
11 848 m 256,4,5
 11 825 11 825 24.5 809 c 128,-1,6
 38 793 38 793 58 793 c 256,7,8
 78 793 78 793 92 809 c 128,-1,9
 106 825 106 825 106 848 c 256,10,11
 106 871 106 871 92 887 c 128,-1,12
 78 903 78 903 58 903 c 256,13,14
 38 903 38 903 24.5 887 c 128,-1,15
 11 871 11 871 11 848 c 256,4,5
148 848 m 256,16,17
 148 825 148 825 162.5 809 c 128,-1,18
 177 793 177 793 197 793 c 256,19,20
 217 793 217 793 230.5 809 c 128,-1,21
 244 825 244 825 244 848 c 256,22,23
 244 871 244 871 230.5 887 c 128,-1,24
 217 903 217 903 197 903 c 256,25,26
 177 903 177 903 162.5 887 c 128,-1,27
 148 871 148 871 148 848 c 256,16,17
EndSplineSet
EndChar

StartChar: alphatonos
Encoding: 940 940 453
Width: 649
GlyphClass: 1
Flags: W
LayerCount: 2
Fore
SplineSet
420 248 m 2,0,1
 413 225 413 225 403.5 195.5 c 128,-1,2
 394 166 394 166 377.5 140 c 128,-1,3
 361 114 361 114 335 96.5 c 128,-1,4
 309 79 309 79 269 79 c 0,5,6
 240 79 240 79 214 89.5 c 128,-1,7
 188 100 188 100 168.5 121.5 c 128,-1,8
 149 143 149 143 137.5 176.5 c 128,-1,9
 126 210 126 210 126 256 c 0,10,11
 126 305 126 305 138 340.5 c 128,-1,12
 150 376 150 376 169 398.5 c 128,-1,13
 188 421 188 421 212 432 c 128,-1,14
 236 443 236 443 259 443 c 0,15,16
 284 443 284 443 304 432 c 128,-1,17
 324 421 324 421 340.5 402.5 c 128,-1,18
 357 384 357 384 369 359.5 c 128,-1,19
 381 335 381 335 390.5 308 c 128,-1,20
 400 281 400 281 406.5 253.5 c 128,-1,21
 413 226 413 226 417 201 c 1,22,-1
 464 284 l 1,23,24
 457 330 457 330 441 374 c 128,-1,25
 425 418 425 418 399 452 c 128,-1,26
 373 486 373 486 336.5 507 c 128,-1,27
 300 528 300 528 253 528 c 0,28,29
 207 528 207 528 168 507.5 c 128,-1,30
 129 487 129 487 101.5 451 c 128,-1,31
 74 415 74 415 58.5 365.5 c 128,-1,32
 43 316 43 316 43 258 c 256,33,34
 43 200 43 200 59 151 c 128,-1,35
 75 102 75 102 104 67 c 128,-1,36
 133 32 133 32 172.5 12 c 128,-1,37
 212 -8 212 -8 258 -8 c 0,38,39
 298 -8 298 -8 333 6.5 c 128,-1,40
 368 21 368 21 396 46.5 c 128,-1,41
 424 72 424 72 445 107 c 128,-1,42
 466 142 466 142 479 184 c 2,43,-1
 587 520 l 1,44,-1
 501 520 l 1,45,-1
 420 248 l 2,0,1
594 71 m 1,46,-1
 570 84 l 2,47,48
 560 89 560 89 549 98 c 128,-1,49
 538 107 538 107 526 121.5 c 128,-1,50
 514 136 514 136 502.5 156 c 128,-1,51
 491 176 491 176 481 203 c 1,52,-1
 433 141 l 1,53,54
 437 113 437 113 445.5 91 c 128,-1,55
 454 69 454 69 467 52 c 128,-1,56
 480 35 480 35 495.5 22.5 c 128,-1,57
 511 10 511 10 529 1 c 2,58,-1
 549 -8 l 1,59,-1
 594 71 l 1,46,-1
286 803 m 1,60,-1
 260 581 l 1,61,-1
 315 573 l 1,62,-1
 354 789 l 1,63,-1
 286 803 l 1,60,-1
EndSplineSet
EndChar

StartChar: epsilontonos
Encoding: 941 941 454
Width: 484
GlyphClass: 1
Flags: W
LayerCount: 2
Fore
SplineSet
419 99 m 1,0,1
 375 87 375 87 343 82 c 128,-1,2
 311 77 311 77 280 77 c 0,3,4
 213 77 213 77 177.5 98.5 c 128,-1,5
 142 120 142 120 142 158 c 0,6,7
 142 178 142 178 153 191 c 128,-1,8
 164 204 164 204 182.5 211.5 c 128,-1,9
 201 219 201 219 226.5 222 c 128,-1,10
 252 225 252 225 281 225 c 2,11,-1
 329 225 l 1,12,-1
 329 310 l 1,13,-1
 277 310 l 2,14,15
 252 310 252 310 230.5 314.5 c 128,-1,16
 209 319 209 319 193.5 327 c 128,-1,17
 178 335 178 335 169 347.5 c 128,-1,18
 160 360 160 360 160 376 c 0,19,20
 160 390 160 390 166 401.5 c 128,-1,21
 172 413 172 413 186 422 c 128,-1,22
 200 431 200 431 223 436 c 128,-1,23
 246 441 246 441 279 441 c 0,24,25
 296 441 296 441 313.5 439.5 c 128,-1,26
 331 438 331 438 348 435.5 c 128,-1,27
 365 433 365 433 379.5 429.5 c 128,-1,28
 394 426 394 426 405 421 c 1,29,-1
 432 504 l 1,30,31
 414 513 414 513 395 517.5 c 128,-1,32
 376 522 376 522 356.5 524.5 c 128,-1,33
 337 527 337 527 318.5 527.5 c 128,-1,34
 300 528 300 528 283 528 c 0,35,36
 231 528 231 528 192 517.5 c 128,-1,37
 153 507 153 507 127 488 c 128,-1,38
 101 469 101 469 88 444.5 c 128,-1,39
 75 420 75 420 75 391 c 0,40,41
 75 370 75 370 82 351.5 c 128,-1,42
 89 333 89 333 99.5 317.5 c 128,-1,43
 110 302 110 302 122.5 291.5 c 128,-1,44
 135 281 135 281 147 276 c 1,45,-1
 147 274 l 1,46,47
 131 268 131 268 114.5 255.5 c 128,-1,48
 98 243 98 243 84.5 226 c 128,-1,49
 71 209 71 209 63 187.5 c 128,-1,50
 55 166 55 166 55 141 c 0,51,52
 55 106 55 106 72 78 c 128,-1,53
 89 50 89 50 119 31 c 128,-1,54
 149 12 149 12 189.5 2 c 128,-1,55
 230 -8 230 -8 276 -8 c 0,56,57
 298 -8 298 -8 321.5 -6.5 c 128,-1,58
 345 -5 345 -5 367 -2 c 128,-1,59
 389 1 389 1 407.5 4.5 c 128,-1,60
 426 8 426 8 438 12 c 1,61,-1
 419 99 l 1,0,1
277 845 m 1,62,-1
 251 623 l 1,63,-1
 306 615 l 1,64,-1
 345 831 l 1,65,-1
 277 845 l 1,62,-1
EndSplineSet
EndChar

StartChar: etatonos
Encoding: 942 942 455
Width: 589
GlyphClass: 1
Flags: W
LayerCount: 2
Fore
SplineSet
147 0 m 1,0,1
 156 94 156 94 163 177 c 128,-1,2
 170 260 170 260 169 339 c 0,3,4
 169 374 169 374 165 403 c 128,-1,5
 161 432 161 432 149.5 455 c 128,-1,6
 138 478 138 478 119.5 496.5 c 128,-1,7
 101 515 101 515 72 528 c 1,8,-1
 24 451 l 1,9,10
 39 443 39 443 50 432 c 128,-1,11
 61 421 61 421 67.5 403 c 128,-1,12
 74 385 74 385 77 358 c 128,-1,13
 80 331 80 331 80 291 c 0,14,15
 80 228 80 228 74 152 c 128,-1,16
 68 76 68 76 59 0 c 1,17,-1
 147 0 l 1,0,1
451 -206 m 1,18,19
 461 -163 461 -163 470 -104 c 128,-1,20
 479 -45 479 -45 486.5 18 c 128,-1,21
 494 81 494 81 498.5 143.5 c 128,-1,22
 503 206 503 206 503 258 c 0,23,24
 502 401 502 401 465 464.5 c 128,-1,25
 428 528 428 528 348 528 c 0,26,27
 313 528 313 528 279 515.5 c 128,-1,28
 245 503 245 503 217 481.5 c 128,-1,29
 189 460 189 460 169.5 430.5 c 128,-1,30
 150 401 150 401 144 367 c 1,31,-1
 165 202 l 1,32,33
 167 250 167 250 179 292.5 c 128,-1,34
 191 335 191 335 211 367 c 128,-1,35
 231 399 231 399 257.5 417.5 c 128,-1,36
 284 436 284 436 316 436 c 0,37,38
 367 436 367 436 390.5 388 c 128,-1,39
 414 340 414 340 415 231 c 0,40,41
 415 192 415 192 411.5 144.5 c 128,-1,42
 408 97 408 97 402 41.5 c 128,-1,43
 396 -14 396 -14 386 -76 c 128,-1,44
 376 -138 376 -138 362 -206 c 1,45,-1
 451 -206 l 1,18,19
322 803 m 1,46,-1
 296 581 l 1,47,-1
 351 573 l 1,48,-1
 390 789 l 1,49,-1
 322 803 l 1,46,-1
EndSplineSet
EndChar

StartChar: iotatonos
Encoding: 943 943 456
Width: 291
GlyphClass: 1
Flags: W
LayerCount: 2
Fore
SplineSet
180 -8 m 0,0,1
 195 -8 195 -8 213.5 -5.5 c 128,-1,2
 232 -3 232 -3 249 5 c 1,3,-1
 233 83 l 1,4,5
 223 79 223 79 214 76.5 c 128,-1,6
 205 74 205 74 196 72 c 0,7,8
 177 74 177 74 168.5 91 c 128,-1,9
 160 108 160 108 159 161 c 0,10,11
 159 185 159 185 160.5 227.5 c 128,-1,12
 162 270 162 270 164 321 c 128,-1,13
 166 372 166 372 168.5 425 c 128,-1,14
 171 478 171 478 172 522 c 1,15,-1
 84 522 l 1,16,17
 83 467 83 467 82 415 c 128,-1,18
 81 363 81 363 80 313 c 128,-1,19
 79 263 79 263 79 215 c 128,-1,20
 79 167 79 167 79 120 c 0,21,22
 79 86 79 86 86.5 61.5 c 128,-1,23
 94 37 94 37 107 21.5 c 128,-1,24
 120 6 120 6 139 -1 c 128,-1,25
 158 -8 158 -8 180 -8 c 0,0,1
122 811 m 1,26,-1
 96 589 l 1,27,-1
 151 581 l 1,28,-1
 190 797 l 1,29,-1
 122 811 l 1,26,-1
EndSplineSet
EndChar

StartChar: upsilondieresistonos
Encoding: 944 944 457
Width: 561
GlyphClass: 1
Flags: W
LayerCount: 2
Fore
SplineSet
76 176 m 0,0,1
 76 127 76 127 93 92 c 128,-1,2
 110 57 110 57 138 34.5 c 128,-1,3
 166 12 166 12 203.5 2 c 128,-1,4
 241 -8 241 -8 281 -8 c 0,5,6
 332 -8 332 -8 372.5 8.5 c 128,-1,7
 413 25 413 25 442 60 c 128,-1,8
 471 95 471 95 486.5 149 c 128,-1,9
 502 203 502 203 502 277 c 0,10,11
 502 302 502 302 501.5 333 c 128,-1,12
 501 364 501 364 498.5 397 c 128,-1,13
 496 430 496 430 492 462.5 c 128,-1,14
 488 495 488 495 482 522 c 1,15,-1
 398 522 l 1,16,17
 405 487 405 487 409.5 453 c 128,-1,18
 414 419 414 419 416.5 387.5 c 128,-1,19
 419 356 419 356 419.5 328 c 128,-1,20
 420 300 420 300 420 279 c 0,21,22
 421 169 421 169 385 121 c 128,-1,23
 349 73 349 73 281 72 c 0,24,25
 256 72 256 72 233.5 78.5 c 128,-1,26
 211 85 211 85 194.5 98.5 c 128,-1,27
 178 112 178 112 168 133.5 c 128,-1,28
 158 155 158 155 157 186 c 0,29,30
 158 197 158 197 159 213.5 c 128,-1,31
 160 230 160 230 161 250 c 128,-1,32
 162 270 162 270 163 292 c 128,-1,33
 164 314 164 314 164 336 c 0,34,35
 164 367 164 367 162.5 392 c 128,-1,36
 161 417 161 417 157.5 439 c 128,-1,37
 154 461 154 461 149.5 481 c 128,-1,38
 145 501 145 501 139 522 c 1,39,-1
 58 522 l 1,40,41
 69 481 69 481 75.5 436 c 128,-1,42
 82 391 82 391 82 334 c 0,43,44
 82 312 82 312 81 289 c 128,-1,45
 80 266 80 266 79 245 c 128,-1,46
 78 224 78 224 77 206 c 128,-1,47
 76 188 76 188 76 176 c 0,0,1
61 650 m 0,48,49
 61 624 61 624 79 606 c 128,-1,50
 97 588 97 588 124 588 c 256,51,52
 151 588 151 588 168 606 c 128,-1,53
 185 624 185 624 185 650 c 0,54,55
 185 677 185 677 168 694 c 128,-1,56
 151 711 151 711 124 711 c 256,57,58
 97 711 97 711 79 694 c 128,-1,59
 61 677 61 677 61 650 c 0,48,49
338 650 m 0,60,61
 338 624 338 624 356.5 606 c 128,-1,62
 375 588 375 588 401 588 c 0,63,64
 428 588 428 588 445 606 c 128,-1,65
 462 624 462 624 462 650 c 0,66,67
 462 677 462 677 445 694 c 128,-1,68
 428 711 428 711 401 711 c 0,69,70
 375 711 375 711 356.5 694 c 128,-1,71
 338 677 338 677 338 650 c 0,60,61
251 816 m 1,72,-1
 225 594 l 1,73,-1
 280 586 l 1,74,-1
 319 802 l 1,75,-1
 251 816 l 1,72,-1
EndSplineSet
EndChar

StartChar: alpha
Encoding: 945 945 458
Width: 619
GlyphClass: 1
Flags: W
LayerCount: 2
Fore
SplineSet
420 248 m 2,0,1
 413 225 413 225 403.5 195.5 c 128,-1,2
 394 166 394 166 377.5 140 c 128,-1,3
 361 114 361 114 335 96.5 c 128,-1,4
 309 79 309 79 269 79 c 0,5,6
 240 79 240 79 214 89.5 c 128,-1,7
 188 100 188 100 168.5 121.5 c 128,-1,8
 149 143 149 143 137.5 176.5 c 128,-1,9
 126 210 126 210 126 256 c 0,10,11
 126 305 126 305 138 340.5 c 128,-1,12
 150 376 150 376 169 398.5 c 128,-1,13
 188 421 188 421 212 432 c 128,-1,14
 236 443 236 443 259 443 c 0,15,16
 284 443 284 443 304 432 c 128,-1,17
 324 421 324 421 340.5 402.5 c 128,-1,18
 357 384 357 384 369 359.5 c 128,-1,19
 381 335 381 335 390.5 308 c 128,-1,20
 400 281 400 281 406.5 253.5 c 128,-1,21
 413 226 413 226 417 201 c 1,22,-1
 464 284 l 1,23,24
 457 330 457 330 441 374 c 128,-1,25
 425 418 425 418 399 452 c 128,-1,26
 373 486 373 486 336.5 507 c 128,-1,27
 300 528 300 528 253 528 c 0,28,29
 207 528 207 528 168 507.5 c 128,-1,30
 129 487 129 487 101.5 451 c 128,-1,31
 74 415 74 415 58.5 365.5 c 128,-1,32
 43 316 43 316 43 258 c 256,33,34
 43 200 43 200 59 151 c 128,-1,35
 75 102 75 102 104 67 c 128,-1,36
 133 32 133 32 172.5 12 c 128,-1,37
 212 -8 212 -8 258 -8 c 0,38,39
 298 -8 298 -8 333 6.5 c 128,-1,40
 368 21 368 21 396 46.5 c 128,-1,41
 424 72 424 72 445 107 c 128,-1,42
 466 142 466 142 479 184 c 2,43,-1
 587 520 l 1,44,-1
 501 520 l 1,45,-1
 420 248 l 2,0,1
594 71 m 1,46,-1
 570 84 l 2,47,48
 560 89 560 89 549 98 c 128,-1,49
 538 107 538 107 526 121.5 c 128,-1,50
 514 136 514 136 502.5 156 c 128,-1,51
 491 176 491 176 481 203 c 1,52,-1
 433 141 l 1,53,54
 437 113 437 113 445.5 91 c 128,-1,55
 454 69 454 69 467 52 c 128,-1,56
 480 35 480 35 495.5 22.5 c 128,-1,57
 511 10 511 10 529 1 c 2,58,-1
 549 -8 l 1,59,-1
 594 71 l 1,46,-1
EndSplineSet
EndChar

StartChar: beta
Encoding: 946 946 459
Width: 657
GlyphClass: 1
Flags: W
LayerCount: 2
Fore
SplineSet
156 58 m 1,0,1
 177 40 177 40 202 27.5 c 128,-1,2
 227 15 227 15 253.5 7 c 128,-1,3
 280 -1 280 -1 306 -4.5 c 128,-1,4
 332 -8 332 -8 356 -8 c 0,5,6
 408 -8 408 -8 452 10.5 c 128,-1,7
 496 29 496 29 528 60.5 c 128,-1,8
 560 92 560 92 578 133.5 c 128,-1,9
 596 175 596 175 596 220 c 0,10,11
 596 258 596 258 584 291.5 c 128,-1,12
 572 325 572 325 548.5 351.5 c 128,-1,13
 525 378 525 378 490.5 396 c 128,-1,14
 456 414 456 414 411 419 c 1,15,-1
 411 423 l 1,16,17
 437 438 437 438 457 457 c 128,-1,18
 477 476 477 476 490.5 498.5 c 128,-1,19
 504 521 504 521 511.5 546 c 128,-1,20
 519 571 519 571 519 598 c 0,21,22
 519 632 519 632 505 663 c 128,-1,23
 491 694 491 694 464.5 717 c 128,-1,24
 438 740 438 740 401 753.5 c 128,-1,25
 364 767 364 767 317 766 c 0,26,27
 258 767 258 767 215 745 c 128,-1,28
 172 723 172 723 143.5 684 c 128,-1,29
 115 645 115 645 101 591.5 c 128,-1,30
 87 538 87 538 87 475 c 2,31,-1
 87 -207 l 1,32,-1
 174 -207 l 1,33,34
 172 -124 172 -124 169 -55.5 c 128,-1,35
 166 13 166 13 163 61 c 2,36,-1
 164 122 l 2,37,38
 166 161 166 161 166.5 197 c 128,-1,39
 167 233 167 233 167.5 273 c 128,-1,40
 168 313 168 313 168 361.5 c 128,-1,41
 168 410 168 410 168 474 c 0,42,43
 168 522 168 522 176.5 562 c 128,-1,44
 185 602 185 602 202.5 630.5 c 128,-1,45
 220 659 220 659 247.5 674.5 c 128,-1,46
 275 690 275 690 314 690 c 0,47,48
 344 690 344 690 367 681 c 128,-1,49
 390 672 390 672 405.5 656.5 c 128,-1,50
 421 641 421 641 429 621.5 c 128,-1,51
 437 602 437 602 437 581 c 0,52,53
 437 557 437 557 426.5 533.5 c 128,-1,54
 416 510 416 510 395 490 c 128,-1,55
 374 470 374 470 343 455 c 128,-1,56
 312 440 312 440 271 432 c 1,57,-1
 271 370 l 1,58,59
 273 371 273 371 280.5 372 c 128,-1,60
 288 373 288 373 298.5 373.5 c 128,-1,61
 309 374 309 374 320.5 374.5 c 128,-1,62
 332 375 332 375 341 374 c 0,63,64
 381 375 381 375 414 363.5 c 128,-1,65
 447 352 447 352 470.5 332 c 128,-1,66
 494 312 494 312 507 284.5 c 128,-1,67
 520 257 520 257 520 225 c 0,68,69
 520 192 520 192 506.5 163.5 c 128,-1,70
 493 135 493 135 469 113.5 c 128,-1,71
 445 92 445 92 413.5 79.5 c 128,-1,72
 382 67 382 67 346 67 c 0,73,74
 327 67 327 67 303 71.5 c 128,-1,75
 279 76 279 76 253.5 85 c 128,-1,76
 228 94 228 94 203 108 c 128,-1,77
 178 122 178 122 156 143 c 1,78,-1
 156 58 l 1,0,1
EndSplineSet
EndChar

StartChar: gamma
Encoding: 947 947 460
Width: 559
GlyphClass: 1
Flags: W
LayerCount: 2
Fore
SplineSet
280 -207 m 1,0,1
 291 -95 291 -95 294.5 13.5 c 128,-1,2
 298 122 298 122 282 219 c 128,-1,3
 266 316 266 316 224 397.5 c 128,-1,4
 182 479 182 479 102 537 c 1,5,-1
 53 469 l 1,6,7
 97 439 97 439 126.5 394.5 c 128,-1,8
 156 350 156 350 174.5 296 c 128,-1,9
 193 242 193 242 201.5 180.5 c 128,-1,10
 210 119 210 119 211.5 54 c 128,-1,11
 213 -11 213 -11 209 -77.5 c 128,-1,12
 205 -144 205 -144 198 -207 c 1,13,-1
 280 -207 l 1,0,1
274 0 m 1,14,15
 332 76 332 76 373.5 142 c 128,-1,16
 415 208 415 208 444.5 270 c 128,-1,17
 474 332 474 332 494 393.5 c 128,-1,18
 514 455 514 455 529 522 c 1,19,-1
 440 522 l 1,20,21
 432 467 432 467 414 411 c 128,-1,22
 396 355 396 355 372 301.5 c 128,-1,23
 348 248 348 248 319.5 199.5 c 128,-1,24
 291 151 291 151 261 109 c 1,25,-1
 274 0 l 1,14,15
EndSplineSet
EndChar

StartChar: delta
Encoding: 948 948 461
Width: 611
GlyphClass: 1
Flags: W
LayerCount: 2
Fore
SplineSet
312 -8 m 0,0,1
 366 -8 366 -8 411.5 11.5 c 128,-1,2
 457 31 457 31 490.5 65.5 c 128,-1,3
 524 100 524 100 543 147.5 c 128,-1,4
 562 195 562 195 562 252 c 0,5,6
 562 310 562 310 543.5 354 c 128,-1,7
 525 398 525 398 497.5 431 c 128,-1,8
 470 464 470 464 438 487.5 c 128,-1,9
 406 511 406 511 378 529 c 0,10,11
 353 543 353 543 329 556.5 c 128,-1,12
 305 570 305 570 285.5 584 c 128,-1,13
 266 598 266 598 254 612.5 c 128,-1,14
 242 627 242 627 242 642 c 0,15,16
 242 659 242 659 258.5 668.5 c 128,-1,17
 275 678 275 678 306 678 c 0,18,19
 331 678 331 678 361 671.5 c 128,-1,20
 391 665 391 665 422 653.5 c 128,-1,21
 453 642 453 642 482.5 626 c 128,-1,22
 512 610 512 610 535 591 c 1,23,-1
 577 664 l 1,24,25
 557 681 557 681 526 699 c 128,-1,26
 495 717 495 717 458 731 c 128,-1,27
 421 745 421 745 380.5 754 c 128,-1,28
 340 763 340 763 299 763 c 0,29,30
 227 764 227 764 185.5 733.5 c 128,-1,31
 144 703 144 703 144 651 c 0,32,33
 144 618 144 618 160 593 c 128,-1,34
 176 568 176 568 200.5 547 c 128,-1,35
 225 526 225 526 255.5 508.5 c 128,-1,36
 286 491 286 491 314 474 c 0,37,38
 343 457 343 457 372.5 436 c 128,-1,39
 402 415 402 415 426 388.5 c 128,-1,40
 450 362 450 362 464.5 328 c 128,-1,41
 479 294 479 294 479 252 c 0,42,43
 479 213 479 213 466.5 181.5 c 128,-1,44
 454 150 454 150 431.5 127 c 128,-1,45
 409 104 409 104 378 91.5 c 128,-1,46
 347 79 347 79 312 79 c 256,47,48
 277 79 277 79 245.5 92 c 128,-1,49
 214 105 214 105 190 128 c 128,-1,50
 166 151 166 151 152 182.5 c 128,-1,51
 138 214 138 214 138 252 c 256,52,53
 138 290 138 290 151.5 322.5 c 128,-1,54
 165 355 165 355 189 379.5 c 128,-1,55
 213 404 213 404 245 418 c 128,-1,56
 277 432 277 432 314 432 c 0,57,58
 345 432 345 432 377 422.5 c 128,-1,59
 409 413 409 413 433 393 c 1,60,-1
 387 476 l 1,61,62
 368 488 368 488 340.5 494 c 128,-1,63
 313 500 313 500 287 501 c 0,64,65
 238 502 238 502 195.5 483 c 128,-1,66
 153 464 153 464 122.5 430.5 c 128,-1,67
 92 397 92 397 74.5 351.5 c 128,-1,68
 57 306 57 306 57 253 c 0,69,70
 57 199 57 199 76 151.5 c 128,-1,71
 95 104 95 104 128.5 68.5 c 128,-1,72
 162 33 162 33 209 12.5 c 128,-1,73
 256 -8 256 -8 312 -8 c 0,0,1
EndSplineSet
EndChar

StartChar: epsilon
Encoding: 949 949 462
Width: 475
GlyphClass: 1
Flags: W
LayerCount: 2
Fore
SplineSet
419 99 m 1,0,1
 375 87 375 87 343 82 c 128,-1,2
 311 77 311 77 280 77 c 0,3,4
 213 77 213 77 177.5 98.5 c 128,-1,5
 142 120 142 120 142 158 c 0,6,7
 142 178 142 178 153 191 c 128,-1,8
 164 204 164 204 182.5 211.5 c 128,-1,9
 201 219 201 219 226.5 222 c 128,-1,10
 252 225 252 225 281 225 c 2,11,-1
 329 225 l 1,12,-1
 329 310 l 1,13,-1
 277 310 l 2,14,15
 252 310 252 310 230.5 314.5 c 128,-1,16
 209 319 209 319 193.5 327 c 128,-1,17
 178 335 178 335 169 347.5 c 128,-1,18
 160 360 160 360 160 376 c 0,19,20
 160 390 160 390 166 401.5 c 128,-1,21
 172 413 172 413 186 422 c 128,-1,22
 200 431 200 431 223 436 c 128,-1,23
 246 441 246 441 279 441 c 0,24,25
 296 441 296 441 313.5 439.5 c 128,-1,26
 331 438 331 438 348 435.5 c 128,-1,27
 365 433 365 433 379.5 429.5 c 128,-1,28
 394 426 394 426 405 421 c 1,29,-1
 432 504 l 1,30,31
 414 513 414 513 395 517.5 c 128,-1,32
 376 522 376 522 356.5 524.5 c 128,-1,33
 337 527 337 527 318.5 527.5 c 128,-1,34
 300 528 300 528 283 528 c 0,35,36
 231 528 231 528 192 517.5 c 128,-1,37
 153 507 153 507 127 488 c 128,-1,38
 101 469 101 469 88 444.5 c 128,-1,39
 75 420 75 420 75 391 c 0,40,41
 75 370 75 370 82 351.5 c 128,-1,42
 89 333 89 333 99.5 317.5 c 128,-1,43
 110 302 110 302 122.5 291.5 c 128,-1,44
 135 281 135 281 147 276 c 1,45,-1
 147 274 l 1,46,47
 131 268 131 268 114.5 255.5 c 128,-1,48
 98 243 98 243 84.5 226 c 128,-1,49
 71 209 71 209 63 187.5 c 128,-1,50
 55 166 55 166 55 141 c 0,51,52
 55 106 55 106 72 78 c 128,-1,53
 89 50 89 50 119 31 c 128,-1,54
 149 12 149 12 189.5 2 c 128,-1,55
 230 -8 230 -8 276 -8 c 0,56,57
 298 -8 298 -8 321.5 -6.5 c 128,-1,58
 345 -5 345 -5 367 -2 c 128,-1,59
 389 1 389 1 407.5 4.5 c 128,-1,60
 426 8 426 8 438 12 c 1,61,-1
 419 99 l 1,0,1
EndSplineSet
EndChar

StartChar: zeta
Encoding: 950 950 463
Width: 492
GlyphClass: 1
Flags: W
LayerCount: 2
Fore
SplineSet
332 -179 m 0,0,1
 368 -179 368 -179 399 -168 c 128,-1,2
 430 -157 430 -157 453.5 -137.5 c 128,-1,3
 477 -118 477 -118 490.5 -91 c 128,-1,4
 504 -64 504 -64 504 -32 c 0,5,6
 504 -7 504 -7 495 14 c 128,-1,7
 486 35 486 35 470 50.5 c 128,-1,8
 454 66 454 66 431.5 74.5 c 128,-1,9
 409 83 409 83 382 83 c 0,10,11
 366 83 366 83 334.5 81 c 128,-1,12
 303 79 303 79 276 79 c 0,13,14
 257 79 257 79 234.5 82 c 128,-1,15
 212 85 212 85 193 97 c 128,-1,16
 174 109 174 109 161.5 132.5 c 128,-1,17
 149 156 149 156 150 196 c 0,18,19
 151 235 151 235 163.5 277 c 128,-1,20
 176 319 176 319 197.5 362 c 128,-1,21
 219 405 219 405 248 447.5 c 128,-1,22
 277 490 277 490 311 528.5 c 128,-1,23
 345 567 345 567 381.5 600 c 128,-1,24
 418 633 418 633 455 658 c 1,25,-1
 453 721 l 1,26,-1
 285 721 l 2,27,28
 272 721 272 721 260.5 722.5 c 128,-1,29
 249 724 249 724 240 727.5 c 128,-1,30
 231 731 231 731 226 737.5 c 128,-1,31
 221 744 221 744 221 753 c 0,32,33
 221 761 221 761 224 772.5 c 128,-1,34
 227 784 227 784 233 792 c 1,35,-1
 157 822 l 1,36,37
 146 803 146 803 140 787 c 128,-1,38
 134 771 134 771 134 753 c 0,39,40
 134 705 134 705 170.5 674.5 c 128,-1,41
 207 644 207 644 274 645 c 2,42,-1
 367 645 l 1,43,-1
 344 683 l 1,44,45
 298 648 298 648 247.5 594 c 128,-1,46
 197 540 197 540 156 474.5 c 128,-1,47
 115 409 115 409 88 335.5 c 128,-1,48
 61 262 61 262 61 187 c 0,49,50
 61 126 61 126 79 87.5 c 128,-1,51
 97 49 97 49 126 28 c 128,-1,52
 155 7 155 7 191 -0.5 c 128,-1,53
 227 -8 227 -8 263 -8 c 0,54,55
 281 -8 281 -8 296.5 -7 c 128,-1,56
 312 -6 312 -6 325.5 -5 c 128,-1,57
 339 -4 339 -4 350 -3 c 128,-1,58
 361 -2 361 -2 369 -2 c 0,59,60
 396 -2 396 -2 406 -15 c 128,-1,61
 416 -28 416 -28 417 -37 c 0,62,63
 417 -49 417 -49 409 -58.5 c 128,-1,64
 401 -68 401 -68 387.5 -75.5 c 128,-1,65
 374 -83 374 -83 355.5 -87 c 128,-1,66
 337 -91 337 -91 314 -91 c 0,67,68
 296 -91 296 -91 274.5 -88.5 c 128,-1,69
 253 -86 253 -86 238 -82 c 1,70,-1
 238 -169 l 1,71,72
 264 -174 264 -174 289.5 -177 c 128,-1,73
 315 -180 315 -180 332 -179 c 0,0,1
EndSplineSet
EndChar

